G04 #@! TF.FileFunction,Soldermask,Top*
%FSLAX46Y46*%
G04 Gerber Fmt 4.6, Leading zero omitted, Abs format (unit mm)*
G04 Created by KiCad (PCBNEW (after 2015-mar-04 BZR unknown)-product) date 13/11/2015 0:44:19*
%MOMM*%
G01*
G04 APERTURE LIST*
%ADD10C,0.160000*%
%ADD11C,1.397000*%
%ADD12R,1.700000X1.700000*%
%ADD13R,2.000000X3.000000*%
%ADD14R,3.000000X2.000000*%
%ADD15C,1.500000*%
%ADD16R,2.032000X2.032000*%
%ADD17O,2.032000X2.032000*%
%ADD18O,1.397000X1.800000*%
%ADD19O,1.400000X1.800000*%
%ADD20O,2.600000X1.800000*%
%ADD21O,1.400000X2.300000*%
%ADD22C,1.600000*%
G04 APERTURE END LIST*
D10*
D11*
X235204000Y-141224000D03*
X235204000Y-143724000D03*
D12*
X215844000Y-141310000D03*
X215844000Y-138810000D03*
X218344000Y-141310000D03*
X218344000Y-138810000D03*
X220844000Y-138810000D03*
X220844000Y-141310000D03*
D13*
X213344000Y-133810000D03*
X223344000Y-133810000D03*
D14*
X218344000Y-128810000D03*
D15*
X218344000Y-133810000D03*
X223344000Y-128810000D03*
X213344000Y-129010000D03*
X213344000Y-138810000D03*
X223344000Y-138810000D03*
D13*
X230974000Y-133798000D03*
X241274000Y-133798000D03*
D14*
X236124000Y-128798000D03*
D15*
X241124000Y-128798000D03*
X231124000Y-128798000D03*
X236124000Y-133798000D03*
D16*
X228800000Y-137900000D03*
D17*
X226260000Y-137900000D03*
D18*
X235204000Y-159004000D03*
X235204000Y-156464000D03*
X240284000Y-141224000D03*
X240284000Y-143764000D03*
X237744000Y-159004000D03*
X237744000Y-156464000D03*
X242824000Y-141224000D03*
X242824000Y-143764000D03*
X240284000Y-159004000D03*
X240284000Y-156464000D03*
X242570000Y-161798000D03*
X242570000Y-164338000D03*
X240030000Y-161798000D03*
X240030000Y-164338000D03*
D19*
X235204000Y-138176000D03*
X237744000Y-138176000D03*
X242824000Y-138176000D03*
X240284000Y-138176000D03*
D18*
X242824000Y-156464000D03*
X242824000Y-158964000D03*
D19*
X238506000Y-171958000D03*
X236006000Y-171958000D03*
X242316000Y-168148000D03*
X239816000Y-168148000D03*
D18*
X237744000Y-141224000D03*
X237744000Y-143764000D03*
D20*
X227330000Y-129286000D03*
X227330000Y-134286000D03*
X210058000Y-134112000D03*
X210058000Y-129112000D03*
D21*
X242824000Y-146804000D03*
X240284000Y-146804000D03*
X237744000Y-146804000D03*
X235204000Y-146804000D03*
X235204000Y-153424000D03*
X237744000Y-153424000D03*
X240284000Y-153424000D03*
X242824000Y-153424000D03*
D18*
X236982000Y-164338000D03*
X236982000Y-161798000D03*
X236982000Y-166878000D03*
D22*
X226314000Y-140716000D03*
X228854000Y-140716000D03*
M02*
