M48
METRIC,TZ
T1C0.635
T2C0.750
T3C0.800
T4C0.813
T5C1.000
T6C1.016
%
G90
G05
T1
X-11125Y11448
T3
X-5004Y-29548
X-2464Y-29548
X76Y-29548
X2616Y-29548
T4
X-30475Y11430
X-30475Y6350
X-14515Y15540
X-12695Y11430
X-12695Y6350
X-11975Y15540
X-8885Y5080
X-8885Y2540
X-5080Y5504
X-5075Y-25403
X-5075Y2540
X-5075Y0
X-5075Y-2540
X-5075Y-10160
X-5075Y-12700
X-5075Y-15240
X-5029Y-20658
X-2540Y5504
X-2535Y-25403
X-2535Y2540
X-2535Y0
X-2535Y-2540
X-2535Y-10160
X-2535Y-12700
X-2535Y-15240
X-2489Y-18118
X-2489Y-20658
X-51Y-20658
X0Y5504
X5Y-25403
X5Y2540
X5Y0
X5Y-2540
X5Y-10160
X5Y-12700
X5Y-15240
X2489Y-18118
X2489Y-20658
X2540Y5504
X2545Y-25403
X2545Y2540
X2545Y0
X2545Y-2540
X2545Y-10160
X2545Y-12700
X2545Y-15240
T5
X-24485Y4930
X-24485Y2430
X-21985Y4930
X-21985Y2430
X-19485Y4930
X-19485Y2430
T6
X-14376Y2304
X-11836Y2304
T2
X-9285Y10305G85X-9285Y9555
G05
X-3760Y14930G85X-4510Y14930
G05
X1015Y10305G85X1015Y9555
G05
T5
X-26985Y10430G85X-26985Y9430
G05
X-21485Y14930G85X-22485Y14930
G05
X-16985Y10430G85X-16985Y9430
G05
T0
M30
