M48
METRIC,TZ
T1C0.635
T2C0.750
T3C0.800
T4C0.813
T5C1.000
T6C1.016
T7C1.500
%
G90
G05
T1
X-11133Y11450
T3
X-5080Y-27940
X-2540Y-27940
X0Y-27940
X2540Y-27940
T4
X-30482Y11433
X-30482Y6353
X-14522Y15543
X-12702Y11433
X-12702Y6353
X-11982Y15543
X-8892Y5083
X-8892Y2543
X-5088Y5507
X-5082Y2543
X-5082Y3
X-5082Y-2537
X-5082Y-10157
X-5082Y-12697
X-5082Y-15237
X-5080Y-24130
X-5037Y-20655
X-2548Y5507
X-2542Y2543
X-2542Y3
X-2542Y-2537
X-2542Y-10157
X-2542Y-12697
X-2542Y-15237
X-2540Y-24130
X-2497Y-18115
X-2497Y-20655
X-58Y-20655
X-8Y5507
X-2Y2543
X-2Y3
X-2Y-2537
X-2Y-10157
X-2Y-12697
X-2Y-15237
X0Y-24130
X2482Y-18115
X2482Y-20655
X2532Y5507
X2538Y2543
X2538Y3
X2538Y-2537
X2538Y-10157
X2538Y-12697
X2538Y-15237
X2540Y-24130
T5
X-24492Y4933
X-24492Y2433
X-21992Y4933
X-21992Y2433
X-19492Y4933
X-19492Y2433
T6
X-14384Y2306
X-11844Y2306
T7
X-26992Y14733
X-26992Y4933
X-21992Y9933
X-16992Y14933
X-16992Y4933
X-9142Y14933
X-4142Y9933
X858Y14933
T2
X-9292Y10308G85X-9292Y9558
G05
X-3767Y14933G85X-4517Y14933
G05
X1008Y10308G85X1008Y9558
G05
T5
X-26992Y10433G85X-26992Y9433
G05
X-21492Y14933G85X-22492Y14933
G05
X-16992Y10433G85X-16992Y9433
G05
T0
M30
