G04 (created by PCBNEW (2013-jul-07)-stable) date mar 17 mar 2015 12:17:25 CET*
%MOIN*%
G04 Gerber Fmt 3.4, Leading zero omitted, Abs format*
%FSLAX34Y34*%
G01*
G70*
G90*
G04 APERTURE LIST*
%ADD10C,0.00629921*%
%ADD11C,0.00393701*%
%ADD12C,0.055*%
%ADD13C,0.066*%
%ADD14R,0.06X0.06*%
%ADD15C,0.06*%
%ADD16R,0.055X0.055*%
%ADD17R,0.0787X0.0787*%
%ADD18C,0.0787*%
%ADD19R,0.0669291X0.0669291*%
%ADD20R,0.0787402X0.11811*%
%ADD21R,0.11811X0.0787402*%
%ADD22C,0.0590551*%
%ADD23R,0.0590551X0.0590551*%
G04 APERTURE END LIST*
G54D10*
G54D11*
X1502Y-12087D02*
X1502Y6778D01*
X-2238Y-12287D02*
X1302Y-12287D01*
X-2443Y108D02*
X-2638Y108D01*
X-2443Y-357D02*
X-2443Y108D01*
X-2443Y-12087D02*
X-2443Y-357D01*
X-12701Y6786D02*
X-12701Y306D01*
X-12501Y6986D02*
X1298Y6986D01*
X-12501Y6986D02*
G75*
G03X-12701Y6786I0J-200D01*
G74*
G01*
X-12441Y106D02*
X-12501Y106D01*
X-12701Y306D02*
G75*
G03X-12501Y106I200J0D01*
G74*
G01*
X-12441Y106D02*
X-11961Y106D01*
X-2641Y106D02*
X-12441Y106D01*
X-2441Y-12088D02*
G75*
G03X-2241Y-12288I200J0D01*
G74*
G01*
X1303Y-12288D02*
G75*
G03X1503Y-12088I0J200D01*
G74*
G01*
X1498Y6786D02*
G75*
G03X1298Y6986I-200J0D01*
G74*
G01*
X-2422Y-20180D02*
X-2461Y-20180D01*
G54D12*
X999Y-4998D03*
X999Y-5998D03*
X-2000Y1001D03*
X-2000Y1D03*
X-5000Y2501D03*
X-5000Y4501D03*
X-12000Y2501D03*
X-12000Y4501D03*
G54D13*
X-5717Y6119D03*
X-4717Y6119D03*
G54D14*
X-4663Y908D03*
G54D15*
X-5663Y908D03*
G54D16*
X-23Y-8132D03*
G54D12*
X977Y-8132D03*
X977Y-7132D03*
X0Y-9500D03*
X1000Y-9500D03*
X0Y1001D03*
X0Y1D03*
X-1000Y1001D03*
X-1000Y1D03*
X999Y1001D03*
X999Y1D03*
X-3500Y2001D03*
X-3500Y1001D03*
G54D16*
X999Y-998D03*
G54D12*
X0Y-998D03*
X-1000Y-998D03*
X-2000Y-998D03*
X-2000Y-3998D03*
X-1000Y-3998D03*
X0Y-3998D03*
X999Y-3998D03*
X-1000Y-5998D03*
X-1000Y-4998D03*
X-2000Y-5998D03*
X-2000Y-4998D03*
X0Y-5998D03*
X0Y-4998D03*
G54D17*
X0Y-11000D03*
G54D18*
X1000Y-11000D03*
G54D17*
X-2000Y-11000D03*
G54D18*
X-1000Y-11000D03*
G54D12*
X-1000Y-9500D03*
X-2000Y-9500D03*
G54D16*
X-1983Y-8132D03*
G54D12*
X-983Y-8132D03*
X-983Y-7132D03*
G54D19*
X-9642Y957D03*
X-9642Y1942D03*
X-8658Y957D03*
X-8658Y1942D03*
X-7674Y1942D03*
X-7674Y957D03*
G54D20*
X-10626Y3910D03*
X-6689Y3910D03*
G54D21*
X-8658Y5879D03*
G54D22*
X-8658Y3910D03*
X-6689Y5879D03*
X-10626Y5800D03*
X-10626Y1942D03*
X-6689Y1942D03*
G54D20*
X-3658Y3910D03*
X396Y3910D03*
G54D21*
X-1630Y5879D03*
G54D23*
X337Y5879D03*
X-3599Y5879D03*
G54D22*
X-1630Y3910D03*
G54D12*
X997Y2168D03*
X-3Y2168D03*
X-2003Y2168D03*
X-1003Y2168D03*
M02*
