G04 #@! TF.FileFunction,Copper,L1,Top,Signal*
%FSLAX46Y46*%
G04 Gerber Fmt 4.6, Leading zero omitted, Abs format (unit mm)*
G04 Created by KiCad (PCBNEW (after 2015-mar-04 BZR unknown)-product) date 13/11/2015 0:44:19*
%MOMM*%
G01*
G04 APERTURE LIST*
%ADD10C,0.160000*%
%ADD11C,1.397000*%
%ADD12R,1.700000X1.700000*%
%ADD13R,2.000000X3.000000*%
%ADD14R,3.000000X2.000000*%
%ADD15C,1.500000*%
%ADD16R,2.032000X2.032000*%
%ADD17O,2.032000X2.032000*%
%ADD18O,1.397000X1.800000*%
%ADD19O,1.400000X1.800000*%
%ADD20O,2.600000X1.800000*%
%ADD21O,1.400000X2.300000*%
%ADD22C,1.600000*%
%ADD23C,0.508000*%
%ADD24C,0.152400*%
G04 APERTURE END LIST*
D10*
D11*
X235204000Y-141224000D03*
X235204000Y-143724000D03*
D12*
X215844000Y-141310000D03*
X215844000Y-138810000D03*
X218344000Y-141310000D03*
X218344000Y-138810000D03*
X220844000Y-138810000D03*
X220844000Y-141310000D03*
D13*
X213344000Y-133810000D03*
X223344000Y-133810000D03*
D14*
X218344000Y-128810000D03*
D15*
X218344000Y-133810000D03*
X223344000Y-128810000D03*
X213344000Y-129010000D03*
X213344000Y-138810000D03*
X223344000Y-138810000D03*
D13*
X230974000Y-133798000D03*
X241274000Y-133798000D03*
D14*
X236124000Y-128798000D03*
D15*
X241124000Y-128798000D03*
X231124000Y-128798000D03*
X236124000Y-133798000D03*
D16*
X228800000Y-137900000D03*
D17*
X226260000Y-137900000D03*
D18*
X235204000Y-159004000D03*
X235204000Y-156464000D03*
X240284000Y-141224000D03*
X240284000Y-143764000D03*
X237744000Y-159004000D03*
X237744000Y-156464000D03*
X242824000Y-141224000D03*
X242824000Y-143764000D03*
X240284000Y-159004000D03*
X240284000Y-156464000D03*
X242570000Y-161798000D03*
X242570000Y-164338000D03*
X240030000Y-161798000D03*
X240030000Y-164338000D03*
D19*
X235204000Y-138176000D03*
X237744000Y-138176000D03*
X242824000Y-138176000D03*
X240284000Y-138176000D03*
D18*
X242824000Y-156464000D03*
X242824000Y-158964000D03*
D19*
X238506000Y-171958000D03*
X236006000Y-171958000D03*
X242316000Y-168148000D03*
X239816000Y-168148000D03*
D18*
X237744000Y-141224000D03*
X237744000Y-143764000D03*
D20*
X227330000Y-129286000D03*
X227330000Y-134286000D03*
X210058000Y-134112000D03*
X210058000Y-129112000D03*
D21*
X242824000Y-146804000D03*
X240284000Y-146804000D03*
X237744000Y-146804000D03*
X235204000Y-146804000D03*
X235204000Y-153424000D03*
X237744000Y-153424000D03*
X240284000Y-153424000D03*
X242824000Y-153424000D03*
D18*
X236982000Y-164338000D03*
X236982000Y-161798000D03*
X236982000Y-166878000D03*
D22*
X226314000Y-140716000D03*
X228854000Y-140716000D03*
D23*
X215844000Y-138810000D02*
X215844000Y-141310000D01*
X240030000Y-164338000D02*
X240030000Y-167934000D01*
X240030000Y-167934000D02*
X239816000Y-168148000D01*
X236982000Y-164338000D02*
X240030000Y-164338000D01*
X240030000Y-164338000D02*
X239816000Y-164552000D01*
X235280200Y-162890200D02*
X236728000Y-164338000D01*
X235280200Y-162890200D02*
X235280200Y-161137600D01*
X235280200Y-161137600D02*
X236474000Y-159943800D01*
X236474000Y-159943800D02*
X236474000Y-151536400D01*
X236474000Y-151536400D02*
X235204000Y-150266400D01*
X235204000Y-146304000D02*
X235204000Y-150266400D01*
X236728000Y-164338000D02*
X236982000Y-164338000D01*
X235204000Y-146304000D02*
X235254800Y-146354800D01*
X215844000Y-141310000D02*
X215844000Y-141625200D01*
X215844000Y-141625200D02*
X216900760Y-142681960D01*
X216900760Y-142681960D02*
X234161960Y-142681960D01*
X234161960Y-142681960D02*
X235204000Y-143724000D01*
X235260000Y-146220000D02*
X235260000Y-143680000D01*
X218344000Y-138810000D02*
X218344000Y-141310000D01*
X226301300Y-137767060D02*
X225948240Y-137414000D01*
X225948240Y-137414000D02*
X224536000Y-137414000D01*
X218344000Y-138810000D02*
X218344000Y-138018000D01*
X218344000Y-138018000D02*
X218948000Y-137414000D01*
X218948000Y-137414000D02*
X224536000Y-137414000D01*
X237800000Y-156380000D02*
X237800000Y-153840000D01*
X240340000Y-158920000D02*
X237800000Y-156380000D01*
X239039400Y-150164800D02*
X240284000Y-151409400D01*
X240284000Y-151409400D02*
X240284000Y-153924000D01*
X237744000Y-138176000D02*
X239039400Y-139471400D01*
X239039400Y-139471400D02*
X239039400Y-150164800D01*
X229870000Y-131064000D02*
X229108000Y-131064000D01*
X236474000Y-142240000D02*
X236474000Y-137160000D01*
X236474000Y-137160000D02*
X233426000Y-134112000D01*
X233426000Y-134112000D02*
X233426000Y-132588000D01*
X233426000Y-132588000D02*
X231902000Y-131064000D01*
X231902000Y-131064000D02*
X229870000Y-131064000D01*
X237744000Y-143510000D02*
X236474000Y-142240000D01*
X229108000Y-131064000D02*
X227330000Y-129286000D01*
X237744000Y-143764000D02*
X237744000Y-143510000D01*
X237744000Y-143764000D02*
X237744000Y-143383000D01*
X237800000Y-143680000D02*
X237660000Y-143680000D01*
X237800000Y-143680000D02*
X237800000Y-146220000D01*
X223344000Y-133810000D02*
X226854000Y-133810000D01*
X226854000Y-133810000D02*
X227330000Y-134286000D01*
X223344000Y-133810000D02*
X223344000Y-132904960D01*
X223500000Y-134250000D02*
X223500000Y-133850000D01*
X240340000Y-143680000D02*
X242880000Y-141140000D01*
X240340000Y-143680000D02*
X240340000Y-146220000D01*
D24*
G36*
X243619800Y-172962551D02*
X243598700Y-173068627D01*
X243598700Y-162023601D01*
X243598700Y-161572399D01*
X243520395Y-161178733D01*
X243297401Y-160844998D01*
X242963666Y-160622004D01*
X242570000Y-160543699D01*
X242176334Y-160622004D01*
X241842599Y-160844998D01*
X241619605Y-161178733D01*
X241541300Y-161572399D01*
X241541300Y-162023601D01*
X241619605Y-162417267D01*
X241842599Y-162751002D01*
X242176334Y-162973996D01*
X242570000Y-163052301D01*
X242963666Y-162973996D01*
X243297401Y-162751002D01*
X243520395Y-162417267D01*
X243598700Y-162023601D01*
X243598700Y-173068627D01*
X243592673Y-173098926D01*
X243592673Y-164673430D01*
X243592673Y-164002570D01*
X243463574Y-163621405D01*
X243198436Y-163318658D01*
X242900271Y-163162259D01*
X242743800Y-163206450D01*
X242743800Y-164164200D01*
X243518484Y-164164200D01*
X243592673Y-164002570D01*
X243592673Y-164673430D01*
X243518484Y-164511800D01*
X242743800Y-164511800D01*
X242743800Y-165469550D01*
X242900271Y-165513741D01*
X243198436Y-165357342D01*
X243463574Y-165054595D01*
X243592673Y-164673430D01*
X243592673Y-173098926D01*
X243489617Y-173617021D01*
X243346200Y-173831659D01*
X243346200Y-168372101D01*
X243346200Y-167923899D01*
X243267781Y-167529659D01*
X243044461Y-167195438D01*
X242710240Y-166972118D01*
X242396200Y-166909651D01*
X242396200Y-165469550D01*
X242396200Y-164511800D01*
X242396200Y-164164200D01*
X242396200Y-163206450D01*
X242239729Y-163162259D01*
X241941564Y-163318658D01*
X241676426Y-163621405D01*
X241547327Y-164002570D01*
X241621516Y-164164200D01*
X242396200Y-164164200D01*
X242396200Y-164511800D01*
X241621516Y-164511800D01*
X241547327Y-164673430D01*
X241676426Y-165054595D01*
X241941564Y-165357342D01*
X242239729Y-165513741D01*
X242396200Y-165469550D01*
X242396200Y-166909651D01*
X242316000Y-166893699D01*
X241921760Y-166972118D01*
X241587539Y-167195438D01*
X241364219Y-167529659D01*
X241285800Y-167923899D01*
X241285800Y-168372101D01*
X241364219Y-168766341D01*
X241587539Y-169100562D01*
X241921760Y-169323882D01*
X242316000Y-169402301D01*
X242710240Y-169323882D01*
X243044461Y-169100562D01*
X243267781Y-168766341D01*
X243346200Y-168372101D01*
X243346200Y-173831659D01*
X243140104Y-174140104D01*
X242749197Y-174401300D01*
X239529793Y-174401300D01*
X239529793Y-172293626D01*
X239529793Y-171622374D01*
X239399960Y-171240909D01*
X239134029Y-170938167D01*
X238836509Y-170782256D01*
X238679800Y-170826424D01*
X238679800Y-171784200D01*
X239455855Y-171784200D01*
X239529793Y-171622374D01*
X239529793Y-172293626D01*
X239455855Y-172131800D01*
X238679800Y-172131800D01*
X238679800Y-173089576D01*
X238836509Y-173133744D01*
X239134029Y-172977833D01*
X239399960Y-172675091D01*
X239529793Y-172293626D01*
X239529793Y-174401300D01*
X238332200Y-174401300D01*
X238332200Y-173089576D01*
X238332200Y-172131800D01*
X238332200Y-171784200D01*
X238332200Y-170826424D01*
X238175491Y-170782256D01*
X238004673Y-170871770D01*
X238004673Y-167213430D01*
X238004673Y-166542570D01*
X237875574Y-166161405D01*
X237610436Y-165858658D01*
X237312271Y-165702259D01*
X237155800Y-165746450D01*
X237155800Y-166704200D01*
X237930484Y-166704200D01*
X238004673Y-166542570D01*
X238004673Y-167213430D01*
X237930484Y-167051800D01*
X237155800Y-167051800D01*
X237155800Y-168009550D01*
X237312271Y-168053741D01*
X237610436Y-167897342D01*
X237875574Y-167594595D01*
X238004673Y-167213430D01*
X238004673Y-170871770D01*
X237877971Y-170938167D01*
X237612040Y-171240909D01*
X237482207Y-171622374D01*
X237556145Y-171784200D01*
X238332200Y-171784200D01*
X238332200Y-172131800D01*
X237556145Y-172131800D01*
X237482207Y-172293626D01*
X237612040Y-172675091D01*
X237877971Y-172977833D01*
X238175491Y-173133744D01*
X238332200Y-173089576D01*
X238332200Y-174401300D01*
X237036200Y-174401300D01*
X237036200Y-172182101D01*
X237036200Y-171733899D01*
X236957781Y-171339659D01*
X236808200Y-171115795D01*
X236808200Y-168009550D01*
X236808200Y-167051800D01*
X236808200Y-166704200D01*
X236808200Y-165746450D01*
X236651729Y-165702259D01*
X236353564Y-165858658D01*
X236088426Y-166161405D01*
X235959327Y-166542570D01*
X236033516Y-166704200D01*
X236808200Y-166704200D01*
X236808200Y-167051800D01*
X236033516Y-167051800D01*
X235959327Y-167213430D01*
X236088426Y-167594595D01*
X236353564Y-167897342D01*
X236651729Y-168053741D01*
X236808200Y-168009550D01*
X236808200Y-171115795D01*
X236734461Y-171005438D01*
X236400240Y-170782118D01*
X236006000Y-170703699D01*
X235611760Y-170782118D01*
X235277539Y-171005438D01*
X235054219Y-171339659D01*
X234975800Y-171733899D01*
X234975800Y-172182101D01*
X235054219Y-172576341D01*
X235277539Y-172910562D01*
X235611760Y-173133882D01*
X236006000Y-173212301D01*
X236400240Y-173133882D01*
X236734461Y-172910562D01*
X236957781Y-172576341D01*
X237036200Y-172182101D01*
X237036200Y-174401300D01*
X235250801Y-174401300D01*
X234859895Y-174140104D01*
X234510380Y-173617018D01*
X234380200Y-172962551D01*
X234380200Y-159812730D01*
X234476599Y-159957002D01*
X234810334Y-160179996D01*
X235204000Y-160258301D01*
X235365424Y-160226191D01*
X234867108Y-160724508D01*
X234740470Y-160914036D01*
X234696000Y-161137600D01*
X234696000Y-162890200D01*
X234740470Y-163113764D01*
X234867108Y-163303292D01*
X235953300Y-164389484D01*
X235953300Y-164563601D01*
X236031605Y-164957267D01*
X236254599Y-165291002D01*
X236588334Y-165513996D01*
X236982000Y-165592301D01*
X237375666Y-165513996D01*
X237709401Y-165291002D01*
X237932395Y-164957267D01*
X237939370Y-164922200D01*
X239072629Y-164922200D01*
X239079605Y-164957267D01*
X239302599Y-165291002D01*
X239445800Y-165386685D01*
X239445800Y-166967336D01*
X239421760Y-166972118D01*
X239087539Y-167195438D01*
X238864219Y-167529659D01*
X238785800Y-167923899D01*
X238785800Y-168372101D01*
X238864219Y-168766341D01*
X239087539Y-169100562D01*
X239421760Y-169323882D01*
X239816000Y-169402301D01*
X240210240Y-169323882D01*
X240544461Y-169100562D01*
X240767781Y-168766341D01*
X240846200Y-168372101D01*
X240846200Y-167923899D01*
X240767781Y-167529659D01*
X240614200Y-167299809D01*
X240614200Y-165386685D01*
X240757401Y-165291002D01*
X240980395Y-164957267D01*
X241058700Y-164563601D01*
X241058700Y-164112399D01*
X241058700Y-162023601D01*
X241058700Y-161572399D01*
X240980395Y-161178733D01*
X240757401Y-160844998D01*
X240423666Y-160622004D01*
X240030000Y-160543699D01*
X239636334Y-160622004D01*
X239302599Y-160844998D01*
X239079605Y-161178733D01*
X239001300Y-161572399D01*
X239001300Y-162023601D01*
X239079605Y-162417267D01*
X239302599Y-162751002D01*
X239636334Y-162973996D01*
X240030000Y-163052301D01*
X240423666Y-162973996D01*
X240757401Y-162751002D01*
X240980395Y-162417267D01*
X241058700Y-162023601D01*
X241058700Y-164112399D01*
X240980395Y-163718733D01*
X240757401Y-163384998D01*
X240423666Y-163162004D01*
X240030000Y-163083699D01*
X239636334Y-163162004D01*
X239302599Y-163384998D01*
X239079605Y-163718733D01*
X239072629Y-163753800D01*
X237939370Y-163753800D01*
X237932395Y-163718733D01*
X237709401Y-163384998D01*
X237375666Y-163162004D01*
X236982000Y-163083699D01*
X236588334Y-163162004D01*
X236462360Y-163246176D01*
X235864400Y-162648216D01*
X235864400Y-161379584D01*
X236023250Y-161220733D01*
X235953300Y-161572399D01*
X235953300Y-162023601D01*
X236031605Y-162417267D01*
X236254599Y-162751002D01*
X236588334Y-162973996D01*
X236982000Y-163052301D01*
X237375666Y-162973996D01*
X237709401Y-162751002D01*
X237932395Y-162417267D01*
X238010700Y-162023601D01*
X238010700Y-161572399D01*
X237932395Y-161178733D01*
X237709401Y-160844998D01*
X237375666Y-160622004D01*
X236982000Y-160543699D01*
X236630334Y-160613649D01*
X236887092Y-160356892D01*
X237013730Y-160167364D01*
X237013730Y-160167363D01*
X237051001Y-159979988D01*
X237350334Y-160179996D01*
X237744000Y-160258301D01*
X238137666Y-160179996D01*
X238471401Y-159957002D01*
X238694395Y-159623267D01*
X238772700Y-159229601D01*
X238772700Y-158778399D01*
X238694395Y-158384733D01*
X238471401Y-158050998D01*
X238137666Y-157828004D01*
X237744000Y-157749699D01*
X237350334Y-157828004D01*
X237058200Y-158023201D01*
X237058200Y-157444798D01*
X237350334Y-157639996D01*
X237744000Y-157718301D01*
X238137666Y-157639996D01*
X238195301Y-157601485D01*
X239274697Y-158680880D01*
X239255300Y-158778399D01*
X239255300Y-159229601D01*
X239333605Y-159623267D01*
X239556599Y-159957002D01*
X239890334Y-160179996D01*
X240284000Y-160258301D01*
X240677666Y-160179996D01*
X241011401Y-159957002D01*
X241234395Y-159623267D01*
X241312700Y-159229601D01*
X241312700Y-158778399D01*
X241234395Y-158384733D01*
X241011401Y-158050998D01*
X240677666Y-157828004D01*
X240284000Y-157749699D01*
X240043684Y-157797500D01*
X239877813Y-157631629D01*
X239890334Y-157639996D01*
X240284000Y-157718301D01*
X240677666Y-157639996D01*
X241011401Y-157417002D01*
X241234395Y-157083267D01*
X241312700Y-156689601D01*
X241312700Y-156238399D01*
X241234395Y-155844733D01*
X241011401Y-155510998D01*
X240677666Y-155288004D01*
X240284000Y-155209699D01*
X239890334Y-155288004D01*
X239556599Y-155510998D01*
X239333605Y-155844733D01*
X239255300Y-156238399D01*
X239255300Y-156689601D01*
X239333605Y-157083267D01*
X239341970Y-157095787D01*
X238772700Y-156526516D01*
X238772700Y-156238399D01*
X238694395Y-155844733D01*
X238471401Y-155510998D01*
X238384200Y-155452732D01*
X238384200Y-154690434D01*
X238472461Y-154631460D01*
X238695781Y-154297239D01*
X238774200Y-153902999D01*
X238774200Y-152945001D01*
X238695781Y-152550761D01*
X238472461Y-152216540D01*
X238138240Y-151993220D01*
X237744000Y-151914801D01*
X237349760Y-151993220D01*
X237058200Y-152188034D01*
X237058200Y-151536400D01*
X237013730Y-151312837D01*
X237013730Y-151312836D01*
X236887092Y-151123308D01*
X235788200Y-150024416D01*
X235788200Y-148107852D01*
X235932461Y-148011460D01*
X236155781Y-147677239D01*
X236234200Y-147282999D01*
X236234200Y-146325001D01*
X236155781Y-145930761D01*
X235932461Y-145596540D01*
X235844200Y-145537565D01*
X235844200Y-144538449D01*
X236075581Y-144307472D01*
X236232521Y-143929519D01*
X236232878Y-143520277D01*
X236076598Y-143142050D01*
X235787472Y-142852419D01*
X235409519Y-142695479D01*
X235001306Y-142695122D01*
X234575052Y-142268868D01*
X234385524Y-142142230D01*
X234161960Y-142097760D01*
X230146200Y-142097760D01*
X230146200Y-138981681D01*
X230146200Y-138156350D01*
X230146200Y-137643650D01*
X230146200Y-136818319D01*
X230095930Y-136696957D01*
X230003043Y-136604070D01*
X229881681Y-136553800D01*
X229750319Y-136553800D01*
X229056350Y-136553800D01*
X228992138Y-136618012D01*
X228992138Y-134286000D01*
X228898495Y-133815223D01*
X228631821Y-133416117D01*
X228232715Y-133149443D01*
X227761938Y-133055800D01*
X226898062Y-133055800D01*
X226427285Y-133149443D01*
X226313008Y-133225800D01*
X224680669Y-133225800D01*
X224680669Y-132310000D01*
X224656241Y-132184096D01*
X224583550Y-132073438D01*
X224473813Y-131999364D01*
X224424387Y-131989451D01*
X224424387Y-128596078D01*
X224260283Y-128198915D01*
X223956683Y-127894785D01*
X223559808Y-127729988D01*
X223130078Y-127729613D01*
X222732915Y-127893717D01*
X222428785Y-128197317D01*
X222263988Y-128594192D01*
X222263613Y-129023922D01*
X222427717Y-129421085D01*
X222731317Y-129725215D01*
X223128192Y-129890012D01*
X223557922Y-129890387D01*
X223955085Y-129726283D01*
X224259215Y-129422683D01*
X224424012Y-129025808D01*
X224424387Y-128596078D01*
X224424387Y-131989451D01*
X224344000Y-131973331D01*
X222344000Y-131973331D01*
X222218096Y-131997759D01*
X222107438Y-132070450D01*
X222033364Y-132180187D01*
X222007331Y-132310000D01*
X222007331Y-135310000D01*
X222031759Y-135435904D01*
X222104450Y-135546562D01*
X222214187Y-135620636D01*
X222344000Y-135646669D01*
X224344000Y-135646669D01*
X224469904Y-135622241D01*
X224580562Y-135549550D01*
X224654636Y-135439813D01*
X224680669Y-135310000D01*
X224680669Y-134394200D01*
X225689384Y-134394200D01*
X225761505Y-134756777D01*
X226028179Y-135155883D01*
X226427285Y-135422557D01*
X226898062Y-135516200D01*
X227761938Y-135516200D01*
X228232715Y-135422557D01*
X228631821Y-135155883D01*
X228898495Y-134756777D01*
X228992138Y-134286000D01*
X228992138Y-136618012D01*
X228973800Y-136636350D01*
X228973800Y-137726200D01*
X230063650Y-137726200D01*
X230146200Y-137643650D01*
X230146200Y-138156350D01*
X230063650Y-138073800D01*
X228973800Y-138073800D01*
X228973800Y-139163650D01*
X229056350Y-139246200D01*
X229750319Y-139246200D01*
X229881681Y-139246200D01*
X230003043Y-139195930D01*
X230095930Y-139103043D01*
X230146200Y-138981681D01*
X230146200Y-142097760D01*
X229984396Y-142097760D01*
X229984396Y-140492176D01*
X229812696Y-140076629D01*
X229495043Y-139758422D01*
X229079797Y-139585997D01*
X228630176Y-139585604D01*
X228214629Y-139757304D01*
X227896422Y-140074957D01*
X227723997Y-140490203D01*
X227723604Y-140939824D01*
X227895304Y-141355371D01*
X228212957Y-141673578D01*
X228628203Y-141846003D01*
X229077824Y-141846396D01*
X229493371Y-141674696D01*
X229811578Y-141357043D01*
X229984003Y-140941797D01*
X229984396Y-140492176D01*
X229984396Y-142097760D01*
X227444396Y-142097760D01*
X227444396Y-140492176D01*
X227272696Y-140076629D01*
X226955043Y-139758422D01*
X226539797Y-139585997D01*
X226090176Y-139585604D01*
X225674629Y-139757304D01*
X225356422Y-140074957D01*
X225183997Y-140490203D01*
X225183604Y-140939824D01*
X225355304Y-141355371D01*
X225672957Y-141673578D01*
X226088203Y-141846003D01*
X226537824Y-141846396D01*
X226953371Y-141674696D01*
X227271578Y-141357043D01*
X227444003Y-140941797D01*
X227444396Y-140492176D01*
X227444396Y-142097760D01*
X222030669Y-142097760D01*
X222030669Y-140460000D01*
X222006241Y-140334096D01*
X221933550Y-140223438D01*
X221823813Y-140149364D01*
X221694000Y-140123331D01*
X219994000Y-140123331D01*
X219868096Y-140147759D01*
X219757438Y-140220450D01*
X219683364Y-140330187D01*
X219657331Y-140460000D01*
X219657331Y-142097760D01*
X219530669Y-142097760D01*
X219530669Y-140460000D01*
X219506241Y-140334096D01*
X219433550Y-140223438D01*
X219323813Y-140149364D01*
X219194000Y-140123331D01*
X218928200Y-140123331D01*
X218928200Y-139996669D01*
X219194000Y-139996669D01*
X219319904Y-139972241D01*
X219430562Y-139899550D01*
X219504636Y-139789813D01*
X219530669Y-139660000D01*
X219530669Y-137998200D01*
X219657331Y-137998200D01*
X219657331Y-139660000D01*
X219681759Y-139785904D01*
X219754450Y-139896562D01*
X219864187Y-139970636D01*
X219994000Y-139996669D01*
X221694000Y-139996669D01*
X221819904Y-139972241D01*
X221930562Y-139899550D01*
X222004636Y-139789813D01*
X222030669Y-139660000D01*
X222030669Y-137998200D01*
X222628249Y-137998200D01*
X222428785Y-138197317D01*
X222263988Y-138594192D01*
X222263613Y-139023922D01*
X222427717Y-139421085D01*
X222731317Y-139725215D01*
X223128192Y-139890012D01*
X223557922Y-139890387D01*
X223955085Y-139726283D01*
X224259215Y-139422683D01*
X224424012Y-139025808D01*
X224424387Y-138596078D01*
X224260283Y-138198915D01*
X224059917Y-137998200D01*
X224536000Y-137998200D01*
X224928087Y-137998200D01*
X225016273Y-138441542D01*
X225308093Y-138878281D01*
X225744832Y-139170101D01*
X226260000Y-139272574D01*
X226775168Y-139170101D01*
X227211907Y-138878281D01*
X227453800Y-138516262D01*
X227453800Y-138981681D01*
X227504070Y-139103043D01*
X227596957Y-139195930D01*
X227718319Y-139246200D01*
X227849681Y-139246200D01*
X228543650Y-139246200D01*
X228626200Y-139163650D01*
X228626200Y-138073800D01*
X228606200Y-138073800D01*
X228606200Y-137726200D01*
X228626200Y-137726200D01*
X228626200Y-136636350D01*
X228543650Y-136553800D01*
X227849681Y-136553800D01*
X227718319Y-136553800D01*
X227596957Y-136604070D01*
X227504070Y-136696957D01*
X227453800Y-136818319D01*
X227453800Y-137283737D01*
X227211907Y-136921719D01*
X226775168Y-136629899D01*
X226260000Y-136527426D01*
X225744832Y-136629899D01*
X225445659Y-136829800D01*
X224536000Y-136829800D01*
X220180669Y-136829800D01*
X220180669Y-129810000D01*
X220180669Y-127810000D01*
X220156241Y-127684096D01*
X220083550Y-127573438D01*
X219973813Y-127499364D01*
X219844000Y-127473331D01*
X216844000Y-127473331D01*
X216718096Y-127497759D01*
X216607438Y-127570450D01*
X216533364Y-127680187D01*
X216507331Y-127810000D01*
X216507331Y-129810000D01*
X216531759Y-129935904D01*
X216604450Y-130046562D01*
X216714187Y-130120636D01*
X216844000Y-130146669D01*
X219844000Y-130146669D01*
X219969904Y-130122241D01*
X220080562Y-130049550D01*
X220154636Y-129939813D01*
X220180669Y-129810000D01*
X220180669Y-136829800D01*
X219424387Y-136829800D01*
X219424387Y-133596078D01*
X219260283Y-133198915D01*
X218956683Y-132894785D01*
X218559808Y-132729988D01*
X218130078Y-132729613D01*
X217732915Y-132893717D01*
X217428785Y-133197317D01*
X217263988Y-133594192D01*
X217263613Y-134023922D01*
X217427717Y-134421085D01*
X217731317Y-134725215D01*
X218128192Y-134890012D01*
X218557922Y-134890387D01*
X218955085Y-134726283D01*
X219259215Y-134422683D01*
X219424012Y-134025808D01*
X219424387Y-133596078D01*
X219424387Y-136829800D01*
X218948000Y-136829800D01*
X218724436Y-136874270D01*
X218534908Y-137000908D01*
X217930908Y-137604908D01*
X217918598Y-137623331D01*
X217494000Y-137623331D01*
X217368096Y-137647759D01*
X217257438Y-137720450D01*
X217183364Y-137830187D01*
X217157331Y-137960000D01*
X217157331Y-139660000D01*
X217181759Y-139785904D01*
X217254450Y-139896562D01*
X217364187Y-139970636D01*
X217494000Y-139996669D01*
X217759800Y-139996669D01*
X217759800Y-140123331D01*
X217494000Y-140123331D01*
X217368096Y-140147759D01*
X217257438Y-140220450D01*
X217183364Y-140330187D01*
X217157331Y-140460000D01*
X217157331Y-142097760D01*
X217142744Y-142097760D01*
X217030669Y-141985685D01*
X217030669Y-140460000D01*
X217006241Y-140334096D01*
X216933550Y-140223438D01*
X216823813Y-140149364D01*
X216694000Y-140123331D01*
X216428200Y-140123331D01*
X216428200Y-139996669D01*
X216694000Y-139996669D01*
X216819904Y-139972241D01*
X216930562Y-139899550D01*
X217004636Y-139789813D01*
X217030669Y-139660000D01*
X217030669Y-137960000D01*
X217006241Y-137834096D01*
X216933550Y-137723438D01*
X216823813Y-137649364D01*
X216694000Y-137623331D01*
X214994000Y-137623331D01*
X214868096Y-137647759D01*
X214757438Y-137720450D01*
X214683364Y-137830187D01*
X214680669Y-137843625D01*
X214680669Y-135310000D01*
X214680669Y-132310000D01*
X214656241Y-132184096D01*
X214583550Y-132073438D01*
X214473813Y-131999364D01*
X214424387Y-131989451D01*
X214424387Y-128796078D01*
X214260283Y-128398915D01*
X213956683Y-128094785D01*
X213559808Y-127929988D01*
X213130078Y-127929613D01*
X212732915Y-128093717D01*
X212428785Y-128397317D01*
X212263988Y-128794192D01*
X212263613Y-129223922D01*
X212427717Y-129621085D01*
X212731317Y-129925215D01*
X213128192Y-130090012D01*
X213557922Y-130090387D01*
X213955085Y-129926283D01*
X214259215Y-129622683D01*
X214424012Y-129225808D01*
X214424387Y-128796078D01*
X214424387Y-131989451D01*
X214344000Y-131973331D01*
X212344000Y-131973331D01*
X212218096Y-131997759D01*
X212107438Y-132070450D01*
X212033364Y-132180187D01*
X212007331Y-132310000D01*
X212007331Y-135310000D01*
X212031759Y-135435904D01*
X212104450Y-135546562D01*
X212214187Y-135620636D01*
X212344000Y-135646669D01*
X214344000Y-135646669D01*
X214469904Y-135622241D01*
X214580562Y-135549550D01*
X214654636Y-135439813D01*
X214680669Y-135310000D01*
X214680669Y-137843625D01*
X214657331Y-137960000D01*
X214657331Y-139660000D01*
X214681759Y-139785904D01*
X214754450Y-139896562D01*
X214864187Y-139970636D01*
X214994000Y-139996669D01*
X215259800Y-139996669D01*
X215259800Y-140123331D01*
X214994000Y-140123331D01*
X214868096Y-140147759D01*
X214757438Y-140220450D01*
X214683364Y-140330187D01*
X214657331Y-140460000D01*
X214657331Y-142160000D01*
X214681759Y-142285904D01*
X214754450Y-142396562D01*
X214864187Y-142470636D01*
X214994000Y-142496669D01*
X215889285Y-142496669D01*
X216234416Y-142841800D01*
X214424387Y-142841800D01*
X214424387Y-138596078D01*
X214260283Y-138198915D01*
X213956683Y-137894785D01*
X213559808Y-137729988D01*
X213130078Y-137729613D01*
X212732915Y-137893717D01*
X212428785Y-138197317D01*
X212263988Y-138594192D01*
X212263613Y-139023922D01*
X212427717Y-139421085D01*
X212731317Y-139725215D01*
X213128192Y-139890012D01*
X213557922Y-139890387D01*
X213955085Y-139726283D01*
X214259215Y-139422683D01*
X214424012Y-139025808D01*
X214424387Y-138596078D01*
X214424387Y-142841800D01*
X212396682Y-142841800D01*
X211117612Y-142587377D01*
X209945682Y-141804317D01*
X209162622Y-140632387D01*
X208880200Y-139212551D01*
X208880200Y-135064751D01*
X209155285Y-135248557D01*
X209626062Y-135342200D01*
X210489938Y-135342200D01*
X210960715Y-135248557D01*
X211359821Y-134981883D01*
X211626495Y-134582777D01*
X211720138Y-134112000D01*
X211626495Y-133641223D01*
X211359821Y-133242117D01*
X210960715Y-132975443D01*
X210489938Y-132881800D01*
X209626062Y-132881800D01*
X209155285Y-132975443D01*
X208880200Y-133159248D01*
X208880200Y-130064751D01*
X209155285Y-130248557D01*
X209626062Y-130342200D01*
X210489938Y-130342200D01*
X210960715Y-130248557D01*
X211359821Y-129981883D01*
X211626495Y-129582777D01*
X211720138Y-129112000D01*
X211626495Y-128641223D01*
X211359821Y-128242117D01*
X210960715Y-127975443D01*
X210489938Y-127881800D01*
X209626062Y-127881800D01*
X209198663Y-127966814D01*
X209506340Y-127506343D01*
X210191637Y-127048441D01*
X211037448Y-126880200D01*
X241962551Y-126880200D01*
X242617018Y-127010380D01*
X243140104Y-127359895D01*
X243489617Y-127882978D01*
X243619800Y-128537448D01*
X243619800Y-137324217D01*
X243552461Y-137223438D01*
X243218240Y-137000118D01*
X242824000Y-136921699D01*
X242610669Y-136964133D01*
X242610669Y-135298000D01*
X242610669Y-132298000D01*
X242586241Y-132172096D01*
X242513550Y-132061438D01*
X242403813Y-131987364D01*
X242274000Y-131961331D01*
X242204387Y-131961331D01*
X242204387Y-128584078D01*
X242040283Y-128186915D01*
X241736683Y-127882785D01*
X241339808Y-127717988D01*
X240910078Y-127717613D01*
X240512915Y-127881717D01*
X240208785Y-128185317D01*
X240043988Y-128582192D01*
X240043613Y-129011922D01*
X240207717Y-129409085D01*
X240511317Y-129713215D01*
X240908192Y-129878012D01*
X241337922Y-129878387D01*
X241735085Y-129714283D01*
X242039215Y-129410683D01*
X242204012Y-129013808D01*
X242204387Y-128584078D01*
X242204387Y-131961331D01*
X240274000Y-131961331D01*
X240148096Y-131985759D01*
X240037438Y-132058450D01*
X239963364Y-132168187D01*
X239937331Y-132298000D01*
X239937331Y-135298000D01*
X239961759Y-135423904D01*
X240034450Y-135534562D01*
X240144187Y-135608636D01*
X240274000Y-135634669D01*
X242274000Y-135634669D01*
X242399904Y-135610241D01*
X242510562Y-135537550D01*
X242584636Y-135427813D01*
X242610669Y-135298000D01*
X242610669Y-136964133D01*
X242429760Y-137000118D01*
X242095539Y-137223438D01*
X241872219Y-137557659D01*
X241793800Y-137951899D01*
X241793800Y-138400101D01*
X241872219Y-138794341D01*
X242095539Y-139128562D01*
X242429760Y-139351882D01*
X242824000Y-139430301D01*
X243218240Y-139351882D01*
X243552461Y-139128562D01*
X243619800Y-139027782D01*
X243619800Y-140373364D01*
X243551401Y-140270998D01*
X243217666Y-140048004D01*
X242824000Y-139969699D01*
X242430334Y-140048004D01*
X242096599Y-140270998D01*
X241873605Y-140604733D01*
X241795300Y-140998399D01*
X241795300Y-141398516D01*
X241314200Y-141879615D01*
X241314200Y-138400101D01*
X241314200Y-137951899D01*
X241235781Y-137557659D01*
X241012461Y-137223438D01*
X240678240Y-137000118D01*
X240284000Y-136921699D01*
X239889760Y-137000118D01*
X239555539Y-137223438D01*
X239332219Y-137557659D01*
X239253800Y-137951899D01*
X239253800Y-138400101D01*
X239332219Y-138794341D01*
X239555539Y-139128562D01*
X239889760Y-139351882D01*
X240284000Y-139430301D01*
X240678240Y-139351882D01*
X241012461Y-139128562D01*
X241235781Y-138794341D01*
X241314200Y-138400101D01*
X241314200Y-141879615D01*
X240617733Y-142576082D01*
X240284000Y-142509699D01*
X239890334Y-142588004D01*
X239623600Y-142766229D01*
X239623600Y-142221770D01*
X239890334Y-142399996D01*
X240284000Y-142478301D01*
X240677666Y-142399996D01*
X241011401Y-142177002D01*
X241234395Y-141843267D01*
X241312700Y-141449601D01*
X241312700Y-140998399D01*
X241234395Y-140604733D01*
X241011401Y-140270998D01*
X240677666Y-140048004D01*
X240284000Y-139969699D01*
X239890334Y-140048004D01*
X239623600Y-140226229D01*
X239623600Y-139471400D01*
X239579130Y-139247837D01*
X239579130Y-139247836D01*
X239452492Y-139058308D01*
X238774200Y-138380016D01*
X238774200Y-137951899D01*
X238695781Y-137557659D01*
X238472461Y-137223438D01*
X238138240Y-137000118D01*
X237960669Y-136964797D01*
X237960669Y-129798000D01*
X237960669Y-127798000D01*
X237936241Y-127672096D01*
X237863550Y-127561438D01*
X237753813Y-127487364D01*
X237624000Y-127461331D01*
X234624000Y-127461331D01*
X234498096Y-127485759D01*
X234387438Y-127558450D01*
X234313364Y-127668187D01*
X234287331Y-127798000D01*
X234287331Y-129798000D01*
X234311759Y-129923904D01*
X234384450Y-130034562D01*
X234494187Y-130108636D01*
X234624000Y-130134669D01*
X237624000Y-130134669D01*
X237749904Y-130110241D01*
X237860562Y-130037550D01*
X237934636Y-129927813D01*
X237960669Y-129798000D01*
X237960669Y-136964797D01*
X237744000Y-136921699D01*
X237349760Y-137000118D01*
X237204387Y-137097253D01*
X237204387Y-133584078D01*
X237040283Y-133186915D01*
X236736683Y-132882785D01*
X236339808Y-132717988D01*
X235910078Y-132717613D01*
X235512915Y-132881717D01*
X235208785Y-133185317D01*
X235043988Y-133582192D01*
X235043613Y-134011922D01*
X235207717Y-134409085D01*
X235511317Y-134713215D01*
X235908192Y-134878012D01*
X236337922Y-134878387D01*
X236735085Y-134714283D01*
X237039215Y-134410683D01*
X237204012Y-134013808D01*
X237204387Y-133584078D01*
X237204387Y-137097253D01*
X237058200Y-137194932D01*
X237058200Y-137160000D01*
X237013730Y-136936437D01*
X237013730Y-136936436D01*
X236887092Y-136746908D01*
X234010200Y-133870016D01*
X234010200Y-132588000D01*
X233965730Y-132364437D01*
X233965730Y-132364436D01*
X233839092Y-132174908D01*
X233839088Y-132174905D01*
X232315092Y-130650908D01*
X232204387Y-130576937D01*
X232204387Y-128584078D01*
X232040283Y-128186915D01*
X231736683Y-127882785D01*
X231339808Y-127717988D01*
X230910078Y-127717613D01*
X230512915Y-127881717D01*
X230208785Y-128185317D01*
X230043988Y-128582192D01*
X230043613Y-129011922D01*
X230207717Y-129409085D01*
X230511317Y-129713215D01*
X230908192Y-129878012D01*
X231337922Y-129878387D01*
X231735085Y-129714283D01*
X232039215Y-129410683D01*
X232204012Y-129013808D01*
X232204387Y-128584078D01*
X232204387Y-130576937D01*
X232125564Y-130524270D01*
X231902000Y-130479800D01*
X229870000Y-130479800D01*
X229349984Y-130479800D01*
X228789733Y-129919549D01*
X228898495Y-129756777D01*
X228992138Y-129286000D01*
X228898495Y-128815223D01*
X228631821Y-128416117D01*
X228232715Y-128149443D01*
X227761938Y-128055800D01*
X226898062Y-128055800D01*
X226427285Y-128149443D01*
X226028179Y-128416117D01*
X225761505Y-128815223D01*
X225667862Y-129286000D01*
X225761505Y-129756777D01*
X226028179Y-130155883D01*
X226427285Y-130422557D01*
X226898062Y-130516200D01*
X227734016Y-130516200D01*
X228694908Y-131477092D01*
X228884436Y-131603730D01*
X228884437Y-131603731D01*
X229108000Y-131648201D01*
X229108000Y-131648200D01*
X229108005Y-131648200D01*
X229870000Y-131648200D01*
X231660016Y-131648200D01*
X231973147Y-131961331D01*
X229974000Y-131961331D01*
X229848096Y-131985759D01*
X229737438Y-132058450D01*
X229663364Y-132168187D01*
X229637331Y-132298000D01*
X229637331Y-135298000D01*
X229661759Y-135423904D01*
X229734450Y-135534562D01*
X229844187Y-135608636D01*
X229974000Y-135634669D01*
X231974000Y-135634669D01*
X232099904Y-135610241D01*
X232210562Y-135537550D01*
X232284636Y-135427813D01*
X232310669Y-135298000D01*
X232310669Y-132298852D01*
X232841800Y-132829983D01*
X232841800Y-134112000D01*
X232886270Y-134335564D01*
X233012908Y-134525092D01*
X235460544Y-136972728D01*
X235204000Y-136921699D01*
X234809760Y-137000118D01*
X234475539Y-137223438D01*
X234252219Y-137557659D01*
X234173800Y-137951899D01*
X234173800Y-138400101D01*
X234252219Y-138794341D01*
X234475539Y-139128562D01*
X234809760Y-139351882D01*
X235204000Y-139430301D01*
X235598240Y-139351882D01*
X235889800Y-139157067D01*
X235889800Y-140454925D01*
X235787472Y-140352419D01*
X235409519Y-140195479D01*
X235000277Y-140195122D01*
X234622050Y-140351402D01*
X234332419Y-140640528D01*
X234175479Y-141018481D01*
X234175122Y-141427723D01*
X234331402Y-141805950D01*
X234620528Y-142095581D01*
X234998481Y-142252521D01*
X235407723Y-142252878D01*
X235785950Y-142096598D01*
X235889800Y-141992929D01*
X235889800Y-142240000D01*
X235934270Y-142463564D01*
X236060908Y-142653092D01*
X236753611Y-143345795D01*
X236715300Y-143538399D01*
X236715300Y-143989601D01*
X236793605Y-144383267D01*
X237016599Y-144717002D01*
X237215800Y-144850103D01*
X237215800Y-145462729D01*
X237015539Y-145596540D01*
X236792219Y-145930761D01*
X236713800Y-146325001D01*
X236713800Y-147282999D01*
X236792219Y-147677239D01*
X237015539Y-148011460D01*
X237349760Y-148234780D01*
X237744000Y-148313199D01*
X238138240Y-148234780D01*
X238455200Y-148022993D01*
X238455200Y-150164800D01*
X238499670Y-150388364D01*
X238626308Y-150577892D01*
X239699800Y-151651384D01*
X239699800Y-152120147D01*
X239555539Y-152216540D01*
X239332219Y-152550761D01*
X239253800Y-152945001D01*
X239253800Y-153902999D01*
X239332219Y-154297239D01*
X239555539Y-154631460D01*
X239889760Y-154854780D01*
X240284000Y-154933199D01*
X240678240Y-154854780D01*
X241012461Y-154631460D01*
X241235781Y-154297239D01*
X241314200Y-153902999D01*
X241314200Y-152945001D01*
X241235781Y-152550761D01*
X241012461Y-152216540D01*
X240868200Y-152120147D01*
X240868200Y-151409400D01*
X240823730Y-151185837D01*
X240823730Y-151185836D01*
X240697092Y-150996308D01*
X239623600Y-149922816D01*
X239623600Y-148056937D01*
X239889760Y-148234780D01*
X240284000Y-148313199D01*
X240678240Y-148234780D01*
X241012461Y-148011460D01*
X241235781Y-147677239D01*
X241314200Y-147282999D01*
X241314200Y-146325001D01*
X241235781Y-145930761D01*
X241012461Y-145596540D01*
X240924200Y-145537565D01*
X240924200Y-144775267D01*
X241011401Y-144717002D01*
X241234395Y-144383267D01*
X241312700Y-143989601D01*
X241312700Y-143538399D01*
X241311884Y-143534299D01*
X242443557Y-142402626D01*
X242824000Y-142478301D01*
X243217666Y-142399996D01*
X243551401Y-142177002D01*
X243619800Y-142074635D01*
X243619800Y-142913364D01*
X243551401Y-142810998D01*
X243217666Y-142588004D01*
X242824000Y-142509699D01*
X242430334Y-142588004D01*
X242096599Y-142810998D01*
X241873605Y-143144733D01*
X241795300Y-143538399D01*
X241795300Y-143989601D01*
X241873605Y-144383267D01*
X242096599Y-144717002D01*
X242430334Y-144939996D01*
X242824000Y-145018301D01*
X243217666Y-144939996D01*
X243551401Y-144717002D01*
X243619800Y-144614635D01*
X243619800Y-145697319D01*
X243552461Y-145596540D01*
X243218240Y-145373220D01*
X242824000Y-145294801D01*
X242429760Y-145373220D01*
X242095539Y-145596540D01*
X241872219Y-145930761D01*
X241793800Y-146325001D01*
X241793800Y-147282999D01*
X241872219Y-147677239D01*
X242095539Y-148011460D01*
X242429760Y-148234780D01*
X242824000Y-148313199D01*
X243218240Y-148234780D01*
X243552461Y-148011460D01*
X243619800Y-147910680D01*
X243619800Y-152324331D01*
X243429566Y-152122643D01*
X243154509Y-151998256D01*
X242997800Y-152042424D01*
X242997800Y-153250200D01*
X243017800Y-153250200D01*
X243017800Y-153597800D01*
X242997800Y-153597800D01*
X242997800Y-154805576D01*
X243154509Y-154849744D01*
X243429566Y-154725357D01*
X243619800Y-154523668D01*
X243619800Y-155635762D01*
X243452436Y-155444658D01*
X243154271Y-155288259D01*
X242997800Y-155332450D01*
X242997800Y-156290200D01*
X243017800Y-156290200D01*
X243017800Y-156637800D01*
X242997800Y-156637800D01*
X242997800Y-157595550D01*
X243154271Y-157639741D01*
X243452436Y-157483342D01*
X243619800Y-157292237D01*
X243619800Y-158113364D01*
X243551401Y-158010998D01*
X243217666Y-157788004D01*
X242824000Y-157709699D01*
X242650200Y-157744269D01*
X242650200Y-157595550D01*
X242650200Y-156637800D01*
X242650200Y-156290200D01*
X242650200Y-155332450D01*
X242650200Y-154805576D01*
X242650200Y-153597800D01*
X242650200Y-153250200D01*
X242650200Y-152042424D01*
X242493491Y-151998256D01*
X242218434Y-152122643D01*
X241938730Y-152419189D01*
X241793800Y-152800200D01*
X241793800Y-153250200D01*
X242650200Y-153250200D01*
X242650200Y-153597800D01*
X241793800Y-153597800D01*
X241793800Y-154047800D01*
X241938730Y-154428811D01*
X242218434Y-154725357D01*
X242493491Y-154849744D01*
X242650200Y-154805576D01*
X242650200Y-155332450D01*
X242493729Y-155288259D01*
X242195564Y-155444658D01*
X241930426Y-155747405D01*
X241801327Y-156128570D01*
X241875516Y-156290200D01*
X242650200Y-156290200D01*
X242650200Y-156637800D01*
X241875516Y-156637800D01*
X241801327Y-156799430D01*
X241930426Y-157180595D01*
X242195564Y-157483342D01*
X242493729Y-157639741D01*
X242650200Y-157595550D01*
X242650200Y-157744269D01*
X242430334Y-157788004D01*
X242096599Y-158010998D01*
X241873605Y-158344733D01*
X241795300Y-158738399D01*
X241795300Y-159189601D01*
X241873605Y-159583267D01*
X242096599Y-159917002D01*
X242430334Y-160139996D01*
X242824000Y-160218301D01*
X243217666Y-160139996D01*
X243551401Y-159917002D01*
X243619800Y-159814635D01*
X243619800Y-172962551D01*
X243619800Y-172962551D01*
G37*
X243619800Y-172962551D02*
X243598700Y-173068627D01*
X243598700Y-162023601D01*
X243598700Y-161572399D01*
X243520395Y-161178733D01*
X243297401Y-160844998D01*
X242963666Y-160622004D01*
X242570000Y-160543699D01*
X242176334Y-160622004D01*
X241842599Y-160844998D01*
X241619605Y-161178733D01*
X241541300Y-161572399D01*
X241541300Y-162023601D01*
X241619605Y-162417267D01*
X241842599Y-162751002D01*
X242176334Y-162973996D01*
X242570000Y-163052301D01*
X242963666Y-162973996D01*
X243297401Y-162751002D01*
X243520395Y-162417267D01*
X243598700Y-162023601D01*
X243598700Y-173068627D01*
X243592673Y-173098926D01*
X243592673Y-164673430D01*
X243592673Y-164002570D01*
X243463574Y-163621405D01*
X243198436Y-163318658D01*
X242900271Y-163162259D01*
X242743800Y-163206450D01*
X242743800Y-164164200D01*
X243518484Y-164164200D01*
X243592673Y-164002570D01*
X243592673Y-164673430D01*
X243518484Y-164511800D01*
X242743800Y-164511800D01*
X242743800Y-165469550D01*
X242900271Y-165513741D01*
X243198436Y-165357342D01*
X243463574Y-165054595D01*
X243592673Y-164673430D01*
X243592673Y-173098926D01*
X243489617Y-173617021D01*
X243346200Y-173831659D01*
X243346200Y-168372101D01*
X243346200Y-167923899D01*
X243267781Y-167529659D01*
X243044461Y-167195438D01*
X242710240Y-166972118D01*
X242396200Y-166909651D01*
X242396200Y-165469550D01*
X242396200Y-164511800D01*
X242396200Y-164164200D01*
X242396200Y-163206450D01*
X242239729Y-163162259D01*
X241941564Y-163318658D01*
X241676426Y-163621405D01*
X241547327Y-164002570D01*
X241621516Y-164164200D01*
X242396200Y-164164200D01*
X242396200Y-164511800D01*
X241621516Y-164511800D01*
X241547327Y-164673430D01*
X241676426Y-165054595D01*
X241941564Y-165357342D01*
X242239729Y-165513741D01*
X242396200Y-165469550D01*
X242396200Y-166909651D01*
X242316000Y-166893699D01*
X241921760Y-166972118D01*
X241587539Y-167195438D01*
X241364219Y-167529659D01*
X241285800Y-167923899D01*
X241285800Y-168372101D01*
X241364219Y-168766341D01*
X241587539Y-169100562D01*
X241921760Y-169323882D01*
X242316000Y-169402301D01*
X242710240Y-169323882D01*
X243044461Y-169100562D01*
X243267781Y-168766341D01*
X243346200Y-168372101D01*
X243346200Y-173831659D01*
X243140104Y-174140104D01*
X242749197Y-174401300D01*
X239529793Y-174401300D01*
X239529793Y-172293626D01*
X239529793Y-171622374D01*
X239399960Y-171240909D01*
X239134029Y-170938167D01*
X238836509Y-170782256D01*
X238679800Y-170826424D01*
X238679800Y-171784200D01*
X239455855Y-171784200D01*
X239529793Y-171622374D01*
X239529793Y-172293626D01*
X239455855Y-172131800D01*
X238679800Y-172131800D01*
X238679800Y-173089576D01*
X238836509Y-173133744D01*
X239134029Y-172977833D01*
X239399960Y-172675091D01*
X239529793Y-172293626D01*
X239529793Y-174401300D01*
X238332200Y-174401300D01*
X238332200Y-173089576D01*
X238332200Y-172131800D01*
X238332200Y-171784200D01*
X238332200Y-170826424D01*
X238175491Y-170782256D01*
X238004673Y-170871770D01*
X238004673Y-167213430D01*
X238004673Y-166542570D01*
X237875574Y-166161405D01*
X237610436Y-165858658D01*
X237312271Y-165702259D01*
X237155800Y-165746450D01*
X237155800Y-166704200D01*
X237930484Y-166704200D01*
X238004673Y-166542570D01*
X238004673Y-167213430D01*
X237930484Y-167051800D01*
X237155800Y-167051800D01*
X237155800Y-168009550D01*
X237312271Y-168053741D01*
X237610436Y-167897342D01*
X237875574Y-167594595D01*
X238004673Y-167213430D01*
X238004673Y-170871770D01*
X237877971Y-170938167D01*
X237612040Y-171240909D01*
X237482207Y-171622374D01*
X237556145Y-171784200D01*
X238332200Y-171784200D01*
X238332200Y-172131800D01*
X237556145Y-172131800D01*
X237482207Y-172293626D01*
X237612040Y-172675091D01*
X237877971Y-172977833D01*
X238175491Y-173133744D01*
X238332200Y-173089576D01*
X238332200Y-174401300D01*
X237036200Y-174401300D01*
X237036200Y-172182101D01*
X237036200Y-171733899D01*
X236957781Y-171339659D01*
X236808200Y-171115795D01*
X236808200Y-168009550D01*
X236808200Y-167051800D01*
X236808200Y-166704200D01*
X236808200Y-165746450D01*
X236651729Y-165702259D01*
X236353564Y-165858658D01*
X236088426Y-166161405D01*
X235959327Y-166542570D01*
X236033516Y-166704200D01*
X236808200Y-166704200D01*
X236808200Y-167051800D01*
X236033516Y-167051800D01*
X235959327Y-167213430D01*
X236088426Y-167594595D01*
X236353564Y-167897342D01*
X236651729Y-168053741D01*
X236808200Y-168009550D01*
X236808200Y-171115795D01*
X236734461Y-171005438D01*
X236400240Y-170782118D01*
X236006000Y-170703699D01*
X235611760Y-170782118D01*
X235277539Y-171005438D01*
X235054219Y-171339659D01*
X234975800Y-171733899D01*
X234975800Y-172182101D01*
X235054219Y-172576341D01*
X235277539Y-172910562D01*
X235611760Y-173133882D01*
X236006000Y-173212301D01*
X236400240Y-173133882D01*
X236734461Y-172910562D01*
X236957781Y-172576341D01*
X237036200Y-172182101D01*
X237036200Y-174401300D01*
X235250801Y-174401300D01*
X234859895Y-174140104D01*
X234510380Y-173617018D01*
X234380200Y-172962551D01*
X234380200Y-159812730D01*
X234476599Y-159957002D01*
X234810334Y-160179996D01*
X235204000Y-160258301D01*
X235365424Y-160226191D01*
X234867108Y-160724508D01*
X234740470Y-160914036D01*
X234696000Y-161137600D01*
X234696000Y-162890200D01*
X234740470Y-163113764D01*
X234867108Y-163303292D01*
X235953300Y-164389484D01*
X235953300Y-164563601D01*
X236031605Y-164957267D01*
X236254599Y-165291002D01*
X236588334Y-165513996D01*
X236982000Y-165592301D01*
X237375666Y-165513996D01*
X237709401Y-165291002D01*
X237932395Y-164957267D01*
X237939370Y-164922200D01*
X239072629Y-164922200D01*
X239079605Y-164957267D01*
X239302599Y-165291002D01*
X239445800Y-165386685D01*
X239445800Y-166967336D01*
X239421760Y-166972118D01*
X239087539Y-167195438D01*
X238864219Y-167529659D01*
X238785800Y-167923899D01*
X238785800Y-168372101D01*
X238864219Y-168766341D01*
X239087539Y-169100562D01*
X239421760Y-169323882D01*
X239816000Y-169402301D01*
X240210240Y-169323882D01*
X240544461Y-169100562D01*
X240767781Y-168766341D01*
X240846200Y-168372101D01*
X240846200Y-167923899D01*
X240767781Y-167529659D01*
X240614200Y-167299809D01*
X240614200Y-165386685D01*
X240757401Y-165291002D01*
X240980395Y-164957267D01*
X241058700Y-164563601D01*
X241058700Y-164112399D01*
X241058700Y-162023601D01*
X241058700Y-161572399D01*
X240980395Y-161178733D01*
X240757401Y-160844998D01*
X240423666Y-160622004D01*
X240030000Y-160543699D01*
X239636334Y-160622004D01*
X239302599Y-160844998D01*
X239079605Y-161178733D01*
X239001300Y-161572399D01*
X239001300Y-162023601D01*
X239079605Y-162417267D01*
X239302599Y-162751002D01*
X239636334Y-162973996D01*
X240030000Y-163052301D01*
X240423666Y-162973996D01*
X240757401Y-162751002D01*
X240980395Y-162417267D01*
X241058700Y-162023601D01*
X241058700Y-164112399D01*
X240980395Y-163718733D01*
X240757401Y-163384998D01*
X240423666Y-163162004D01*
X240030000Y-163083699D01*
X239636334Y-163162004D01*
X239302599Y-163384998D01*
X239079605Y-163718733D01*
X239072629Y-163753800D01*
X237939370Y-163753800D01*
X237932395Y-163718733D01*
X237709401Y-163384998D01*
X237375666Y-163162004D01*
X236982000Y-163083699D01*
X236588334Y-163162004D01*
X236462360Y-163246176D01*
X235864400Y-162648216D01*
X235864400Y-161379584D01*
X236023250Y-161220733D01*
X235953300Y-161572399D01*
X235953300Y-162023601D01*
X236031605Y-162417267D01*
X236254599Y-162751002D01*
X236588334Y-162973996D01*
X236982000Y-163052301D01*
X237375666Y-162973996D01*
X237709401Y-162751002D01*
X237932395Y-162417267D01*
X238010700Y-162023601D01*
X238010700Y-161572399D01*
X237932395Y-161178733D01*
X237709401Y-160844998D01*
X237375666Y-160622004D01*
X236982000Y-160543699D01*
X236630334Y-160613649D01*
X236887092Y-160356892D01*
X237013730Y-160167364D01*
X237013730Y-160167363D01*
X237051001Y-159979988D01*
X237350334Y-160179996D01*
X237744000Y-160258301D01*
X238137666Y-160179996D01*
X238471401Y-159957002D01*
X238694395Y-159623267D01*
X238772700Y-159229601D01*
X238772700Y-158778399D01*
X238694395Y-158384733D01*
X238471401Y-158050998D01*
X238137666Y-157828004D01*
X237744000Y-157749699D01*
X237350334Y-157828004D01*
X237058200Y-158023201D01*
X237058200Y-157444798D01*
X237350334Y-157639996D01*
X237744000Y-157718301D01*
X238137666Y-157639996D01*
X238195301Y-157601485D01*
X239274697Y-158680880D01*
X239255300Y-158778399D01*
X239255300Y-159229601D01*
X239333605Y-159623267D01*
X239556599Y-159957002D01*
X239890334Y-160179996D01*
X240284000Y-160258301D01*
X240677666Y-160179996D01*
X241011401Y-159957002D01*
X241234395Y-159623267D01*
X241312700Y-159229601D01*
X241312700Y-158778399D01*
X241234395Y-158384733D01*
X241011401Y-158050998D01*
X240677666Y-157828004D01*
X240284000Y-157749699D01*
X240043684Y-157797500D01*
X239877813Y-157631629D01*
X239890334Y-157639996D01*
X240284000Y-157718301D01*
X240677666Y-157639996D01*
X241011401Y-157417002D01*
X241234395Y-157083267D01*
X241312700Y-156689601D01*
X241312700Y-156238399D01*
X241234395Y-155844733D01*
X241011401Y-155510998D01*
X240677666Y-155288004D01*
X240284000Y-155209699D01*
X239890334Y-155288004D01*
X239556599Y-155510998D01*
X239333605Y-155844733D01*
X239255300Y-156238399D01*
X239255300Y-156689601D01*
X239333605Y-157083267D01*
X239341970Y-157095787D01*
X238772700Y-156526516D01*
X238772700Y-156238399D01*
X238694395Y-155844733D01*
X238471401Y-155510998D01*
X238384200Y-155452732D01*
X238384200Y-154690434D01*
X238472461Y-154631460D01*
X238695781Y-154297239D01*
X238774200Y-153902999D01*
X238774200Y-152945001D01*
X238695781Y-152550761D01*
X238472461Y-152216540D01*
X238138240Y-151993220D01*
X237744000Y-151914801D01*
X237349760Y-151993220D01*
X237058200Y-152188034D01*
X237058200Y-151536400D01*
X237013730Y-151312837D01*
X237013730Y-151312836D01*
X236887092Y-151123308D01*
X235788200Y-150024416D01*
X235788200Y-148107852D01*
X235932461Y-148011460D01*
X236155781Y-147677239D01*
X236234200Y-147282999D01*
X236234200Y-146325001D01*
X236155781Y-145930761D01*
X235932461Y-145596540D01*
X235844200Y-145537565D01*
X235844200Y-144538449D01*
X236075581Y-144307472D01*
X236232521Y-143929519D01*
X236232878Y-143520277D01*
X236076598Y-143142050D01*
X235787472Y-142852419D01*
X235409519Y-142695479D01*
X235001306Y-142695122D01*
X234575052Y-142268868D01*
X234385524Y-142142230D01*
X234161960Y-142097760D01*
X230146200Y-142097760D01*
X230146200Y-138981681D01*
X230146200Y-138156350D01*
X230146200Y-137643650D01*
X230146200Y-136818319D01*
X230095930Y-136696957D01*
X230003043Y-136604070D01*
X229881681Y-136553800D01*
X229750319Y-136553800D01*
X229056350Y-136553800D01*
X228992138Y-136618012D01*
X228992138Y-134286000D01*
X228898495Y-133815223D01*
X228631821Y-133416117D01*
X228232715Y-133149443D01*
X227761938Y-133055800D01*
X226898062Y-133055800D01*
X226427285Y-133149443D01*
X226313008Y-133225800D01*
X224680669Y-133225800D01*
X224680669Y-132310000D01*
X224656241Y-132184096D01*
X224583550Y-132073438D01*
X224473813Y-131999364D01*
X224424387Y-131989451D01*
X224424387Y-128596078D01*
X224260283Y-128198915D01*
X223956683Y-127894785D01*
X223559808Y-127729988D01*
X223130078Y-127729613D01*
X222732915Y-127893717D01*
X222428785Y-128197317D01*
X222263988Y-128594192D01*
X222263613Y-129023922D01*
X222427717Y-129421085D01*
X222731317Y-129725215D01*
X223128192Y-129890012D01*
X223557922Y-129890387D01*
X223955085Y-129726283D01*
X224259215Y-129422683D01*
X224424012Y-129025808D01*
X224424387Y-128596078D01*
X224424387Y-131989451D01*
X224344000Y-131973331D01*
X222344000Y-131973331D01*
X222218096Y-131997759D01*
X222107438Y-132070450D01*
X222033364Y-132180187D01*
X222007331Y-132310000D01*
X222007331Y-135310000D01*
X222031759Y-135435904D01*
X222104450Y-135546562D01*
X222214187Y-135620636D01*
X222344000Y-135646669D01*
X224344000Y-135646669D01*
X224469904Y-135622241D01*
X224580562Y-135549550D01*
X224654636Y-135439813D01*
X224680669Y-135310000D01*
X224680669Y-134394200D01*
X225689384Y-134394200D01*
X225761505Y-134756777D01*
X226028179Y-135155883D01*
X226427285Y-135422557D01*
X226898062Y-135516200D01*
X227761938Y-135516200D01*
X228232715Y-135422557D01*
X228631821Y-135155883D01*
X228898495Y-134756777D01*
X228992138Y-134286000D01*
X228992138Y-136618012D01*
X228973800Y-136636350D01*
X228973800Y-137726200D01*
X230063650Y-137726200D01*
X230146200Y-137643650D01*
X230146200Y-138156350D01*
X230063650Y-138073800D01*
X228973800Y-138073800D01*
X228973800Y-139163650D01*
X229056350Y-139246200D01*
X229750319Y-139246200D01*
X229881681Y-139246200D01*
X230003043Y-139195930D01*
X230095930Y-139103043D01*
X230146200Y-138981681D01*
X230146200Y-142097760D01*
X229984396Y-142097760D01*
X229984396Y-140492176D01*
X229812696Y-140076629D01*
X229495043Y-139758422D01*
X229079797Y-139585997D01*
X228630176Y-139585604D01*
X228214629Y-139757304D01*
X227896422Y-140074957D01*
X227723997Y-140490203D01*
X227723604Y-140939824D01*
X227895304Y-141355371D01*
X228212957Y-141673578D01*
X228628203Y-141846003D01*
X229077824Y-141846396D01*
X229493371Y-141674696D01*
X229811578Y-141357043D01*
X229984003Y-140941797D01*
X229984396Y-140492176D01*
X229984396Y-142097760D01*
X227444396Y-142097760D01*
X227444396Y-140492176D01*
X227272696Y-140076629D01*
X226955043Y-139758422D01*
X226539797Y-139585997D01*
X226090176Y-139585604D01*
X225674629Y-139757304D01*
X225356422Y-140074957D01*
X225183997Y-140490203D01*
X225183604Y-140939824D01*
X225355304Y-141355371D01*
X225672957Y-141673578D01*
X226088203Y-141846003D01*
X226537824Y-141846396D01*
X226953371Y-141674696D01*
X227271578Y-141357043D01*
X227444003Y-140941797D01*
X227444396Y-140492176D01*
X227444396Y-142097760D01*
X222030669Y-142097760D01*
X222030669Y-140460000D01*
X222006241Y-140334096D01*
X221933550Y-140223438D01*
X221823813Y-140149364D01*
X221694000Y-140123331D01*
X219994000Y-140123331D01*
X219868096Y-140147759D01*
X219757438Y-140220450D01*
X219683364Y-140330187D01*
X219657331Y-140460000D01*
X219657331Y-142097760D01*
X219530669Y-142097760D01*
X219530669Y-140460000D01*
X219506241Y-140334096D01*
X219433550Y-140223438D01*
X219323813Y-140149364D01*
X219194000Y-140123331D01*
X218928200Y-140123331D01*
X218928200Y-139996669D01*
X219194000Y-139996669D01*
X219319904Y-139972241D01*
X219430562Y-139899550D01*
X219504636Y-139789813D01*
X219530669Y-139660000D01*
X219530669Y-137998200D01*
X219657331Y-137998200D01*
X219657331Y-139660000D01*
X219681759Y-139785904D01*
X219754450Y-139896562D01*
X219864187Y-139970636D01*
X219994000Y-139996669D01*
X221694000Y-139996669D01*
X221819904Y-139972241D01*
X221930562Y-139899550D01*
X222004636Y-139789813D01*
X222030669Y-139660000D01*
X222030669Y-137998200D01*
X222628249Y-137998200D01*
X222428785Y-138197317D01*
X222263988Y-138594192D01*
X222263613Y-139023922D01*
X222427717Y-139421085D01*
X222731317Y-139725215D01*
X223128192Y-139890012D01*
X223557922Y-139890387D01*
X223955085Y-139726283D01*
X224259215Y-139422683D01*
X224424012Y-139025808D01*
X224424387Y-138596078D01*
X224260283Y-138198915D01*
X224059917Y-137998200D01*
X224536000Y-137998200D01*
X224928087Y-137998200D01*
X225016273Y-138441542D01*
X225308093Y-138878281D01*
X225744832Y-139170101D01*
X226260000Y-139272574D01*
X226775168Y-139170101D01*
X227211907Y-138878281D01*
X227453800Y-138516262D01*
X227453800Y-138981681D01*
X227504070Y-139103043D01*
X227596957Y-139195930D01*
X227718319Y-139246200D01*
X227849681Y-139246200D01*
X228543650Y-139246200D01*
X228626200Y-139163650D01*
X228626200Y-138073800D01*
X228606200Y-138073800D01*
X228606200Y-137726200D01*
X228626200Y-137726200D01*
X228626200Y-136636350D01*
X228543650Y-136553800D01*
X227849681Y-136553800D01*
X227718319Y-136553800D01*
X227596957Y-136604070D01*
X227504070Y-136696957D01*
X227453800Y-136818319D01*
X227453800Y-137283737D01*
X227211907Y-136921719D01*
X226775168Y-136629899D01*
X226260000Y-136527426D01*
X225744832Y-136629899D01*
X225445659Y-136829800D01*
X224536000Y-136829800D01*
X220180669Y-136829800D01*
X220180669Y-129810000D01*
X220180669Y-127810000D01*
X220156241Y-127684096D01*
X220083550Y-127573438D01*
X219973813Y-127499364D01*
X219844000Y-127473331D01*
X216844000Y-127473331D01*
X216718096Y-127497759D01*
X216607438Y-127570450D01*
X216533364Y-127680187D01*
X216507331Y-127810000D01*
X216507331Y-129810000D01*
X216531759Y-129935904D01*
X216604450Y-130046562D01*
X216714187Y-130120636D01*
X216844000Y-130146669D01*
X219844000Y-130146669D01*
X219969904Y-130122241D01*
X220080562Y-130049550D01*
X220154636Y-129939813D01*
X220180669Y-129810000D01*
X220180669Y-136829800D01*
X219424387Y-136829800D01*
X219424387Y-133596078D01*
X219260283Y-133198915D01*
X218956683Y-132894785D01*
X218559808Y-132729988D01*
X218130078Y-132729613D01*
X217732915Y-132893717D01*
X217428785Y-133197317D01*
X217263988Y-133594192D01*
X217263613Y-134023922D01*
X217427717Y-134421085D01*
X217731317Y-134725215D01*
X218128192Y-134890012D01*
X218557922Y-134890387D01*
X218955085Y-134726283D01*
X219259215Y-134422683D01*
X219424012Y-134025808D01*
X219424387Y-133596078D01*
X219424387Y-136829800D01*
X218948000Y-136829800D01*
X218724436Y-136874270D01*
X218534908Y-137000908D01*
X217930908Y-137604908D01*
X217918598Y-137623331D01*
X217494000Y-137623331D01*
X217368096Y-137647759D01*
X217257438Y-137720450D01*
X217183364Y-137830187D01*
X217157331Y-137960000D01*
X217157331Y-139660000D01*
X217181759Y-139785904D01*
X217254450Y-139896562D01*
X217364187Y-139970636D01*
X217494000Y-139996669D01*
X217759800Y-139996669D01*
X217759800Y-140123331D01*
X217494000Y-140123331D01*
X217368096Y-140147759D01*
X217257438Y-140220450D01*
X217183364Y-140330187D01*
X217157331Y-140460000D01*
X217157331Y-142097760D01*
X217142744Y-142097760D01*
X217030669Y-141985685D01*
X217030669Y-140460000D01*
X217006241Y-140334096D01*
X216933550Y-140223438D01*
X216823813Y-140149364D01*
X216694000Y-140123331D01*
X216428200Y-140123331D01*
X216428200Y-139996669D01*
X216694000Y-139996669D01*
X216819904Y-139972241D01*
X216930562Y-139899550D01*
X217004636Y-139789813D01*
X217030669Y-139660000D01*
X217030669Y-137960000D01*
X217006241Y-137834096D01*
X216933550Y-137723438D01*
X216823813Y-137649364D01*
X216694000Y-137623331D01*
X214994000Y-137623331D01*
X214868096Y-137647759D01*
X214757438Y-137720450D01*
X214683364Y-137830187D01*
X214680669Y-137843625D01*
X214680669Y-135310000D01*
X214680669Y-132310000D01*
X214656241Y-132184096D01*
X214583550Y-132073438D01*
X214473813Y-131999364D01*
X214424387Y-131989451D01*
X214424387Y-128796078D01*
X214260283Y-128398915D01*
X213956683Y-128094785D01*
X213559808Y-127929988D01*
X213130078Y-127929613D01*
X212732915Y-128093717D01*
X212428785Y-128397317D01*
X212263988Y-128794192D01*
X212263613Y-129223922D01*
X212427717Y-129621085D01*
X212731317Y-129925215D01*
X213128192Y-130090012D01*
X213557922Y-130090387D01*
X213955085Y-129926283D01*
X214259215Y-129622683D01*
X214424012Y-129225808D01*
X214424387Y-128796078D01*
X214424387Y-131989451D01*
X214344000Y-131973331D01*
X212344000Y-131973331D01*
X212218096Y-131997759D01*
X212107438Y-132070450D01*
X212033364Y-132180187D01*
X212007331Y-132310000D01*
X212007331Y-135310000D01*
X212031759Y-135435904D01*
X212104450Y-135546562D01*
X212214187Y-135620636D01*
X212344000Y-135646669D01*
X214344000Y-135646669D01*
X214469904Y-135622241D01*
X214580562Y-135549550D01*
X214654636Y-135439813D01*
X214680669Y-135310000D01*
X214680669Y-137843625D01*
X214657331Y-137960000D01*
X214657331Y-139660000D01*
X214681759Y-139785904D01*
X214754450Y-139896562D01*
X214864187Y-139970636D01*
X214994000Y-139996669D01*
X215259800Y-139996669D01*
X215259800Y-140123331D01*
X214994000Y-140123331D01*
X214868096Y-140147759D01*
X214757438Y-140220450D01*
X214683364Y-140330187D01*
X214657331Y-140460000D01*
X214657331Y-142160000D01*
X214681759Y-142285904D01*
X214754450Y-142396562D01*
X214864187Y-142470636D01*
X214994000Y-142496669D01*
X215889285Y-142496669D01*
X216234416Y-142841800D01*
X214424387Y-142841800D01*
X214424387Y-138596078D01*
X214260283Y-138198915D01*
X213956683Y-137894785D01*
X213559808Y-137729988D01*
X213130078Y-137729613D01*
X212732915Y-137893717D01*
X212428785Y-138197317D01*
X212263988Y-138594192D01*
X212263613Y-139023922D01*
X212427717Y-139421085D01*
X212731317Y-139725215D01*
X213128192Y-139890012D01*
X213557922Y-139890387D01*
X213955085Y-139726283D01*
X214259215Y-139422683D01*
X214424012Y-139025808D01*
X214424387Y-138596078D01*
X214424387Y-142841800D01*
X212396682Y-142841800D01*
X211117612Y-142587377D01*
X209945682Y-141804317D01*
X209162622Y-140632387D01*
X208880200Y-139212551D01*
X208880200Y-135064751D01*
X209155285Y-135248557D01*
X209626062Y-135342200D01*
X210489938Y-135342200D01*
X210960715Y-135248557D01*
X211359821Y-134981883D01*
X211626495Y-134582777D01*
X211720138Y-134112000D01*
X211626495Y-133641223D01*
X211359821Y-133242117D01*
X210960715Y-132975443D01*
X210489938Y-132881800D01*
X209626062Y-132881800D01*
X209155285Y-132975443D01*
X208880200Y-133159248D01*
X208880200Y-130064751D01*
X209155285Y-130248557D01*
X209626062Y-130342200D01*
X210489938Y-130342200D01*
X210960715Y-130248557D01*
X211359821Y-129981883D01*
X211626495Y-129582777D01*
X211720138Y-129112000D01*
X211626495Y-128641223D01*
X211359821Y-128242117D01*
X210960715Y-127975443D01*
X210489938Y-127881800D01*
X209626062Y-127881800D01*
X209198663Y-127966814D01*
X209506340Y-127506343D01*
X210191637Y-127048441D01*
X211037448Y-126880200D01*
X241962551Y-126880200D01*
X242617018Y-127010380D01*
X243140104Y-127359895D01*
X243489617Y-127882978D01*
X243619800Y-128537448D01*
X243619800Y-137324217D01*
X243552461Y-137223438D01*
X243218240Y-137000118D01*
X242824000Y-136921699D01*
X242610669Y-136964133D01*
X242610669Y-135298000D01*
X242610669Y-132298000D01*
X242586241Y-132172096D01*
X242513550Y-132061438D01*
X242403813Y-131987364D01*
X242274000Y-131961331D01*
X242204387Y-131961331D01*
X242204387Y-128584078D01*
X242040283Y-128186915D01*
X241736683Y-127882785D01*
X241339808Y-127717988D01*
X240910078Y-127717613D01*
X240512915Y-127881717D01*
X240208785Y-128185317D01*
X240043988Y-128582192D01*
X240043613Y-129011922D01*
X240207717Y-129409085D01*
X240511317Y-129713215D01*
X240908192Y-129878012D01*
X241337922Y-129878387D01*
X241735085Y-129714283D01*
X242039215Y-129410683D01*
X242204012Y-129013808D01*
X242204387Y-128584078D01*
X242204387Y-131961331D01*
X240274000Y-131961331D01*
X240148096Y-131985759D01*
X240037438Y-132058450D01*
X239963364Y-132168187D01*
X239937331Y-132298000D01*
X239937331Y-135298000D01*
X239961759Y-135423904D01*
X240034450Y-135534562D01*
X240144187Y-135608636D01*
X240274000Y-135634669D01*
X242274000Y-135634669D01*
X242399904Y-135610241D01*
X242510562Y-135537550D01*
X242584636Y-135427813D01*
X242610669Y-135298000D01*
X242610669Y-136964133D01*
X242429760Y-137000118D01*
X242095539Y-137223438D01*
X241872219Y-137557659D01*
X241793800Y-137951899D01*
X241793800Y-138400101D01*
X241872219Y-138794341D01*
X242095539Y-139128562D01*
X242429760Y-139351882D01*
X242824000Y-139430301D01*
X243218240Y-139351882D01*
X243552461Y-139128562D01*
X243619800Y-139027782D01*
X243619800Y-140373364D01*
X243551401Y-140270998D01*
X243217666Y-140048004D01*
X242824000Y-139969699D01*
X242430334Y-140048004D01*
X242096599Y-140270998D01*
X241873605Y-140604733D01*
X241795300Y-140998399D01*
X241795300Y-141398516D01*
X241314200Y-141879615D01*
X241314200Y-138400101D01*
X241314200Y-137951899D01*
X241235781Y-137557659D01*
X241012461Y-137223438D01*
X240678240Y-137000118D01*
X240284000Y-136921699D01*
X239889760Y-137000118D01*
X239555539Y-137223438D01*
X239332219Y-137557659D01*
X239253800Y-137951899D01*
X239253800Y-138400101D01*
X239332219Y-138794341D01*
X239555539Y-139128562D01*
X239889760Y-139351882D01*
X240284000Y-139430301D01*
X240678240Y-139351882D01*
X241012461Y-139128562D01*
X241235781Y-138794341D01*
X241314200Y-138400101D01*
X241314200Y-141879615D01*
X240617733Y-142576082D01*
X240284000Y-142509699D01*
X239890334Y-142588004D01*
X239623600Y-142766229D01*
X239623600Y-142221770D01*
X239890334Y-142399996D01*
X240284000Y-142478301D01*
X240677666Y-142399996D01*
X241011401Y-142177002D01*
X241234395Y-141843267D01*
X241312700Y-141449601D01*
X241312700Y-140998399D01*
X241234395Y-140604733D01*
X241011401Y-140270998D01*
X240677666Y-140048004D01*
X240284000Y-139969699D01*
X239890334Y-140048004D01*
X239623600Y-140226229D01*
X239623600Y-139471400D01*
X239579130Y-139247837D01*
X239579130Y-139247836D01*
X239452492Y-139058308D01*
X238774200Y-138380016D01*
X238774200Y-137951899D01*
X238695781Y-137557659D01*
X238472461Y-137223438D01*
X238138240Y-137000118D01*
X237960669Y-136964797D01*
X237960669Y-129798000D01*
X237960669Y-127798000D01*
X237936241Y-127672096D01*
X237863550Y-127561438D01*
X237753813Y-127487364D01*
X237624000Y-127461331D01*
X234624000Y-127461331D01*
X234498096Y-127485759D01*
X234387438Y-127558450D01*
X234313364Y-127668187D01*
X234287331Y-127798000D01*
X234287331Y-129798000D01*
X234311759Y-129923904D01*
X234384450Y-130034562D01*
X234494187Y-130108636D01*
X234624000Y-130134669D01*
X237624000Y-130134669D01*
X237749904Y-130110241D01*
X237860562Y-130037550D01*
X237934636Y-129927813D01*
X237960669Y-129798000D01*
X237960669Y-136964797D01*
X237744000Y-136921699D01*
X237349760Y-137000118D01*
X237204387Y-137097253D01*
X237204387Y-133584078D01*
X237040283Y-133186915D01*
X236736683Y-132882785D01*
X236339808Y-132717988D01*
X235910078Y-132717613D01*
X235512915Y-132881717D01*
X235208785Y-133185317D01*
X235043988Y-133582192D01*
X235043613Y-134011922D01*
X235207717Y-134409085D01*
X235511317Y-134713215D01*
X235908192Y-134878012D01*
X236337922Y-134878387D01*
X236735085Y-134714283D01*
X237039215Y-134410683D01*
X237204012Y-134013808D01*
X237204387Y-133584078D01*
X237204387Y-137097253D01*
X237058200Y-137194932D01*
X237058200Y-137160000D01*
X237013730Y-136936437D01*
X237013730Y-136936436D01*
X236887092Y-136746908D01*
X234010200Y-133870016D01*
X234010200Y-132588000D01*
X233965730Y-132364437D01*
X233965730Y-132364436D01*
X233839092Y-132174908D01*
X233839088Y-132174905D01*
X232315092Y-130650908D01*
X232204387Y-130576937D01*
X232204387Y-128584078D01*
X232040283Y-128186915D01*
X231736683Y-127882785D01*
X231339808Y-127717988D01*
X230910078Y-127717613D01*
X230512915Y-127881717D01*
X230208785Y-128185317D01*
X230043988Y-128582192D01*
X230043613Y-129011922D01*
X230207717Y-129409085D01*
X230511317Y-129713215D01*
X230908192Y-129878012D01*
X231337922Y-129878387D01*
X231735085Y-129714283D01*
X232039215Y-129410683D01*
X232204012Y-129013808D01*
X232204387Y-128584078D01*
X232204387Y-130576937D01*
X232125564Y-130524270D01*
X231902000Y-130479800D01*
X229870000Y-130479800D01*
X229349984Y-130479800D01*
X228789733Y-129919549D01*
X228898495Y-129756777D01*
X228992138Y-129286000D01*
X228898495Y-128815223D01*
X228631821Y-128416117D01*
X228232715Y-128149443D01*
X227761938Y-128055800D01*
X226898062Y-128055800D01*
X226427285Y-128149443D01*
X226028179Y-128416117D01*
X225761505Y-128815223D01*
X225667862Y-129286000D01*
X225761505Y-129756777D01*
X226028179Y-130155883D01*
X226427285Y-130422557D01*
X226898062Y-130516200D01*
X227734016Y-130516200D01*
X228694908Y-131477092D01*
X228884436Y-131603730D01*
X228884437Y-131603731D01*
X229108000Y-131648201D01*
X229108000Y-131648200D01*
X229108005Y-131648200D01*
X229870000Y-131648200D01*
X231660016Y-131648200D01*
X231973147Y-131961331D01*
X229974000Y-131961331D01*
X229848096Y-131985759D01*
X229737438Y-132058450D01*
X229663364Y-132168187D01*
X229637331Y-132298000D01*
X229637331Y-135298000D01*
X229661759Y-135423904D01*
X229734450Y-135534562D01*
X229844187Y-135608636D01*
X229974000Y-135634669D01*
X231974000Y-135634669D01*
X232099904Y-135610241D01*
X232210562Y-135537550D01*
X232284636Y-135427813D01*
X232310669Y-135298000D01*
X232310669Y-132298852D01*
X232841800Y-132829983D01*
X232841800Y-134112000D01*
X232886270Y-134335564D01*
X233012908Y-134525092D01*
X235460544Y-136972728D01*
X235204000Y-136921699D01*
X234809760Y-137000118D01*
X234475539Y-137223438D01*
X234252219Y-137557659D01*
X234173800Y-137951899D01*
X234173800Y-138400101D01*
X234252219Y-138794341D01*
X234475539Y-139128562D01*
X234809760Y-139351882D01*
X235204000Y-139430301D01*
X235598240Y-139351882D01*
X235889800Y-139157067D01*
X235889800Y-140454925D01*
X235787472Y-140352419D01*
X235409519Y-140195479D01*
X235000277Y-140195122D01*
X234622050Y-140351402D01*
X234332419Y-140640528D01*
X234175479Y-141018481D01*
X234175122Y-141427723D01*
X234331402Y-141805950D01*
X234620528Y-142095581D01*
X234998481Y-142252521D01*
X235407723Y-142252878D01*
X235785950Y-142096598D01*
X235889800Y-141992929D01*
X235889800Y-142240000D01*
X235934270Y-142463564D01*
X236060908Y-142653092D01*
X236753611Y-143345795D01*
X236715300Y-143538399D01*
X236715300Y-143989601D01*
X236793605Y-144383267D01*
X237016599Y-144717002D01*
X237215800Y-144850103D01*
X237215800Y-145462729D01*
X237015539Y-145596540D01*
X236792219Y-145930761D01*
X236713800Y-146325001D01*
X236713800Y-147282999D01*
X236792219Y-147677239D01*
X237015539Y-148011460D01*
X237349760Y-148234780D01*
X237744000Y-148313199D01*
X238138240Y-148234780D01*
X238455200Y-148022993D01*
X238455200Y-150164800D01*
X238499670Y-150388364D01*
X238626308Y-150577892D01*
X239699800Y-151651384D01*
X239699800Y-152120147D01*
X239555539Y-152216540D01*
X239332219Y-152550761D01*
X239253800Y-152945001D01*
X239253800Y-153902999D01*
X239332219Y-154297239D01*
X239555539Y-154631460D01*
X239889760Y-154854780D01*
X240284000Y-154933199D01*
X240678240Y-154854780D01*
X241012461Y-154631460D01*
X241235781Y-154297239D01*
X241314200Y-153902999D01*
X241314200Y-152945001D01*
X241235781Y-152550761D01*
X241012461Y-152216540D01*
X240868200Y-152120147D01*
X240868200Y-151409400D01*
X240823730Y-151185837D01*
X240823730Y-151185836D01*
X240697092Y-150996308D01*
X239623600Y-149922816D01*
X239623600Y-148056937D01*
X239889760Y-148234780D01*
X240284000Y-148313199D01*
X240678240Y-148234780D01*
X241012461Y-148011460D01*
X241235781Y-147677239D01*
X241314200Y-147282999D01*
X241314200Y-146325001D01*
X241235781Y-145930761D01*
X241012461Y-145596540D01*
X240924200Y-145537565D01*
X240924200Y-144775267D01*
X241011401Y-144717002D01*
X241234395Y-144383267D01*
X241312700Y-143989601D01*
X241312700Y-143538399D01*
X241311884Y-143534299D01*
X242443557Y-142402626D01*
X242824000Y-142478301D01*
X243217666Y-142399996D01*
X243551401Y-142177002D01*
X243619800Y-142074635D01*
X243619800Y-142913364D01*
X243551401Y-142810998D01*
X243217666Y-142588004D01*
X242824000Y-142509699D01*
X242430334Y-142588004D01*
X242096599Y-142810998D01*
X241873605Y-143144733D01*
X241795300Y-143538399D01*
X241795300Y-143989601D01*
X241873605Y-144383267D01*
X242096599Y-144717002D01*
X242430334Y-144939996D01*
X242824000Y-145018301D01*
X243217666Y-144939996D01*
X243551401Y-144717002D01*
X243619800Y-144614635D01*
X243619800Y-145697319D01*
X243552461Y-145596540D01*
X243218240Y-145373220D01*
X242824000Y-145294801D01*
X242429760Y-145373220D01*
X242095539Y-145596540D01*
X241872219Y-145930761D01*
X241793800Y-146325001D01*
X241793800Y-147282999D01*
X241872219Y-147677239D01*
X242095539Y-148011460D01*
X242429760Y-148234780D01*
X242824000Y-148313199D01*
X243218240Y-148234780D01*
X243552461Y-148011460D01*
X243619800Y-147910680D01*
X243619800Y-152324331D01*
X243429566Y-152122643D01*
X243154509Y-151998256D01*
X242997800Y-152042424D01*
X242997800Y-153250200D01*
X243017800Y-153250200D01*
X243017800Y-153597800D01*
X242997800Y-153597800D01*
X242997800Y-154805576D01*
X243154509Y-154849744D01*
X243429566Y-154725357D01*
X243619800Y-154523668D01*
X243619800Y-155635762D01*
X243452436Y-155444658D01*
X243154271Y-155288259D01*
X242997800Y-155332450D01*
X242997800Y-156290200D01*
X243017800Y-156290200D01*
X243017800Y-156637800D01*
X242997800Y-156637800D01*
X242997800Y-157595550D01*
X243154271Y-157639741D01*
X243452436Y-157483342D01*
X243619800Y-157292237D01*
X243619800Y-158113364D01*
X243551401Y-158010998D01*
X243217666Y-157788004D01*
X242824000Y-157709699D01*
X242650200Y-157744269D01*
X242650200Y-157595550D01*
X242650200Y-156637800D01*
X242650200Y-156290200D01*
X242650200Y-155332450D01*
X242650200Y-154805576D01*
X242650200Y-153597800D01*
X242650200Y-153250200D01*
X242650200Y-152042424D01*
X242493491Y-151998256D01*
X242218434Y-152122643D01*
X241938730Y-152419189D01*
X241793800Y-152800200D01*
X241793800Y-153250200D01*
X242650200Y-153250200D01*
X242650200Y-153597800D01*
X241793800Y-153597800D01*
X241793800Y-154047800D01*
X241938730Y-154428811D01*
X242218434Y-154725357D01*
X242493491Y-154849744D01*
X242650200Y-154805576D01*
X242650200Y-155332450D01*
X242493729Y-155288259D01*
X242195564Y-155444658D01*
X241930426Y-155747405D01*
X241801327Y-156128570D01*
X241875516Y-156290200D01*
X242650200Y-156290200D01*
X242650200Y-156637800D01*
X241875516Y-156637800D01*
X241801327Y-156799430D01*
X241930426Y-157180595D01*
X242195564Y-157483342D01*
X242493729Y-157639741D01*
X242650200Y-157595550D01*
X242650200Y-157744269D01*
X242430334Y-157788004D01*
X242096599Y-158010998D01*
X241873605Y-158344733D01*
X241795300Y-158738399D01*
X241795300Y-159189601D01*
X241873605Y-159583267D01*
X242096599Y-159917002D01*
X242430334Y-160139996D01*
X242824000Y-160218301D01*
X243217666Y-160139996D01*
X243551401Y-159917002D01*
X243619800Y-159814635D01*
X243619800Y-172962551D01*
M02*
