G04 (created by PCBNEW (2013-jul-07)-stable) date mar 17 mar 2015 12:17:25 CET*
%MOIN*%
G04 Gerber Fmt 3.4, Leading zero omitted, Abs format*
%FSLAX34Y34*%
G01*
G70*
G90*
G04 APERTURE LIST*
%ADD10C,0.00629921*%
%ADD11C,0.00393701*%
%ADD12C,0.055*%
%ADD13C,0.066*%
%ADD14R,0.06X0.06*%
%ADD15C,0.06*%
%ADD16R,0.055X0.055*%
%ADD17R,0.0787X0.0787*%
%ADD18C,0.0787*%
%ADD19R,0.0669291X0.0669291*%
%ADD20R,0.0787402X0.11811*%
%ADD21R,0.11811X0.0787402*%
%ADD22C,0.0590551*%
%ADD23R,0.0590551X0.0590551*%
%ADD24C,0.035*%
%ADD25C,0.02*%
%ADD26C,0.006*%
G04 APERTURE END LIST*
G54D10*
G54D11*
X1502Y-12087D02*
X1502Y6778D01*
X-2238Y-12287D02*
X1302Y-12287D01*
X-2443Y108D02*
X-2638Y108D01*
X-2443Y-357D02*
X-2443Y108D01*
X-2443Y-12087D02*
X-2443Y-357D01*
X-12701Y6786D02*
X-12701Y306D01*
X-12501Y6986D02*
X1298Y6986D01*
X-12501Y6986D02*
G75*
G03X-12701Y6786I0J-200D01*
G74*
G01*
X-12441Y106D02*
X-12501Y106D01*
X-12701Y306D02*
G75*
G03X-12501Y106I200J0D01*
G74*
G01*
X-12441Y106D02*
X-11961Y106D01*
X-2641Y106D02*
X-12441Y106D01*
X-2441Y-12088D02*
G75*
G03X-2241Y-12288I200J0D01*
G74*
G01*
X1303Y-12288D02*
G75*
G03X1503Y-12088I0J200D01*
G74*
G01*
X1498Y6786D02*
G75*
G03X1298Y6986I-200J0D01*
G74*
G01*
X-2422Y-20180D02*
X-2461Y-20180D01*
G54D12*
X999Y-4998D03*
X999Y-5998D03*
X-2000Y1001D03*
X-2000Y1D03*
X-5000Y2501D03*
X-5000Y4501D03*
X-12000Y2501D03*
X-12000Y4501D03*
G54D13*
X-5717Y6119D03*
X-4717Y6119D03*
G54D14*
X-4663Y908D03*
G54D15*
X-5663Y908D03*
G54D16*
X-23Y-8132D03*
G54D12*
X977Y-8132D03*
X977Y-7132D03*
X0Y-9500D03*
X1000Y-9500D03*
X0Y1001D03*
X0Y1D03*
X-1000Y1001D03*
X-1000Y1D03*
X999Y1001D03*
X999Y1D03*
X-3500Y2001D03*
X-3500Y1001D03*
G54D16*
X999Y-998D03*
G54D12*
X0Y-998D03*
X-1000Y-998D03*
X-2000Y-998D03*
X-2000Y-3998D03*
X-1000Y-3998D03*
X0Y-3998D03*
X999Y-3998D03*
X-1000Y-5998D03*
X-1000Y-4998D03*
X-2000Y-5998D03*
X-2000Y-4998D03*
X0Y-5998D03*
X0Y-4998D03*
G54D17*
X0Y-11000D03*
G54D18*
X1000Y-11000D03*
G54D17*
X-2000Y-11000D03*
G54D18*
X-1000Y-11000D03*
G54D12*
X-1000Y-9500D03*
X-2000Y-9500D03*
G54D16*
X-1983Y-8132D03*
G54D12*
X-983Y-8132D03*
X-983Y-7132D03*
G54D19*
X-9642Y957D03*
X-9642Y1942D03*
X-8658Y957D03*
X-8658Y1942D03*
X-7674Y1942D03*
X-7674Y957D03*
G54D20*
X-10626Y3910D03*
X-6689Y3910D03*
G54D21*
X-8658Y5879D03*
G54D22*
X-8658Y3910D03*
X-6689Y5879D03*
X-10626Y5800D03*
X-10626Y1942D03*
X-6689Y1942D03*
G54D20*
X-3658Y3910D03*
X396Y3910D03*
G54D21*
X-1630Y5879D03*
G54D23*
X337Y5879D03*
X-3599Y5879D03*
G54D22*
X-1630Y3910D03*
G54D12*
X997Y2168D03*
X-3Y2168D03*
X-2003Y2168D03*
X-1003Y2168D03*
G54D24*
X-4383Y4508D03*
G54D25*
X-9642Y1942D02*
X-9642Y957D01*
X-9642Y957D02*
X-9085Y401D01*
X-9085Y401D02*
X-4100Y401D01*
X-4100Y401D02*
X-3500Y1001D01*
X997Y2168D02*
X997Y3310D01*
X997Y3310D02*
X396Y3910D01*
X999Y1D02*
X497Y503D01*
X497Y1668D02*
X-3Y2168D01*
X497Y503D02*
X497Y1668D01*
X999Y1D02*
X999Y-998D01*
X-2003Y2168D02*
X-3658Y3823D01*
X-3658Y3823D02*
X-3658Y3910D01*
X0Y-3998D02*
X0Y-4998D01*
X-2000Y-3998D02*
X-1503Y-3500D01*
X-6036Y2501D02*
X-12000Y2501D01*
X-5043Y1508D02*
X-6036Y2501D01*
X-3223Y1508D02*
X-5043Y1508D01*
X-2203Y488D02*
X-3223Y1508D01*
X-1783Y488D02*
X-2203Y488D01*
X-1503Y208D02*
X-1783Y488D01*
X-1503Y-3500D02*
X-1503Y208D01*
X-2000Y-3998D02*
X-2000Y-4998D01*
X-3500Y2001D02*
X-4383Y2883D01*
X-4383Y2883D02*
X-4383Y4508D01*
G54D10*
G36*
X1269Y-7528D02*
X1065Y-7528D01*
X1108Y-7523D01*
X1161Y-7501D01*
X1193Y-7445D01*
X977Y-7228D01*
X880Y-7325D01*
X880Y-7132D01*
X663Y-6915D01*
X607Y-6947D01*
X565Y-7103D01*
X585Y-7263D01*
X607Y-7316D01*
X663Y-7348D01*
X880Y-7132D01*
X880Y-7325D01*
X760Y-7445D01*
X792Y-7501D01*
X893Y-7528D01*
X404Y-7528D01*
X404Y-5918D01*
X404Y-4918D01*
X342Y-4769D01*
X229Y-4656D01*
X229Y-4341D01*
X342Y-4228D01*
X403Y-4079D01*
X404Y-3918D01*
X404Y-918D01*
X404Y81D01*
X342Y230D01*
X228Y344D01*
X215Y349D01*
X79Y406D01*
X-81Y406D01*
X-230Y344D01*
X-344Y230D01*
X-405Y81D01*
X-406Y-79D01*
X-344Y-228D01*
X-230Y-342D01*
X-81Y-403D01*
X79Y-403D01*
X228Y-342D01*
X342Y-228D01*
X403Y-79D01*
X404Y81D01*
X404Y-918D01*
X342Y-769D01*
X228Y-655D01*
X79Y-593D01*
X-81Y-593D01*
X-230Y-655D01*
X-344Y-769D01*
X-405Y-918D01*
X-406Y-1079D01*
X-344Y-1228D01*
X-230Y-1342D01*
X-81Y-1403D01*
X79Y-1403D01*
X228Y-1342D01*
X342Y-1228D01*
X403Y-1079D01*
X404Y-918D01*
X404Y-3918D01*
X342Y-3769D01*
X228Y-3655D01*
X79Y-3593D01*
X-81Y-3593D01*
X-230Y-3655D01*
X-344Y-3769D01*
X-405Y-3918D01*
X-406Y-4079D01*
X-344Y-4228D01*
X-230Y-4341D01*
X-230Y-4656D01*
X-344Y-4769D01*
X-405Y-4918D01*
X-406Y-5079D01*
X-344Y-5228D01*
X-230Y-5342D01*
X-81Y-5403D01*
X79Y-5403D01*
X228Y-5342D01*
X342Y-5228D01*
X403Y-5079D01*
X404Y-4918D01*
X404Y-5918D01*
X342Y-5769D01*
X228Y-5655D01*
X79Y-5593D01*
X-81Y-5593D01*
X-230Y-5655D01*
X-344Y-5769D01*
X-405Y-5918D01*
X-406Y-6079D01*
X-344Y-6228D01*
X-230Y-6342D01*
X-81Y-6403D01*
X79Y-6403D01*
X228Y-6342D01*
X342Y-6228D01*
X403Y-6079D01*
X404Y-5918D01*
X404Y-7528D01*
X-571Y-7528D01*
X-571Y-7160D01*
X-589Y-7020D01*
X-589Y-6027D01*
X-589Y972D01*
X-597Y1042D01*
X-597Y2248D01*
X-659Y2397D01*
X-773Y2511D01*
X-910Y2568D01*
X-910Y5459D01*
X-910Y6298D01*
X-930Y6346D01*
X-966Y6382D01*
X-1014Y6402D01*
X-1066Y6402D01*
X-1529Y6402D01*
X-1562Y6370D01*
X-1562Y5947D01*
X-942Y5947D01*
X-910Y5979D01*
X-910Y6298D01*
X-910Y5459D01*
X-910Y5778D01*
X-942Y5810D01*
X-1562Y5810D01*
X-1562Y5387D01*
X-1529Y5355D01*
X-1066Y5355D01*
X-1014Y5355D01*
X-966Y5375D01*
X-930Y5411D01*
X-910Y5459D01*
X-910Y2568D01*
X-922Y2572D01*
X-1083Y2573D01*
X-1205Y2522D01*
X-1205Y3994D01*
X-1270Y4151D01*
X-1389Y4270D01*
X-1545Y4335D01*
X-1699Y4335D01*
X-1699Y5387D01*
X-1699Y5810D01*
X-1699Y5947D01*
X-1699Y6370D01*
X-1731Y6402D01*
X-2195Y6402D01*
X-2247Y6402D01*
X-2295Y6382D01*
X-2331Y6346D01*
X-2351Y6298D01*
X-2351Y5979D01*
X-2318Y5947D01*
X-1699Y5947D01*
X-1699Y5810D01*
X-2318Y5810D01*
X-2351Y5778D01*
X-2351Y5459D01*
X-2331Y5411D01*
X-2295Y5375D01*
X-2247Y5355D01*
X-2195Y5355D01*
X-1731Y5355D01*
X-1699Y5387D01*
X-1699Y4335D01*
X-1715Y4335D01*
X-1871Y4271D01*
X-1991Y4151D01*
X-2056Y3995D01*
X-2056Y3826D01*
X-1991Y3669D01*
X-1872Y3550D01*
X-1715Y3485D01*
X-1546Y3485D01*
X-1390Y3549D01*
X-1270Y3669D01*
X-1205Y3825D01*
X-1205Y3994D01*
X-1205Y2522D01*
X-1232Y2511D01*
X-1346Y2397D01*
X-1407Y2248D01*
X-1408Y2087D01*
X-1346Y1938D01*
X-1232Y1824D01*
X-1083Y1763D01*
X-922Y1762D01*
X-773Y1824D01*
X-659Y1938D01*
X-598Y2087D01*
X-597Y2248D01*
X-597Y1042D01*
X-609Y1132D01*
X-631Y1185D01*
X-687Y1217D01*
X-784Y1120D01*
X-784Y1314D01*
X-816Y1370D01*
X-972Y1413D01*
X-1132Y1392D01*
X-1184Y1370D01*
X-1217Y1314D01*
X-1000Y1097D01*
X-784Y1314D01*
X-784Y1120D01*
X-904Y1001D01*
X-687Y784D01*
X-631Y817D01*
X-589Y972D01*
X-589Y-6027D01*
X-595Y-5973D01*
X-595Y-4918D01*
X-595Y-3918D01*
X-657Y-3769D01*
X-771Y-3655D01*
X-920Y-3593D01*
X-1081Y-3593D01*
X-1230Y-3655D01*
X-1344Y-3769D01*
X-1405Y-3918D01*
X-1406Y-4079D01*
X-1344Y-4228D01*
X-1230Y-4342D01*
X-1081Y-4403D01*
X-920Y-4403D01*
X-771Y-4342D01*
X-657Y-4228D01*
X-596Y-4079D01*
X-595Y-3918D01*
X-595Y-4918D01*
X-657Y-4769D01*
X-771Y-4655D01*
X-920Y-4593D01*
X-1081Y-4593D01*
X-1230Y-4655D01*
X-1344Y-4769D01*
X-1405Y-4918D01*
X-1406Y-5079D01*
X-1344Y-5228D01*
X-1230Y-5342D01*
X-1081Y-5403D01*
X-920Y-5403D01*
X-771Y-5342D01*
X-657Y-5228D01*
X-596Y-5079D01*
X-595Y-4918D01*
X-595Y-5973D01*
X-609Y-5867D01*
X-631Y-5814D01*
X-687Y-5782D01*
X-784Y-5879D01*
X-784Y-5685D01*
X-816Y-5629D01*
X-972Y-5586D01*
X-1132Y-5607D01*
X-1184Y-5629D01*
X-1217Y-5685D01*
X-1000Y-5902D01*
X-784Y-5685D01*
X-784Y-5879D01*
X-904Y-5998D01*
X-687Y-6215D01*
X-631Y-6182D01*
X-589Y-6027D01*
X-589Y-7020D01*
X-591Y-7000D01*
X-613Y-6947D01*
X-669Y-6915D01*
X-766Y-7012D01*
X-766Y-6818D01*
X-784Y-6787D01*
X-784Y-6311D01*
X-1000Y-6095D01*
X-1097Y-6192D01*
X-1097Y-5998D01*
X-1313Y-5782D01*
X-1370Y-5814D01*
X-1412Y-5970D01*
X-1392Y-6130D01*
X-1370Y-6182D01*
X-1313Y-6215D01*
X-1097Y-5998D01*
X-1097Y-6192D01*
X-1217Y-6311D01*
X-1184Y-6368D01*
X-1029Y-6410D01*
X-869Y-6390D01*
X-816Y-6368D01*
X-784Y-6311D01*
X-784Y-6787D01*
X-798Y-6762D01*
X-954Y-6720D01*
X-1114Y-6740D01*
X-1167Y-6762D01*
X-1199Y-6818D01*
X-983Y-7035D01*
X-766Y-6818D01*
X-766Y-7012D01*
X-886Y-7132D01*
X-669Y-7348D01*
X-613Y-7316D01*
X-571Y-7160D01*
X-571Y-7528D01*
X-894Y-7528D01*
X-851Y-7523D01*
X-798Y-7501D01*
X-766Y-7445D01*
X-983Y-7228D01*
X-1079Y-7325D01*
X-1079Y-7132D01*
X-1296Y-6915D01*
X-1352Y-6947D01*
X-1394Y-7103D01*
X-1374Y-7263D01*
X-1352Y-7316D01*
X-1296Y-7348D01*
X-1079Y-7132D01*
X-1079Y-7325D01*
X-1199Y-7445D01*
X-1167Y-7501D01*
X-1066Y-7528D01*
X-1589Y-7528D01*
X-1589Y-6027D01*
X-1609Y-5867D01*
X-1631Y-5814D01*
X-1687Y-5782D01*
X-1784Y-5879D01*
X-1904Y-5998D01*
X-1687Y-6215D01*
X-1631Y-6182D01*
X-1589Y-6027D01*
X-1589Y-7528D01*
X-1784Y-7528D01*
X-2231Y-7528D01*
X-2231Y-6326D01*
X-2217Y-6311D01*
X-2184Y-6368D01*
X-2029Y-6410D01*
X-1869Y-6390D01*
X-1816Y-6368D01*
X-1784Y-6311D01*
X-2000Y-6095D01*
X-2006Y-6101D01*
X-2103Y-6004D01*
X-2097Y-5998D01*
X-2103Y-5993D01*
X-2006Y-5896D01*
X-2000Y-5902D01*
X-1784Y-5685D01*
X-1816Y-5629D01*
X-1972Y-5586D01*
X-2132Y-5607D01*
X-2184Y-5629D01*
X-2217Y-5685D01*
X-2231Y-5671D01*
X-2231Y-5341D01*
X-2230Y-5342D01*
X-2081Y-5403D01*
X-1920Y-5403D01*
X-1771Y-5342D01*
X-1657Y-5228D01*
X-1596Y-5079D01*
X-1595Y-4918D01*
X-1657Y-4769D01*
X-1770Y-4656D01*
X-1770Y-4341D01*
X-1657Y-4228D01*
X-1596Y-4079D01*
X-1595Y-3919D01*
X-1340Y-3663D01*
X-1290Y-3588D01*
X-1290Y-3588D01*
X-1273Y-3500D01*
X-1273Y-1299D01*
X-1230Y-1342D01*
X-1081Y-1403D01*
X-920Y-1403D01*
X-771Y-1342D01*
X-657Y-1228D01*
X-596Y-1079D01*
X-595Y-918D01*
X-657Y-769D01*
X-771Y-655D01*
X-920Y-593D01*
X-1081Y-593D01*
X-1230Y-655D01*
X-1273Y-698D01*
X-1273Y-299D01*
X-1230Y-342D01*
X-1081Y-403D01*
X-920Y-403D01*
X-771Y-342D01*
X-657Y-228D01*
X-596Y-79D01*
X-595Y81D01*
X-657Y230D01*
X-771Y344D01*
X-784Y349D01*
X-784Y688D01*
X-1000Y904D01*
X-1097Y807D01*
X-1097Y1001D01*
X-1313Y1217D01*
X-1370Y1185D01*
X-1412Y1029D01*
X-1392Y869D01*
X-1370Y817D01*
X-1313Y784D01*
X-1097Y1001D01*
X-1097Y807D01*
X-1217Y688D01*
X-1184Y631D01*
X-1029Y589D01*
X-869Y609D01*
X-816Y631D01*
X-784Y688D01*
X-784Y349D01*
X-920Y406D01*
X-1081Y406D01*
X-1230Y344D01*
X-1288Y286D01*
X-1290Y296D01*
X-1340Y370D01*
X-1340Y370D01*
X-1589Y619D01*
X-1589Y972D01*
X-1609Y1132D01*
X-1631Y1185D01*
X-1687Y1217D01*
X-1784Y1120D01*
X-1784Y1314D01*
X-1816Y1370D01*
X-1972Y1413D01*
X-2132Y1392D01*
X-2184Y1370D01*
X-2217Y1314D01*
X-2000Y1097D01*
X-1784Y1314D01*
X-1784Y1120D01*
X-1904Y1001D01*
X-1687Y784D01*
X-1631Y817D01*
X-1589Y972D01*
X-1589Y619D01*
X-1620Y650D01*
X-1694Y700D01*
X-1783Y718D01*
X-1814Y718D01*
X-2000Y904D01*
X-2006Y898D01*
X-2103Y995D01*
X-2097Y1001D01*
X-2313Y1217D01*
X-2370Y1185D01*
X-2412Y1029D01*
X-2411Y1022D01*
X-3060Y1670D01*
X-3134Y1720D01*
X-3196Y1732D01*
X-3157Y1771D01*
X-3096Y1920D01*
X-3095Y2081D01*
X-3157Y2230D01*
X-3271Y2344D01*
X-3420Y2406D01*
X-3580Y2406D01*
X-4153Y2978D01*
X-4153Y3237D01*
X-4125Y3209D01*
X-4078Y3189D01*
X-4026Y3189D01*
X-3350Y3189D01*
X-2407Y2247D01*
X-2408Y2087D01*
X-2346Y1938D01*
X-2232Y1824D01*
X-2083Y1763D01*
X-1922Y1762D01*
X-1773Y1824D01*
X-1659Y1938D01*
X-1598Y2087D01*
X-1597Y2248D01*
X-1659Y2397D01*
X-1773Y2511D01*
X-1922Y2572D01*
X-2082Y2573D01*
X-3134Y3624D01*
X-3134Y4526D01*
X-3154Y4574D01*
X-3174Y4594D01*
X-3174Y5609D01*
X-3174Y6200D01*
X-3193Y6247D01*
X-3230Y6284D01*
X-3278Y6304D01*
X-3329Y6304D01*
X-3920Y6304D01*
X-3968Y6284D01*
X-4004Y6248D01*
X-4024Y6200D01*
X-4024Y6148D01*
X-4024Y5558D01*
X-4004Y5510D01*
X-3968Y5473D01*
X-3920Y5453D01*
X-3868Y5453D01*
X-3278Y5453D01*
X-3230Y5473D01*
X-3193Y5510D01*
X-3174Y5557D01*
X-3174Y5609D01*
X-3174Y4594D01*
X-3190Y4611D01*
X-3238Y4631D01*
X-3290Y4631D01*
X-4077Y4631D01*
X-4100Y4621D01*
X-4124Y4680D01*
X-4210Y4766D01*
X-4257Y4786D01*
X-4257Y6210D01*
X-4327Y6379D01*
X-4456Y6508D01*
X-4625Y6579D01*
X-4808Y6579D01*
X-4977Y6509D01*
X-5107Y6380D01*
X-5177Y6211D01*
X-5177Y6028D01*
X-5107Y5858D01*
X-4978Y5729D01*
X-4809Y5659D01*
X-4626Y5659D01*
X-4457Y5728D01*
X-4327Y5858D01*
X-4257Y6027D01*
X-4257Y6210D01*
X-4257Y4786D01*
X-4322Y4812D01*
X-4443Y4813D01*
X-4555Y4766D01*
X-4638Y4684D01*
X-4657Y4730D01*
X-4771Y4844D01*
X-4920Y4906D01*
X-5081Y4906D01*
X-5230Y4844D01*
X-5257Y4817D01*
X-5257Y6210D01*
X-5327Y6379D01*
X-5456Y6508D01*
X-5625Y6579D01*
X-5808Y6579D01*
X-5977Y6509D01*
X-6107Y6380D01*
X-6177Y6211D01*
X-6177Y6028D01*
X-6107Y5858D01*
X-5978Y5729D01*
X-5809Y5659D01*
X-5626Y5659D01*
X-5457Y5728D01*
X-5327Y5858D01*
X-5257Y6027D01*
X-5257Y6210D01*
X-5257Y4817D01*
X-5344Y4730D01*
X-5405Y4581D01*
X-5406Y4420D01*
X-5344Y4271D01*
X-5230Y4157D01*
X-5081Y4096D01*
X-4920Y4096D01*
X-4771Y4157D01*
X-4657Y4271D01*
X-4634Y4328D01*
X-4613Y4306D01*
X-4613Y2883D01*
X-4595Y2795D01*
X-4545Y2720D01*
X-3905Y2080D01*
X-3906Y1920D01*
X-3844Y1771D01*
X-3810Y1738D01*
X-4595Y1738D01*
X-4595Y2581D01*
X-4657Y2730D01*
X-4771Y2844D01*
X-4920Y2906D01*
X-5081Y2906D01*
X-5230Y2844D01*
X-5344Y2730D01*
X-5405Y2581D01*
X-5406Y2420D01*
X-5344Y2271D01*
X-5230Y2157D01*
X-5081Y2096D01*
X-4920Y2096D01*
X-4771Y2157D01*
X-4657Y2271D01*
X-4596Y2420D01*
X-4595Y2581D01*
X-4595Y1738D01*
X-4947Y1738D01*
X-5873Y2663D01*
X-5948Y2713D01*
X-6036Y2731D01*
X-6166Y2731D01*
X-6166Y3345D01*
X-6166Y4526D01*
X-6185Y4574D01*
X-6222Y4611D01*
X-6264Y4628D01*
X-6264Y5963D01*
X-6329Y6119D01*
X-6448Y6239D01*
X-6604Y6304D01*
X-6774Y6304D01*
X-6930Y6239D01*
X-7050Y6120D01*
X-7115Y5963D01*
X-7115Y5794D01*
X-7050Y5638D01*
X-6931Y5518D01*
X-6774Y5453D01*
X-6605Y5453D01*
X-6449Y5518D01*
X-6329Y5637D01*
X-6264Y5794D01*
X-6264Y5963D01*
X-6264Y4628D01*
X-6270Y4631D01*
X-6321Y4631D01*
X-7109Y4631D01*
X-7157Y4611D01*
X-7193Y4574D01*
X-7213Y4527D01*
X-7213Y4475D01*
X-7213Y3294D01*
X-7193Y3246D01*
X-7157Y3209D01*
X-7109Y3189D01*
X-7057Y3189D01*
X-6270Y3189D01*
X-6222Y3209D01*
X-6186Y3246D01*
X-6166Y3293D01*
X-6166Y3345D01*
X-6166Y2731D01*
X-7937Y2731D01*
X-7937Y5459D01*
X-7937Y6298D01*
X-7957Y6346D01*
X-7994Y6382D01*
X-8041Y6402D01*
X-8093Y6402D01*
X-8557Y6402D01*
X-8590Y6370D01*
X-8590Y5947D01*
X-7970Y5947D01*
X-7937Y5979D01*
X-7937Y6298D01*
X-7937Y5459D01*
X-7937Y5778D01*
X-7970Y5810D01*
X-8590Y5810D01*
X-8590Y5387D01*
X-8557Y5355D01*
X-8093Y5355D01*
X-8041Y5355D01*
X-7994Y5375D01*
X-7957Y5411D01*
X-7937Y5459D01*
X-7937Y2731D01*
X-8233Y2731D01*
X-8233Y3994D01*
X-8297Y4151D01*
X-8417Y4270D01*
X-8573Y4335D01*
X-8726Y4335D01*
X-8726Y5387D01*
X-8726Y5810D01*
X-8726Y5947D01*
X-8726Y6370D01*
X-8759Y6402D01*
X-9223Y6402D01*
X-9274Y6402D01*
X-9322Y6382D01*
X-9359Y6346D01*
X-9379Y6298D01*
X-9378Y5979D01*
X-9346Y5947D01*
X-8726Y5947D01*
X-8726Y5810D01*
X-9346Y5810D01*
X-9378Y5778D01*
X-9379Y5459D01*
X-9359Y5411D01*
X-9322Y5375D01*
X-9274Y5355D01*
X-9223Y5355D01*
X-8759Y5355D01*
X-8726Y5387D01*
X-8726Y4335D01*
X-8742Y4335D01*
X-8899Y4271D01*
X-9018Y4151D01*
X-9083Y3995D01*
X-9083Y3826D01*
X-9019Y3669D01*
X-8899Y3550D01*
X-8743Y3485D01*
X-8574Y3485D01*
X-8417Y3549D01*
X-8298Y3669D01*
X-8233Y3825D01*
X-8233Y3994D01*
X-8233Y2731D01*
X-10103Y2731D01*
X-10103Y3345D01*
X-10103Y4526D01*
X-10122Y4574D01*
X-10159Y4611D01*
X-10201Y4628D01*
X-10201Y5884D01*
X-10266Y6040D01*
X-10385Y6160D01*
X-10541Y6225D01*
X-10711Y6225D01*
X-10867Y6161D01*
X-10987Y6041D01*
X-11052Y5885D01*
X-11052Y5716D01*
X-10987Y5559D01*
X-10868Y5439D01*
X-10711Y5375D01*
X-10542Y5374D01*
X-10386Y5439D01*
X-10266Y5559D01*
X-10201Y5715D01*
X-10201Y5884D01*
X-10201Y4628D01*
X-10207Y4631D01*
X-10258Y4631D01*
X-11046Y4631D01*
X-11094Y4611D01*
X-11130Y4574D01*
X-11150Y4527D01*
X-11150Y4475D01*
X-11150Y3294D01*
X-11130Y3246D01*
X-11094Y3209D01*
X-11046Y3189D01*
X-10994Y3189D01*
X-10207Y3189D01*
X-10159Y3209D01*
X-10123Y3246D01*
X-10103Y3293D01*
X-10103Y3345D01*
X-10103Y2731D01*
X-11595Y2731D01*
X-11595Y4581D01*
X-11657Y4730D01*
X-11771Y4844D01*
X-11920Y4906D01*
X-12081Y4906D01*
X-12230Y4844D01*
X-12344Y4730D01*
X-12405Y4581D01*
X-12406Y4420D01*
X-12344Y4271D01*
X-12230Y4157D01*
X-12081Y4096D01*
X-11920Y4096D01*
X-11771Y4157D01*
X-11657Y4271D01*
X-11596Y4420D01*
X-11595Y4581D01*
X-11595Y2731D01*
X-11658Y2731D01*
X-11771Y2844D01*
X-11920Y2906D01*
X-12081Y2906D01*
X-12230Y2844D01*
X-12344Y2730D01*
X-12405Y2581D01*
X-12406Y2420D01*
X-12344Y2271D01*
X-12230Y2157D01*
X-12081Y2096D01*
X-11920Y2096D01*
X-11771Y2157D01*
X-11658Y2271D01*
X-10899Y2271D01*
X-10987Y2183D01*
X-11052Y2026D01*
X-11052Y1857D01*
X-10987Y1701D01*
X-10868Y1581D01*
X-10711Y1516D01*
X-10542Y1516D01*
X-10386Y1581D01*
X-10266Y1700D01*
X-10201Y1857D01*
X-10201Y2026D01*
X-10266Y2182D01*
X-10354Y2271D01*
X-10107Y2271D01*
X-10107Y2250D01*
X-10107Y1581D01*
X-10087Y1533D01*
X-10051Y1497D01*
X-10003Y1477D01*
X-9951Y1477D01*
X-9872Y1477D01*
X-9872Y1422D01*
X-10003Y1422D01*
X-10050Y1402D01*
X-10087Y1366D01*
X-10107Y1318D01*
X-10107Y1266D01*
X-10107Y597D01*
X-10087Y549D01*
X-10051Y512D01*
X-10003Y493D01*
X-9951Y493D01*
X-9503Y493D01*
X-9341Y331D01*
X-12470Y331D01*
X-12470Y6771D01*
X1269Y6771D01*
X1269Y2468D01*
X1227Y2510D01*
X1227Y3310D01*
X1226Y3310D01*
X1227Y3310D01*
X1209Y3398D01*
X1159Y3472D01*
X1159Y3472D01*
X920Y3712D01*
X920Y4526D01*
X900Y4574D01*
X864Y4611D01*
X816Y4631D01*
X764Y4631D01*
X762Y4631D01*
X762Y5609D01*
X762Y6200D01*
X743Y6247D01*
X706Y6284D01*
X658Y6304D01*
X607Y6304D01*
X16Y6304D01*
X-31Y6284D01*
X-67Y6248D01*
X-87Y6200D01*
X-87Y6148D01*
X-87Y5558D01*
X-67Y5510D01*
X-31Y5473D01*
X16Y5453D01*
X68Y5453D01*
X658Y5453D01*
X706Y5473D01*
X743Y5510D01*
X762Y5557D01*
X762Y5609D01*
X762Y4631D01*
X-22Y4631D01*
X-70Y4611D01*
X-107Y4574D01*
X-126Y4527D01*
X-127Y4475D01*
X-127Y3294D01*
X-107Y3246D01*
X-70Y3209D01*
X-22Y3189D01*
X28Y3189D01*
X767Y3189D01*
X767Y2510D01*
X653Y2397D01*
X592Y2248D01*
X591Y2087D01*
X653Y1938D01*
X767Y1824D01*
X916Y1763D01*
X1077Y1762D01*
X1226Y1824D01*
X1269Y1867D01*
X1269Y1303D01*
X1228Y1344D01*
X1079Y1406D01*
X918Y1406D01*
X769Y1344D01*
X727Y1301D01*
X727Y1668D01*
X709Y1756D01*
X709Y1756D01*
X659Y1830D01*
X401Y2088D01*
X402Y2248D01*
X340Y2397D01*
X226Y2511D01*
X77Y2572D01*
X-83Y2573D01*
X-232Y2511D01*
X-346Y2397D01*
X-407Y2248D01*
X-408Y2087D01*
X-346Y1938D01*
X-232Y1824D01*
X-83Y1763D01*
X76Y1762D01*
X267Y1572D01*
X267Y1316D01*
X242Y1341D01*
X215Y1314D01*
X183Y1370D01*
X27Y1413D01*
X-132Y1392D01*
X-184Y1370D01*
X-217Y1314D01*
X0Y1097D01*
X4Y1103D01*
X101Y1006D01*
X95Y1001D01*
X101Y995D01*
X4Y898D01*
X0Y904D01*
X-97Y807D01*
X-97Y1001D01*
X-313Y1217D01*
X-370Y1185D01*
X-412Y1029D01*
X-392Y869D01*
X-370Y817D01*
X-313Y784D01*
X-97Y1001D01*
X-97Y807D01*
X-217Y688D01*
X-184Y631D01*
X-29Y589D01*
X130Y609D01*
X183Y631D01*
X215Y688D01*
X215Y688D01*
X242Y661D01*
X267Y685D01*
X267Y503D01*
X284Y415D01*
X334Y340D01*
X594Y80D01*
X593Y-79D01*
X655Y-228D01*
X769Y-341D01*
X769Y-593D01*
X698Y-593D01*
X650Y-613D01*
X613Y-650D01*
X594Y-697D01*
X594Y-749D01*
X594Y-1299D01*
X613Y-1347D01*
X650Y-1384D01*
X698Y-1403D01*
X749Y-1403D01*
X1269Y-1403D01*
X1269Y-3696D01*
X1228Y-3655D01*
X1079Y-3593D01*
X918Y-3593D01*
X769Y-3655D01*
X655Y-3769D01*
X594Y-3918D01*
X593Y-4079D01*
X655Y-4228D01*
X769Y-4342D01*
X918Y-4403D01*
X1079Y-4403D01*
X1228Y-4342D01*
X1269Y-4301D01*
X1269Y-4696D01*
X1228Y-4655D01*
X1079Y-4593D01*
X918Y-4593D01*
X769Y-4655D01*
X655Y-4769D01*
X594Y-4918D01*
X593Y-5079D01*
X655Y-5228D01*
X769Y-5342D01*
X918Y-5403D01*
X1079Y-5403D01*
X1228Y-5342D01*
X1269Y-5301D01*
X1269Y-5685D01*
X1242Y-5658D01*
X1215Y-5685D01*
X1183Y-5629D01*
X1027Y-5586D01*
X867Y-5607D01*
X815Y-5629D01*
X782Y-5685D01*
X999Y-5902D01*
X1004Y-5896D01*
X1101Y-5993D01*
X1095Y-5998D01*
X1101Y-6004D01*
X1004Y-6101D01*
X999Y-6095D01*
X902Y-6192D01*
X902Y-5998D01*
X686Y-5782D01*
X629Y-5814D01*
X587Y-5970D01*
X607Y-6130D01*
X629Y-6182D01*
X686Y-6215D01*
X902Y-5998D01*
X902Y-6192D01*
X782Y-6311D01*
X815Y-6368D01*
X970Y-6410D01*
X1130Y-6390D01*
X1183Y-6368D01*
X1215Y-6311D01*
X1215Y-6311D01*
X1242Y-6338D01*
X1269Y-6312D01*
X1269Y-6936D01*
X1215Y-6990D01*
X1193Y-7012D01*
X1193Y-6818D01*
X1161Y-6762D01*
X1005Y-6720D01*
X845Y-6740D01*
X792Y-6762D01*
X760Y-6818D01*
X977Y-7035D01*
X1193Y-6818D01*
X1193Y-7012D01*
X1073Y-7132D01*
X1269Y-7327D01*
X1269Y-7528D01*
X1269Y-7528D01*
G37*
G54D26*
X1269Y-7528D02*
X1065Y-7528D01*
X1108Y-7523D01*
X1161Y-7501D01*
X1193Y-7445D01*
X977Y-7228D01*
X880Y-7325D01*
X880Y-7132D01*
X663Y-6915D01*
X607Y-6947D01*
X565Y-7103D01*
X585Y-7263D01*
X607Y-7316D01*
X663Y-7348D01*
X880Y-7132D01*
X880Y-7325D01*
X760Y-7445D01*
X792Y-7501D01*
X893Y-7528D01*
X404Y-7528D01*
X404Y-5918D01*
X404Y-4918D01*
X342Y-4769D01*
X229Y-4656D01*
X229Y-4341D01*
X342Y-4228D01*
X403Y-4079D01*
X404Y-3918D01*
X404Y-918D01*
X404Y81D01*
X342Y230D01*
X228Y344D01*
X215Y349D01*
X79Y406D01*
X-81Y406D01*
X-230Y344D01*
X-344Y230D01*
X-405Y81D01*
X-406Y-79D01*
X-344Y-228D01*
X-230Y-342D01*
X-81Y-403D01*
X79Y-403D01*
X228Y-342D01*
X342Y-228D01*
X403Y-79D01*
X404Y81D01*
X404Y-918D01*
X342Y-769D01*
X228Y-655D01*
X79Y-593D01*
X-81Y-593D01*
X-230Y-655D01*
X-344Y-769D01*
X-405Y-918D01*
X-406Y-1079D01*
X-344Y-1228D01*
X-230Y-1342D01*
X-81Y-1403D01*
X79Y-1403D01*
X228Y-1342D01*
X342Y-1228D01*
X403Y-1079D01*
X404Y-918D01*
X404Y-3918D01*
X342Y-3769D01*
X228Y-3655D01*
X79Y-3593D01*
X-81Y-3593D01*
X-230Y-3655D01*
X-344Y-3769D01*
X-405Y-3918D01*
X-406Y-4079D01*
X-344Y-4228D01*
X-230Y-4341D01*
X-230Y-4656D01*
X-344Y-4769D01*
X-405Y-4918D01*
X-406Y-5079D01*
X-344Y-5228D01*
X-230Y-5342D01*
X-81Y-5403D01*
X79Y-5403D01*
X228Y-5342D01*
X342Y-5228D01*
X403Y-5079D01*
X404Y-4918D01*
X404Y-5918D01*
X342Y-5769D01*
X228Y-5655D01*
X79Y-5593D01*
X-81Y-5593D01*
X-230Y-5655D01*
X-344Y-5769D01*
X-405Y-5918D01*
X-406Y-6079D01*
X-344Y-6228D01*
X-230Y-6342D01*
X-81Y-6403D01*
X79Y-6403D01*
X228Y-6342D01*
X342Y-6228D01*
X403Y-6079D01*
X404Y-5918D01*
X404Y-7528D01*
X-571Y-7528D01*
X-571Y-7160D01*
X-589Y-7020D01*
X-589Y-6027D01*
X-589Y972D01*
X-597Y1042D01*
X-597Y2248D01*
X-659Y2397D01*
X-773Y2511D01*
X-910Y2568D01*
X-910Y5459D01*
X-910Y6298D01*
X-930Y6346D01*
X-966Y6382D01*
X-1014Y6402D01*
X-1066Y6402D01*
X-1529Y6402D01*
X-1562Y6370D01*
X-1562Y5947D01*
X-942Y5947D01*
X-910Y5979D01*
X-910Y6298D01*
X-910Y5459D01*
X-910Y5778D01*
X-942Y5810D01*
X-1562Y5810D01*
X-1562Y5387D01*
X-1529Y5355D01*
X-1066Y5355D01*
X-1014Y5355D01*
X-966Y5375D01*
X-930Y5411D01*
X-910Y5459D01*
X-910Y2568D01*
X-922Y2572D01*
X-1083Y2573D01*
X-1205Y2522D01*
X-1205Y3994D01*
X-1270Y4151D01*
X-1389Y4270D01*
X-1545Y4335D01*
X-1699Y4335D01*
X-1699Y5387D01*
X-1699Y5810D01*
X-1699Y5947D01*
X-1699Y6370D01*
X-1731Y6402D01*
X-2195Y6402D01*
X-2247Y6402D01*
X-2295Y6382D01*
X-2331Y6346D01*
X-2351Y6298D01*
X-2351Y5979D01*
X-2318Y5947D01*
X-1699Y5947D01*
X-1699Y5810D01*
X-2318Y5810D01*
X-2351Y5778D01*
X-2351Y5459D01*
X-2331Y5411D01*
X-2295Y5375D01*
X-2247Y5355D01*
X-2195Y5355D01*
X-1731Y5355D01*
X-1699Y5387D01*
X-1699Y4335D01*
X-1715Y4335D01*
X-1871Y4271D01*
X-1991Y4151D01*
X-2056Y3995D01*
X-2056Y3826D01*
X-1991Y3669D01*
X-1872Y3550D01*
X-1715Y3485D01*
X-1546Y3485D01*
X-1390Y3549D01*
X-1270Y3669D01*
X-1205Y3825D01*
X-1205Y3994D01*
X-1205Y2522D01*
X-1232Y2511D01*
X-1346Y2397D01*
X-1407Y2248D01*
X-1408Y2087D01*
X-1346Y1938D01*
X-1232Y1824D01*
X-1083Y1763D01*
X-922Y1762D01*
X-773Y1824D01*
X-659Y1938D01*
X-598Y2087D01*
X-597Y2248D01*
X-597Y1042D01*
X-609Y1132D01*
X-631Y1185D01*
X-687Y1217D01*
X-784Y1120D01*
X-784Y1314D01*
X-816Y1370D01*
X-972Y1413D01*
X-1132Y1392D01*
X-1184Y1370D01*
X-1217Y1314D01*
X-1000Y1097D01*
X-784Y1314D01*
X-784Y1120D01*
X-904Y1001D01*
X-687Y784D01*
X-631Y817D01*
X-589Y972D01*
X-589Y-6027D01*
X-595Y-5973D01*
X-595Y-4918D01*
X-595Y-3918D01*
X-657Y-3769D01*
X-771Y-3655D01*
X-920Y-3593D01*
X-1081Y-3593D01*
X-1230Y-3655D01*
X-1344Y-3769D01*
X-1405Y-3918D01*
X-1406Y-4079D01*
X-1344Y-4228D01*
X-1230Y-4342D01*
X-1081Y-4403D01*
X-920Y-4403D01*
X-771Y-4342D01*
X-657Y-4228D01*
X-596Y-4079D01*
X-595Y-3918D01*
X-595Y-4918D01*
X-657Y-4769D01*
X-771Y-4655D01*
X-920Y-4593D01*
X-1081Y-4593D01*
X-1230Y-4655D01*
X-1344Y-4769D01*
X-1405Y-4918D01*
X-1406Y-5079D01*
X-1344Y-5228D01*
X-1230Y-5342D01*
X-1081Y-5403D01*
X-920Y-5403D01*
X-771Y-5342D01*
X-657Y-5228D01*
X-596Y-5079D01*
X-595Y-4918D01*
X-595Y-5973D01*
X-609Y-5867D01*
X-631Y-5814D01*
X-687Y-5782D01*
X-784Y-5879D01*
X-784Y-5685D01*
X-816Y-5629D01*
X-972Y-5586D01*
X-1132Y-5607D01*
X-1184Y-5629D01*
X-1217Y-5685D01*
X-1000Y-5902D01*
X-784Y-5685D01*
X-784Y-5879D01*
X-904Y-5998D01*
X-687Y-6215D01*
X-631Y-6182D01*
X-589Y-6027D01*
X-589Y-7020D01*
X-591Y-7000D01*
X-613Y-6947D01*
X-669Y-6915D01*
X-766Y-7012D01*
X-766Y-6818D01*
X-784Y-6787D01*
X-784Y-6311D01*
X-1000Y-6095D01*
X-1097Y-6192D01*
X-1097Y-5998D01*
X-1313Y-5782D01*
X-1370Y-5814D01*
X-1412Y-5970D01*
X-1392Y-6130D01*
X-1370Y-6182D01*
X-1313Y-6215D01*
X-1097Y-5998D01*
X-1097Y-6192D01*
X-1217Y-6311D01*
X-1184Y-6368D01*
X-1029Y-6410D01*
X-869Y-6390D01*
X-816Y-6368D01*
X-784Y-6311D01*
X-784Y-6787D01*
X-798Y-6762D01*
X-954Y-6720D01*
X-1114Y-6740D01*
X-1167Y-6762D01*
X-1199Y-6818D01*
X-983Y-7035D01*
X-766Y-6818D01*
X-766Y-7012D01*
X-886Y-7132D01*
X-669Y-7348D01*
X-613Y-7316D01*
X-571Y-7160D01*
X-571Y-7528D01*
X-894Y-7528D01*
X-851Y-7523D01*
X-798Y-7501D01*
X-766Y-7445D01*
X-983Y-7228D01*
X-1079Y-7325D01*
X-1079Y-7132D01*
X-1296Y-6915D01*
X-1352Y-6947D01*
X-1394Y-7103D01*
X-1374Y-7263D01*
X-1352Y-7316D01*
X-1296Y-7348D01*
X-1079Y-7132D01*
X-1079Y-7325D01*
X-1199Y-7445D01*
X-1167Y-7501D01*
X-1066Y-7528D01*
X-1589Y-7528D01*
X-1589Y-6027D01*
X-1609Y-5867D01*
X-1631Y-5814D01*
X-1687Y-5782D01*
X-1784Y-5879D01*
X-1904Y-5998D01*
X-1687Y-6215D01*
X-1631Y-6182D01*
X-1589Y-6027D01*
X-1589Y-7528D01*
X-1784Y-7528D01*
X-2231Y-7528D01*
X-2231Y-6326D01*
X-2217Y-6311D01*
X-2184Y-6368D01*
X-2029Y-6410D01*
X-1869Y-6390D01*
X-1816Y-6368D01*
X-1784Y-6311D01*
X-2000Y-6095D01*
X-2006Y-6101D01*
X-2103Y-6004D01*
X-2097Y-5998D01*
X-2103Y-5993D01*
X-2006Y-5896D01*
X-2000Y-5902D01*
X-1784Y-5685D01*
X-1816Y-5629D01*
X-1972Y-5586D01*
X-2132Y-5607D01*
X-2184Y-5629D01*
X-2217Y-5685D01*
X-2231Y-5671D01*
X-2231Y-5341D01*
X-2230Y-5342D01*
X-2081Y-5403D01*
X-1920Y-5403D01*
X-1771Y-5342D01*
X-1657Y-5228D01*
X-1596Y-5079D01*
X-1595Y-4918D01*
X-1657Y-4769D01*
X-1770Y-4656D01*
X-1770Y-4341D01*
X-1657Y-4228D01*
X-1596Y-4079D01*
X-1595Y-3919D01*
X-1340Y-3663D01*
X-1290Y-3588D01*
X-1290Y-3588D01*
X-1273Y-3500D01*
X-1273Y-1299D01*
X-1230Y-1342D01*
X-1081Y-1403D01*
X-920Y-1403D01*
X-771Y-1342D01*
X-657Y-1228D01*
X-596Y-1079D01*
X-595Y-918D01*
X-657Y-769D01*
X-771Y-655D01*
X-920Y-593D01*
X-1081Y-593D01*
X-1230Y-655D01*
X-1273Y-698D01*
X-1273Y-299D01*
X-1230Y-342D01*
X-1081Y-403D01*
X-920Y-403D01*
X-771Y-342D01*
X-657Y-228D01*
X-596Y-79D01*
X-595Y81D01*
X-657Y230D01*
X-771Y344D01*
X-784Y349D01*
X-784Y688D01*
X-1000Y904D01*
X-1097Y807D01*
X-1097Y1001D01*
X-1313Y1217D01*
X-1370Y1185D01*
X-1412Y1029D01*
X-1392Y869D01*
X-1370Y817D01*
X-1313Y784D01*
X-1097Y1001D01*
X-1097Y807D01*
X-1217Y688D01*
X-1184Y631D01*
X-1029Y589D01*
X-869Y609D01*
X-816Y631D01*
X-784Y688D01*
X-784Y349D01*
X-920Y406D01*
X-1081Y406D01*
X-1230Y344D01*
X-1288Y286D01*
X-1290Y296D01*
X-1340Y370D01*
X-1340Y370D01*
X-1589Y619D01*
X-1589Y972D01*
X-1609Y1132D01*
X-1631Y1185D01*
X-1687Y1217D01*
X-1784Y1120D01*
X-1784Y1314D01*
X-1816Y1370D01*
X-1972Y1413D01*
X-2132Y1392D01*
X-2184Y1370D01*
X-2217Y1314D01*
X-2000Y1097D01*
X-1784Y1314D01*
X-1784Y1120D01*
X-1904Y1001D01*
X-1687Y784D01*
X-1631Y817D01*
X-1589Y972D01*
X-1589Y619D01*
X-1620Y650D01*
X-1694Y700D01*
X-1783Y718D01*
X-1814Y718D01*
X-2000Y904D01*
X-2006Y898D01*
X-2103Y995D01*
X-2097Y1001D01*
X-2313Y1217D01*
X-2370Y1185D01*
X-2412Y1029D01*
X-2411Y1022D01*
X-3060Y1670D01*
X-3134Y1720D01*
X-3196Y1732D01*
X-3157Y1771D01*
X-3096Y1920D01*
X-3095Y2081D01*
X-3157Y2230D01*
X-3271Y2344D01*
X-3420Y2406D01*
X-3580Y2406D01*
X-4153Y2978D01*
X-4153Y3237D01*
X-4125Y3209D01*
X-4078Y3189D01*
X-4026Y3189D01*
X-3350Y3189D01*
X-2407Y2247D01*
X-2408Y2087D01*
X-2346Y1938D01*
X-2232Y1824D01*
X-2083Y1763D01*
X-1922Y1762D01*
X-1773Y1824D01*
X-1659Y1938D01*
X-1598Y2087D01*
X-1597Y2248D01*
X-1659Y2397D01*
X-1773Y2511D01*
X-1922Y2572D01*
X-2082Y2573D01*
X-3134Y3624D01*
X-3134Y4526D01*
X-3154Y4574D01*
X-3174Y4594D01*
X-3174Y5609D01*
X-3174Y6200D01*
X-3193Y6247D01*
X-3230Y6284D01*
X-3278Y6304D01*
X-3329Y6304D01*
X-3920Y6304D01*
X-3968Y6284D01*
X-4004Y6248D01*
X-4024Y6200D01*
X-4024Y6148D01*
X-4024Y5558D01*
X-4004Y5510D01*
X-3968Y5473D01*
X-3920Y5453D01*
X-3868Y5453D01*
X-3278Y5453D01*
X-3230Y5473D01*
X-3193Y5510D01*
X-3174Y5557D01*
X-3174Y5609D01*
X-3174Y4594D01*
X-3190Y4611D01*
X-3238Y4631D01*
X-3290Y4631D01*
X-4077Y4631D01*
X-4100Y4621D01*
X-4124Y4680D01*
X-4210Y4766D01*
X-4257Y4786D01*
X-4257Y6210D01*
X-4327Y6379D01*
X-4456Y6508D01*
X-4625Y6579D01*
X-4808Y6579D01*
X-4977Y6509D01*
X-5107Y6380D01*
X-5177Y6211D01*
X-5177Y6028D01*
X-5107Y5858D01*
X-4978Y5729D01*
X-4809Y5659D01*
X-4626Y5659D01*
X-4457Y5728D01*
X-4327Y5858D01*
X-4257Y6027D01*
X-4257Y6210D01*
X-4257Y4786D01*
X-4322Y4812D01*
X-4443Y4813D01*
X-4555Y4766D01*
X-4638Y4684D01*
X-4657Y4730D01*
X-4771Y4844D01*
X-4920Y4906D01*
X-5081Y4906D01*
X-5230Y4844D01*
X-5257Y4817D01*
X-5257Y6210D01*
X-5327Y6379D01*
X-5456Y6508D01*
X-5625Y6579D01*
X-5808Y6579D01*
X-5977Y6509D01*
X-6107Y6380D01*
X-6177Y6211D01*
X-6177Y6028D01*
X-6107Y5858D01*
X-5978Y5729D01*
X-5809Y5659D01*
X-5626Y5659D01*
X-5457Y5728D01*
X-5327Y5858D01*
X-5257Y6027D01*
X-5257Y6210D01*
X-5257Y4817D01*
X-5344Y4730D01*
X-5405Y4581D01*
X-5406Y4420D01*
X-5344Y4271D01*
X-5230Y4157D01*
X-5081Y4096D01*
X-4920Y4096D01*
X-4771Y4157D01*
X-4657Y4271D01*
X-4634Y4328D01*
X-4613Y4306D01*
X-4613Y2883D01*
X-4595Y2795D01*
X-4545Y2720D01*
X-3905Y2080D01*
X-3906Y1920D01*
X-3844Y1771D01*
X-3810Y1738D01*
X-4595Y1738D01*
X-4595Y2581D01*
X-4657Y2730D01*
X-4771Y2844D01*
X-4920Y2906D01*
X-5081Y2906D01*
X-5230Y2844D01*
X-5344Y2730D01*
X-5405Y2581D01*
X-5406Y2420D01*
X-5344Y2271D01*
X-5230Y2157D01*
X-5081Y2096D01*
X-4920Y2096D01*
X-4771Y2157D01*
X-4657Y2271D01*
X-4596Y2420D01*
X-4595Y2581D01*
X-4595Y1738D01*
X-4947Y1738D01*
X-5873Y2663D01*
X-5948Y2713D01*
X-6036Y2731D01*
X-6166Y2731D01*
X-6166Y3345D01*
X-6166Y4526D01*
X-6185Y4574D01*
X-6222Y4611D01*
X-6264Y4628D01*
X-6264Y5963D01*
X-6329Y6119D01*
X-6448Y6239D01*
X-6604Y6304D01*
X-6774Y6304D01*
X-6930Y6239D01*
X-7050Y6120D01*
X-7115Y5963D01*
X-7115Y5794D01*
X-7050Y5638D01*
X-6931Y5518D01*
X-6774Y5453D01*
X-6605Y5453D01*
X-6449Y5518D01*
X-6329Y5637D01*
X-6264Y5794D01*
X-6264Y5963D01*
X-6264Y4628D01*
X-6270Y4631D01*
X-6321Y4631D01*
X-7109Y4631D01*
X-7157Y4611D01*
X-7193Y4574D01*
X-7213Y4527D01*
X-7213Y4475D01*
X-7213Y3294D01*
X-7193Y3246D01*
X-7157Y3209D01*
X-7109Y3189D01*
X-7057Y3189D01*
X-6270Y3189D01*
X-6222Y3209D01*
X-6186Y3246D01*
X-6166Y3293D01*
X-6166Y3345D01*
X-6166Y2731D01*
X-7937Y2731D01*
X-7937Y5459D01*
X-7937Y6298D01*
X-7957Y6346D01*
X-7994Y6382D01*
X-8041Y6402D01*
X-8093Y6402D01*
X-8557Y6402D01*
X-8590Y6370D01*
X-8590Y5947D01*
X-7970Y5947D01*
X-7937Y5979D01*
X-7937Y6298D01*
X-7937Y5459D01*
X-7937Y5778D01*
X-7970Y5810D01*
X-8590Y5810D01*
X-8590Y5387D01*
X-8557Y5355D01*
X-8093Y5355D01*
X-8041Y5355D01*
X-7994Y5375D01*
X-7957Y5411D01*
X-7937Y5459D01*
X-7937Y2731D01*
X-8233Y2731D01*
X-8233Y3994D01*
X-8297Y4151D01*
X-8417Y4270D01*
X-8573Y4335D01*
X-8726Y4335D01*
X-8726Y5387D01*
X-8726Y5810D01*
X-8726Y5947D01*
X-8726Y6370D01*
X-8759Y6402D01*
X-9223Y6402D01*
X-9274Y6402D01*
X-9322Y6382D01*
X-9359Y6346D01*
X-9379Y6298D01*
X-9378Y5979D01*
X-9346Y5947D01*
X-8726Y5947D01*
X-8726Y5810D01*
X-9346Y5810D01*
X-9378Y5778D01*
X-9379Y5459D01*
X-9359Y5411D01*
X-9322Y5375D01*
X-9274Y5355D01*
X-9223Y5355D01*
X-8759Y5355D01*
X-8726Y5387D01*
X-8726Y4335D01*
X-8742Y4335D01*
X-8899Y4271D01*
X-9018Y4151D01*
X-9083Y3995D01*
X-9083Y3826D01*
X-9019Y3669D01*
X-8899Y3550D01*
X-8743Y3485D01*
X-8574Y3485D01*
X-8417Y3549D01*
X-8298Y3669D01*
X-8233Y3825D01*
X-8233Y3994D01*
X-8233Y2731D01*
X-10103Y2731D01*
X-10103Y3345D01*
X-10103Y4526D01*
X-10122Y4574D01*
X-10159Y4611D01*
X-10201Y4628D01*
X-10201Y5884D01*
X-10266Y6040D01*
X-10385Y6160D01*
X-10541Y6225D01*
X-10711Y6225D01*
X-10867Y6161D01*
X-10987Y6041D01*
X-11052Y5885D01*
X-11052Y5716D01*
X-10987Y5559D01*
X-10868Y5439D01*
X-10711Y5375D01*
X-10542Y5374D01*
X-10386Y5439D01*
X-10266Y5559D01*
X-10201Y5715D01*
X-10201Y5884D01*
X-10201Y4628D01*
X-10207Y4631D01*
X-10258Y4631D01*
X-11046Y4631D01*
X-11094Y4611D01*
X-11130Y4574D01*
X-11150Y4527D01*
X-11150Y4475D01*
X-11150Y3294D01*
X-11130Y3246D01*
X-11094Y3209D01*
X-11046Y3189D01*
X-10994Y3189D01*
X-10207Y3189D01*
X-10159Y3209D01*
X-10123Y3246D01*
X-10103Y3293D01*
X-10103Y3345D01*
X-10103Y2731D01*
X-11595Y2731D01*
X-11595Y4581D01*
X-11657Y4730D01*
X-11771Y4844D01*
X-11920Y4906D01*
X-12081Y4906D01*
X-12230Y4844D01*
X-12344Y4730D01*
X-12405Y4581D01*
X-12406Y4420D01*
X-12344Y4271D01*
X-12230Y4157D01*
X-12081Y4096D01*
X-11920Y4096D01*
X-11771Y4157D01*
X-11657Y4271D01*
X-11596Y4420D01*
X-11595Y4581D01*
X-11595Y2731D01*
X-11658Y2731D01*
X-11771Y2844D01*
X-11920Y2906D01*
X-12081Y2906D01*
X-12230Y2844D01*
X-12344Y2730D01*
X-12405Y2581D01*
X-12406Y2420D01*
X-12344Y2271D01*
X-12230Y2157D01*
X-12081Y2096D01*
X-11920Y2096D01*
X-11771Y2157D01*
X-11658Y2271D01*
X-10899Y2271D01*
X-10987Y2183D01*
X-11052Y2026D01*
X-11052Y1857D01*
X-10987Y1701D01*
X-10868Y1581D01*
X-10711Y1516D01*
X-10542Y1516D01*
X-10386Y1581D01*
X-10266Y1700D01*
X-10201Y1857D01*
X-10201Y2026D01*
X-10266Y2182D01*
X-10354Y2271D01*
X-10107Y2271D01*
X-10107Y2250D01*
X-10107Y1581D01*
X-10087Y1533D01*
X-10051Y1497D01*
X-10003Y1477D01*
X-9951Y1477D01*
X-9872Y1477D01*
X-9872Y1422D01*
X-10003Y1422D01*
X-10050Y1402D01*
X-10087Y1366D01*
X-10107Y1318D01*
X-10107Y1266D01*
X-10107Y597D01*
X-10087Y549D01*
X-10051Y512D01*
X-10003Y493D01*
X-9951Y493D01*
X-9503Y493D01*
X-9341Y331D01*
X-12470Y331D01*
X-12470Y6771D01*
X1269Y6771D01*
X1269Y2468D01*
X1227Y2510D01*
X1227Y3310D01*
X1226Y3310D01*
X1227Y3310D01*
X1209Y3398D01*
X1159Y3472D01*
X1159Y3472D01*
X920Y3712D01*
X920Y4526D01*
X900Y4574D01*
X864Y4611D01*
X816Y4631D01*
X764Y4631D01*
X762Y4631D01*
X762Y5609D01*
X762Y6200D01*
X743Y6247D01*
X706Y6284D01*
X658Y6304D01*
X607Y6304D01*
X16Y6304D01*
X-31Y6284D01*
X-67Y6248D01*
X-87Y6200D01*
X-87Y6148D01*
X-87Y5558D01*
X-67Y5510D01*
X-31Y5473D01*
X16Y5453D01*
X68Y5453D01*
X658Y5453D01*
X706Y5473D01*
X743Y5510D01*
X762Y5557D01*
X762Y5609D01*
X762Y4631D01*
X-22Y4631D01*
X-70Y4611D01*
X-107Y4574D01*
X-126Y4527D01*
X-127Y4475D01*
X-127Y3294D01*
X-107Y3246D01*
X-70Y3209D01*
X-22Y3189D01*
X28Y3189D01*
X767Y3189D01*
X767Y2510D01*
X653Y2397D01*
X592Y2248D01*
X591Y2087D01*
X653Y1938D01*
X767Y1824D01*
X916Y1763D01*
X1077Y1762D01*
X1226Y1824D01*
X1269Y1867D01*
X1269Y1303D01*
X1228Y1344D01*
X1079Y1406D01*
X918Y1406D01*
X769Y1344D01*
X727Y1301D01*
X727Y1668D01*
X709Y1756D01*
X709Y1756D01*
X659Y1830D01*
X401Y2088D01*
X402Y2248D01*
X340Y2397D01*
X226Y2511D01*
X77Y2572D01*
X-83Y2573D01*
X-232Y2511D01*
X-346Y2397D01*
X-407Y2248D01*
X-408Y2087D01*
X-346Y1938D01*
X-232Y1824D01*
X-83Y1763D01*
X76Y1762D01*
X267Y1572D01*
X267Y1316D01*
X242Y1341D01*
X215Y1314D01*
X183Y1370D01*
X27Y1413D01*
X-132Y1392D01*
X-184Y1370D01*
X-217Y1314D01*
X0Y1097D01*
X4Y1103D01*
X101Y1006D01*
X95Y1001D01*
X101Y995D01*
X4Y898D01*
X0Y904D01*
X-97Y807D01*
X-97Y1001D01*
X-313Y1217D01*
X-370Y1185D01*
X-412Y1029D01*
X-392Y869D01*
X-370Y817D01*
X-313Y784D01*
X-97Y1001D01*
X-97Y807D01*
X-217Y688D01*
X-184Y631D01*
X-29Y589D01*
X130Y609D01*
X183Y631D01*
X215Y688D01*
X215Y688D01*
X242Y661D01*
X267Y685D01*
X267Y503D01*
X284Y415D01*
X334Y340D01*
X594Y80D01*
X593Y-79D01*
X655Y-228D01*
X769Y-341D01*
X769Y-593D01*
X698Y-593D01*
X650Y-613D01*
X613Y-650D01*
X594Y-697D01*
X594Y-749D01*
X594Y-1299D01*
X613Y-1347D01*
X650Y-1384D01*
X698Y-1403D01*
X749Y-1403D01*
X1269Y-1403D01*
X1269Y-3696D01*
X1228Y-3655D01*
X1079Y-3593D01*
X918Y-3593D01*
X769Y-3655D01*
X655Y-3769D01*
X594Y-3918D01*
X593Y-4079D01*
X655Y-4228D01*
X769Y-4342D01*
X918Y-4403D01*
X1079Y-4403D01*
X1228Y-4342D01*
X1269Y-4301D01*
X1269Y-4696D01*
X1228Y-4655D01*
X1079Y-4593D01*
X918Y-4593D01*
X769Y-4655D01*
X655Y-4769D01*
X594Y-4918D01*
X593Y-5079D01*
X655Y-5228D01*
X769Y-5342D01*
X918Y-5403D01*
X1079Y-5403D01*
X1228Y-5342D01*
X1269Y-5301D01*
X1269Y-5685D01*
X1242Y-5658D01*
X1215Y-5685D01*
X1183Y-5629D01*
X1027Y-5586D01*
X867Y-5607D01*
X815Y-5629D01*
X782Y-5685D01*
X999Y-5902D01*
X1004Y-5896D01*
X1101Y-5993D01*
X1095Y-5998D01*
X1101Y-6004D01*
X1004Y-6101D01*
X999Y-6095D01*
X902Y-6192D01*
X902Y-5998D01*
X686Y-5782D01*
X629Y-5814D01*
X587Y-5970D01*
X607Y-6130D01*
X629Y-6182D01*
X686Y-6215D01*
X902Y-5998D01*
X902Y-6192D01*
X782Y-6311D01*
X815Y-6368D01*
X970Y-6410D01*
X1130Y-6390D01*
X1183Y-6368D01*
X1215Y-6311D01*
X1215Y-6311D01*
X1242Y-6338D01*
X1269Y-6312D01*
X1269Y-6936D01*
X1215Y-6990D01*
X1193Y-7012D01*
X1193Y-6818D01*
X1161Y-6762D01*
X1005Y-6720D01*
X845Y-6740D01*
X792Y-6762D01*
X760Y-6818D01*
X977Y-7035D01*
X1193Y-6818D01*
X1193Y-7012D01*
X1073Y-7132D01*
X1269Y-7327D01*
X1269Y-7528D01*
G54D10*
G36*
X1267Y-12087D02*
X-659Y-12087D01*
X-659Y-11368D01*
X-1000Y-11028D01*
X-1340Y-11368D01*
X-1297Y-11443D01*
X-1105Y-11523D01*
X-896Y-11523D01*
X-704Y-11444D01*
X-702Y-11443D01*
X-659Y-11368D01*
X-659Y-12087D01*
X-2233Y-12087D01*
X-2233Y-11523D01*
X-1580Y-11523D01*
X-1532Y-11503D01*
X-1496Y-11467D01*
X-1476Y-11419D01*
X-1476Y-11367D01*
X-1476Y-11217D01*
X-1444Y-11295D01*
X-1443Y-11297D01*
X-1368Y-11340D01*
X-1028Y-11000D01*
X-1368Y-10659D01*
X-1443Y-10702D01*
X-1476Y-10782D01*
X-1476Y-10580D01*
X-1496Y-10532D01*
X-1532Y-10496D01*
X-1580Y-10476D01*
X-1632Y-10476D01*
X-2233Y-10476D01*
X-2233Y-9839D01*
X-2229Y-9843D01*
X-2080Y-9904D01*
X-1919Y-9905D01*
X-1770Y-9843D01*
X-1656Y-9729D01*
X-1595Y-9580D01*
X-1594Y-9419D01*
X-1656Y-9270D01*
X-1770Y-9156D01*
X-1919Y-9095D01*
X-2080Y-9094D01*
X-2229Y-9156D01*
X-2233Y-9160D01*
X-2233Y-8537D01*
X-2232Y-8537D01*
X-1682Y-8537D01*
X-1634Y-8517D01*
X-1597Y-8480D01*
X-1578Y-8432D01*
X-1577Y-8381D01*
X-1577Y-7831D01*
X-1597Y-7783D01*
X-1619Y-7762D01*
X-1149Y-7762D01*
X-1209Y-7786D01*
X-1237Y-7849D01*
X-983Y-8103D01*
X-728Y-7849D01*
X-756Y-7786D01*
X-817Y-7762D01*
X-386Y-7762D01*
X-408Y-7783D01*
X-427Y-7831D01*
X-428Y-7882D01*
X-428Y-8432D01*
X-408Y-8480D01*
X-371Y-8517D01*
X-323Y-8536D01*
X-272Y-8537D01*
X277Y-8537D01*
X325Y-8517D01*
X362Y-8480D01*
X381Y-8432D01*
X382Y-8381D01*
X382Y-7831D01*
X362Y-7783D01*
X340Y-7762D01*
X810Y-7762D01*
X750Y-7786D01*
X722Y-7849D01*
X977Y-8103D01*
X982Y-8098D01*
X1010Y-8126D01*
X1005Y-8132D01*
X1010Y-8137D01*
X982Y-8165D01*
X977Y-8160D01*
X948Y-8188D01*
X948Y-8132D01*
X694Y-7877D01*
X631Y-7905D01*
X571Y-8055D01*
X572Y-8216D01*
X631Y-8358D01*
X694Y-8386D01*
X948Y-8132D01*
X948Y-8188D01*
X722Y-8414D01*
X750Y-8477D01*
X900Y-8537D01*
X1061Y-8536D01*
X1203Y-8477D01*
X1231Y-8414D01*
X1231Y-8414D01*
X1254Y-8437D01*
X1267Y-8425D01*
X1267Y-9204D01*
X1254Y-9217D01*
X1231Y-9166D01*
X1226Y-9154D01*
X1076Y-9094D01*
X915Y-9095D01*
X773Y-9154D01*
X745Y-9217D01*
X1000Y-9471D01*
X1005Y-9466D01*
X1033Y-9494D01*
X1028Y-9500D01*
X1033Y-9505D01*
X1005Y-9533D01*
X1000Y-9528D01*
X971Y-9556D01*
X971Y-9500D01*
X717Y-9245D01*
X654Y-9273D01*
X594Y-9423D01*
X595Y-9584D01*
X654Y-9726D01*
X717Y-9754D01*
X971Y-9500D01*
X971Y-9556D01*
X745Y-9782D01*
X773Y-9845D01*
X923Y-9905D01*
X1084Y-9904D01*
X1226Y-9845D01*
X1254Y-9782D01*
X1254Y-9782D01*
X1267Y-9795D01*
X1267Y-10544D01*
X1254Y-10538D01*
X1105Y-10476D01*
X896Y-10476D01*
X704Y-10555D01*
X702Y-10556D01*
X659Y-10631D01*
X1000Y-10971D01*
X1005Y-10966D01*
X1033Y-10994D01*
X1028Y-11000D01*
X1033Y-11005D01*
X1005Y-11033D01*
X1000Y-11028D01*
X971Y-11056D01*
X971Y-11000D01*
X631Y-10659D01*
X556Y-10702D01*
X523Y-10782D01*
X523Y-10580D01*
X503Y-10532D01*
X467Y-10496D01*
X419Y-10476D01*
X405Y-10476D01*
X405Y-9419D01*
X343Y-9270D01*
X229Y-9156D01*
X80Y-9095D01*
X-80Y-9094D01*
X-229Y-9156D01*
X-343Y-9270D01*
X-404Y-9419D01*
X-405Y-9580D01*
X-343Y-9729D01*
X-229Y-9843D01*
X-80Y-9904D01*
X80Y-9905D01*
X229Y-9843D01*
X343Y-9729D01*
X404Y-9580D01*
X405Y-9419D01*
X405Y-10476D01*
X367Y-10476D01*
X-419Y-10476D01*
X-467Y-10496D01*
X-503Y-10532D01*
X-523Y-10580D01*
X-523Y-10632D01*
X-523Y-10782D01*
X-555Y-10704D01*
X-556Y-10702D01*
X-577Y-10690D01*
X-577Y-8208D01*
X-578Y-8047D01*
X-637Y-7905D01*
X-700Y-7877D01*
X-954Y-8132D01*
X-700Y-8386D01*
X-637Y-8358D01*
X-577Y-8208D01*
X-577Y-10690D01*
X-594Y-10681D01*
X-594Y-9576D01*
X-595Y-9415D01*
X-654Y-9273D01*
X-717Y-9245D01*
X-728Y-9256D01*
X-728Y-8414D01*
X-983Y-8160D01*
X-1011Y-8188D01*
X-1011Y-8132D01*
X-1265Y-7877D01*
X-1328Y-7905D01*
X-1388Y-8055D01*
X-1387Y-8216D01*
X-1328Y-8358D01*
X-1265Y-8386D01*
X-1011Y-8132D01*
X-1011Y-8188D01*
X-1237Y-8414D01*
X-1209Y-8477D01*
X-1059Y-8537D01*
X-898Y-8536D01*
X-756Y-8477D01*
X-728Y-8414D01*
X-728Y-9256D01*
X-745Y-9273D01*
X-745Y-9217D01*
X-773Y-9154D01*
X-923Y-9094D01*
X-1084Y-9095D01*
X-1226Y-9154D01*
X-1254Y-9217D01*
X-1000Y-9471D01*
X-745Y-9217D01*
X-745Y-9273D01*
X-971Y-9500D01*
X-717Y-9754D01*
X-654Y-9726D01*
X-594Y-9576D01*
X-594Y-10681D01*
X-631Y-10659D01*
X-659Y-10688D01*
X-659Y-10631D01*
X-702Y-10556D01*
X-745Y-10538D01*
X-745Y-9782D01*
X-1000Y-9528D01*
X-1028Y-9556D01*
X-1028Y-9500D01*
X-1282Y-9245D01*
X-1345Y-9273D01*
X-1405Y-9423D01*
X-1404Y-9584D01*
X-1345Y-9726D01*
X-1282Y-9754D01*
X-1028Y-9500D01*
X-1028Y-9556D01*
X-1254Y-9782D01*
X-1226Y-9845D01*
X-1076Y-9905D01*
X-915Y-9904D01*
X-773Y-9845D01*
X-745Y-9782D01*
X-745Y-10538D01*
X-894Y-10476D01*
X-1103Y-10476D01*
X-1295Y-10555D01*
X-1297Y-10556D01*
X-1340Y-10631D01*
X-1000Y-10971D01*
X-659Y-10631D01*
X-659Y-10688D01*
X-971Y-11000D01*
X-631Y-11340D01*
X-556Y-11297D01*
X-523Y-11217D01*
X-523Y-11419D01*
X-503Y-11467D01*
X-467Y-11503D01*
X-419Y-11523D01*
X-367Y-11523D01*
X419Y-11523D01*
X467Y-11503D01*
X503Y-11467D01*
X523Y-11419D01*
X523Y-11367D01*
X523Y-11217D01*
X555Y-11295D01*
X556Y-11297D01*
X631Y-11340D01*
X971Y-11000D01*
X971Y-11056D01*
X659Y-11368D01*
X702Y-11443D01*
X894Y-11523D01*
X1103Y-11523D01*
X1267Y-11456D01*
X1267Y-12087D01*
X1267Y-12087D01*
G37*
G54D26*
X1267Y-12087D02*
X-659Y-12087D01*
X-659Y-11368D01*
X-1000Y-11028D01*
X-1340Y-11368D01*
X-1297Y-11443D01*
X-1105Y-11523D01*
X-896Y-11523D01*
X-704Y-11444D01*
X-702Y-11443D01*
X-659Y-11368D01*
X-659Y-12087D01*
X-2233Y-12087D01*
X-2233Y-11523D01*
X-1580Y-11523D01*
X-1532Y-11503D01*
X-1496Y-11467D01*
X-1476Y-11419D01*
X-1476Y-11367D01*
X-1476Y-11217D01*
X-1444Y-11295D01*
X-1443Y-11297D01*
X-1368Y-11340D01*
X-1028Y-11000D01*
X-1368Y-10659D01*
X-1443Y-10702D01*
X-1476Y-10782D01*
X-1476Y-10580D01*
X-1496Y-10532D01*
X-1532Y-10496D01*
X-1580Y-10476D01*
X-1632Y-10476D01*
X-2233Y-10476D01*
X-2233Y-9839D01*
X-2229Y-9843D01*
X-2080Y-9904D01*
X-1919Y-9905D01*
X-1770Y-9843D01*
X-1656Y-9729D01*
X-1595Y-9580D01*
X-1594Y-9419D01*
X-1656Y-9270D01*
X-1770Y-9156D01*
X-1919Y-9095D01*
X-2080Y-9094D01*
X-2229Y-9156D01*
X-2233Y-9160D01*
X-2233Y-8537D01*
X-2232Y-8537D01*
X-1682Y-8537D01*
X-1634Y-8517D01*
X-1597Y-8480D01*
X-1578Y-8432D01*
X-1577Y-8381D01*
X-1577Y-7831D01*
X-1597Y-7783D01*
X-1619Y-7762D01*
X-1149Y-7762D01*
X-1209Y-7786D01*
X-1237Y-7849D01*
X-983Y-8103D01*
X-728Y-7849D01*
X-756Y-7786D01*
X-817Y-7762D01*
X-386Y-7762D01*
X-408Y-7783D01*
X-427Y-7831D01*
X-428Y-7882D01*
X-428Y-8432D01*
X-408Y-8480D01*
X-371Y-8517D01*
X-323Y-8536D01*
X-272Y-8537D01*
X277Y-8537D01*
X325Y-8517D01*
X362Y-8480D01*
X381Y-8432D01*
X382Y-8381D01*
X382Y-7831D01*
X362Y-7783D01*
X340Y-7762D01*
X810Y-7762D01*
X750Y-7786D01*
X722Y-7849D01*
X977Y-8103D01*
X982Y-8098D01*
X1010Y-8126D01*
X1005Y-8132D01*
X1010Y-8137D01*
X982Y-8165D01*
X977Y-8160D01*
X948Y-8188D01*
X948Y-8132D01*
X694Y-7877D01*
X631Y-7905D01*
X571Y-8055D01*
X572Y-8216D01*
X631Y-8358D01*
X694Y-8386D01*
X948Y-8132D01*
X948Y-8188D01*
X722Y-8414D01*
X750Y-8477D01*
X900Y-8537D01*
X1061Y-8536D01*
X1203Y-8477D01*
X1231Y-8414D01*
X1231Y-8414D01*
X1254Y-8437D01*
X1267Y-8425D01*
X1267Y-9204D01*
X1254Y-9217D01*
X1231Y-9166D01*
X1226Y-9154D01*
X1076Y-9094D01*
X915Y-9095D01*
X773Y-9154D01*
X745Y-9217D01*
X1000Y-9471D01*
X1005Y-9466D01*
X1033Y-9494D01*
X1028Y-9500D01*
X1033Y-9505D01*
X1005Y-9533D01*
X1000Y-9528D01*
X971Y-9556D01*
X971Y-9500D01*
X717Y-9245D01*
X654Y-9273D01*
X594Y-9423D01*
X595Y-9584D01*
X654Y-9726D01*
X717Y-9754D01*
X971Y-9500D01*
X971Y-9556D01*
X745Y-9782D01*
X773Y-9845D01*
X923Y-9905D01*
X1084Y-9904D01*
X1226Y-9845D01*
X1254Y-9782D01*
X1254Y-9782D01*
X1267Y-9795D01*
X1267Y-10544D01*
X1254Y-10538D01*
X1105Y-10476D01*
X896Y-10476D01*
X704Y-10555D01*
X702Y-10556D01*
X659Y-10631D01*
X1000Y-10971D01*
X1005Y-10966D01*
X1033Y-10994D01*
X1028Y-11000D01*
X1033Y-11005D01*
X1005Y-11033D01*
X1000Y-11028D01*
X971Y-11056D01*
X971Y-11000D01*
X631Y-10659D01*
X556Y-10702D01*
X523Y-10782D01*
X523Y-10580D01*
X503Y-10532D01*
X467Y-10496D01*
X419Y-10476D01*
X405Y-10476D01*
X405Y-9419D01*
X343Y-9270D01*
X229Y-9156D01*
X80Y-9095D01*
X-80Y-9094D01*
X-229Y-9156D01*
X-343Y-9270D01*
X-404Y-9419D01*
X-405Y-9580D01*
X-343Y-9729D01*
X-229Y-9843D01*
X-80Y-9904D01*
X80Y-9905D01*
X229Y-9843D01*
X343Y-9729D01*
X404Y-9580D01*
X405Y-9419D01*
X405Y-10476D01*
X367Y-10476D01*
X-419Y-10476D01*
X-467Y-10496D01*
X-503Y-10532D01*
X-523Y-10580D01*
X-523Y-10632D01*
X-523Y-10782D01*
X-555Y-10704D01*
X-556Y-10702D01*
X-577Y-10690D01*
X-577Y-8208D01*
X-578Y-8047D01*
X-637Y-7905D01*
X-700Y-7877D01*
X-954Y-8132D01*
X-700Y-8386D01*
X-637Y-8358D01*
X-577Y-8208D01*
X-577Y-10690D01*
X-594Y-10681D01*
X-594Y-9576D01*
X-595Y-9415D01*
X-654Y-9273D01*
X-717Y-9245D01*
X-728Y-9256D01*
X-728Y-8414D01*
X-983Y-8160D01*
X-1011Y-8188D01*
X-1011Y-8132D01*
X-1265Y-7877D01*
X-1328Y-7905D01*
X-1388Y-8055D01*
X-1387Y-8216D01*
X-1328Y-8358D01*
X-1265Y-8386D01*
X-1011Y-8132D01*
X-1011Y-8188D01*
X-1237Y-8414D01*
X-1209Y-8477D01*
X-1059Y-8537D01*
X-898Y-8536D01*
X-756Y-8477D01*
X-728Y-8414D01*
X-728Y-9256D01*
X-745Y-9273D01*
X-745Y-9217D01*
X-773Y-9154D01*
X-923Y-9094D01*
X-1084Y-9095D01*
X-1226Y-9154D01*
X-1254Y-9217D01*
X-1000Y-9471D01*
X-745Y-9217D01*
X-745Y-9273D01*
X-971Y-9500D01*
X-717Y-9754D01*
X-654Y-9726D01*
X-594Y-9576D01*
X-594Y-10681D01*
X-631Y-10659D01*
X-659Y-10688D01*
X-659Y-10631D01*
X-702Y-10556D01*
X-745Y-10538D01*
X-745Y-9782D01*
X-1000Y-9528D01*
X-1028Y-9556D01*
X-1028Y-9500D01*
X-1282Y-9245D01*
X-1345Y-9273D01*
X-1405Y-9423D01*
X-1404Y-9584D01*
X-1345Y-9726D01*
X-1282Y-9754D01*
X-1028Y-9500D01*
X-1028Y-9556D01*
X-1254Y-9782D01*
X-1226Y-9845D01*
X-1076Y-9905D01*
X-915Y-9904D01*
X-773Y-9845D01*
X-745Y-9782D01*
X-745Y-10538D01*
X-894Y-10476D01*
X-1103Y-10476D01*
X-1295Y-10555D01*
X-1297Y-10556D01*
X-1340Y-10631D01*
X-1000Y-10971D01*
X-659Y-10631D01*
X-659Y-10688D01*
X-971Y-11000D01*
X-631Y-11340D01*
X-556Y-11297D01*
X-523Y-11217D01*
X-523Y-11419D01*
X-503Y-11467D01*
X-467Y-11503D01*
X-419Y-11523D01*
X-367Y-11523D01*
X419Y-11523D01*
X467Y-11503D01*
X503Y-11467D01*
X523Y-11419D01*
X523Y-11367D01*
X523Y-11217D01*
X555Y-11295D01*
X556Y-11297D01*
X631Y-11340D01*
X971Y-11000D01*
X971Y-11056D01*
X659Y-11368D01*
X702Y-11443D01*
X894Y-11523D01*
X1103Y-11523D01*
X1267Y-11456D01*
X1267Y-12087D01*
M02*
