M48
;DRILL file {kicad (after 2015-mar-04 BZR unknown)-product} date 13/11/2015 0:45:18
;FORMAT={-:-/ absolute / metric / decimal}
FMAT,2
METRIC,TZ
T1C0.700
T2C0.750
T3C0.800
T4C0.813
T5C1.000
T6C1.016
T7C1.200
T8C1.500
T9C1.600
%
G90
G05
M71
T1
X235.204Y-141.224
X235.204Y-143.724
T3
X235.204Y-146.304
X235.204Y-153.924
X237.744Y-146.304
X237.744Y-153.924
X240.284Y-146.304
X240.284Y-153.924
X242.824Y-146.304
X242.824Y-153.924
T4
X235.204Y-138.176
X235.204Y-156.464
X235.204Y-159.004
X236.006Y-171.958
X236.982Y-161.798
X236.982Y-164.338
X236.982Y-166.878
X237.744Y-138.176
X237.744Y-141.224
X237.744Y-143.764
X237.744Y-156.464
X237.744Y-159.004
X238.506Y-171.958
X239.816Y-168.148
X240.03Y-161.798
X240.03Y-164.338
X240.284Y-138.176
X240.284Y-141.224
X240.284Y-143.764
X240.284Y-156.464
X240.284Y-159.004
X242.316Y-168.148
X242.57Y-161.798
X242.57Y-164.338
X242.824Y-138.176
X242.824Y-141.224
X242.824Y-143.764
X242.824Y-156.464
X242.824Y-158.964
T5
X215.844Y-138.81
X215.844Y-141.31
X218.344Y-138.81
X218.344Y-141.31
X220.844Y-138.81
X220.844Y-141.31
T6
X226.26Y-137.9
X228.8Y-137.9
T7
X210.058Y-129.112
X210.058Y-134.112
X227.33Y-129.286
X227.33Y-134.286
T8
X213.344Y-129.01
X213.344Y-138.81
X218.344Y-133.81
X223.344Y-128.81
X223.344Y-138.81
X231.124Y-128.798
X236.124Y-133.798
X241.124Y-128.798
T9
X226.314Y-140.716
X228.854Y-140.716
T2
X230.974Y-133.423G85X230.974Y-134.173
G05
X236.499Y-128.798G85X235.749Y-128.798
G05
X241.274Y-133.423G85X241.274Y-134.173
G05
T5
X213.344Y-133.31G85X213.344Y-134.31
G05
X218.844Y-128.81G85X217.844Y-128.81
G05
X223.344Y-133.31G85X223.344Y-134.31
G05
T0
M30
