M48
;DRILL file {Pcbnew (2013-jul-07)-stable} date dom 15 mar 2015 21:02:15 CET
;FORMAT={-:-/ absolute / metric / decimal}
FMAT,2
METRIC,TZ
T1C0.635
T2C0.750
T3C0.800
T4C0.813
T5C1.000
T6C1.016
T7C1.500
%
G90
G05
M71
T1
X-11.133Y11.45
T3
X-5.08Y-27.94
X-2.54Y-27.94
X0.Y-27.94
X2.54Y-27.94
T4
X-30.482Y11.433
X-30.482Y6.353
X-14.522Y15.543
X-12.702Y11.433
X-12.702Y6.353
X-11.982Y15.543
X-8.892Y5.083
X-8.892Y2.543
X-5.088Y5.507
X-5.082Y2.543
X-5.082Y0.003
X-5.082Y-2.537
X-5.082Y-10.157
X-5.082Y-12.697
X-5.082Y-15.237
X-5.08Y-24.13
X-5.037Y-20.655
X-2.548Y5.507
X-2.542Y2.543
X-2.542Y0.003
X-2.542Y-2.537
X-2.542Y-10.157
X-2.542Y-12.697
X-2.542Y-15.237
X-2.54Y-24.13
X-2.497Y-18.115
X-2.497Y-20.655
X-0.058Y-20.655
X-0.008Y5.507
X-0.002Y2.543
X-0.002Y0.003
X-0.002Y-2.537
X-0.002Y-10.157
X-0.002Y-12.697
X-0.002Y-15.237
X0.Y-24.13
X2.482Y-18.115
X2.482Y-20.655
X2.532Y5.507
X2.538Y2.543
X2.538Y0.003
X2.538Y-2.537
X2.538Y-10.157
X2.538Y-12.697
X2.538Y-15.237
X2.54Y-24.13
T5
X-24.492Y4.933
X-24.492Y2.433
X-21.992Y4.933
X-21.992Y2.433
X-19.492Y4.933
X-19.492Y2.433
T6
X-14.384Y2.306
X-11.844Y2.306
T7
X-26.992Y14.733
X-26.992Y4.933
X-21.992Y9.933
X-16.992Y14.933
X-16.992Y4.933
X-9.142Y14.933
X-4.142Y9.933
X0.858Y14.933
T2
X-9.292Y10.308G85X-9.292Y9.558
G05
X-3.767Y14.933G85X-4.517Y14.933
G05
X1.008Y10.308G85X1.008Y9.558
G05
T5
X-26.992Y10.433G85X-26.992Y9.433
G05
X-21.492Y14.933G85X-22.492Y14.933
G05
X-16.992Y10.433G85X-16.992Y9.433
G05
T0
M30
