G04 #@! TF.FileFunction,Legend,Top*
%FSLAX46Y46*%
G04 Gerber Fmt 4.6, Leading zero omitted, Abs format (unit mm)*
G04 Created by KiCad (PCBNEW (after 2015-mar-04 BZR unknown)-product) date 13/11/2015 0:44:19*
%MOMM*%
G01*
G04 APERTURE LIST*
%ADD10C,0.160000*%
%ADD11C,0.150000*%
%ADD12C,0.254000*%
%ADD13C,1.397000*%
%ADD14R,1.700000X1.700000*%
%ADD15R,2.000000X3.000000*%
%ADD16R,3.000000X2.000000*%
%ADD17C,1.500000*%
%ADD18R,2.032000X2.032000*%
%ADD19O,2.032000X2.032000*%
%ADD20O,1.397000X1.800000*%
%ADD21O,1.400000X1.800000*%
%ADD22O,2.600000X1.800000*%
%ADD23O,1.400000X2.300000*%
%ADD24C,1.600000*%
G04 APERTURE END LIST*
D10*
D11*
X236454000Y-140474000D02*
X236454000Y-144474000D01*
X233954000Y-140474000D02*
X233954000Y-144474000D01*
X224344000Y-126010000D02*
X224344000Y-125810000D01*
X212344000Y-126010000D02*
X212344000Y-125810000D01*
X212344000Y-136410000D02*
X224344000Y-136410000D01*
X212344000Y-143510000D02*
X224344000Y-143510000D01*
X224344000Y-143510000D02*
X224344000Y-126010000D01*
X224344000Y-125810000D02*
X212344000Y-125810000D01*
X212344000Y-143510000D02*
X212344000Y-126510000D01*
X212344000Y-126510000D02*
X212344000Y-126010000D01*
X242124000Y-125998000D02*
X242124000Y-125798000D01*
X230124000Y-125998000D02*
X230124000Y-125798000D01*
X242124000Y-125998000D02*
X242124000Y-136398000D01*
X230124000Y-136398000D02*
X230124000Y-125998000D01*
X230124000Y-136398000D02*
X242124000Y-136398000D01*
X242124000Y-125798000D02*
X230124000Y-125798000D01*
X227530000Y-139170000D02*
X224990000Y-139170000D01*
X230350000Y-139450000D02*
X228800000Y-139450000D01*
X227530000Y-139170000D02*
X227530000Y-136630000D01*
X228800000Y-136350000D02*
X230350000Y-136350000D01*
X230350000Y-136350000D02*
X230350000Y-139450000D01*
X227530000Y-136630000D02*
X224990000Y-136630000D01*
X224990000Y-136630000D02*
X224990000Y-139170000D01*
X235204000Y-159004000D02*
X235204000Y-156464000D01*
X236623903Y-159004000D02*
G75*
G03X236623903Y-159004000I-1419903J0D01*
G01*
X240284000Y-141224000D02*
X240284000Y-143764000D01*
X241703903Y-141224000D02*
G75*
G03X241703903Y-141224000I-1419903J0D01*
G01*
X237744000Y-159004000D02*
X237744000Y-156464000D01*
X239163903Y-159004000D02*
G75*
G03X239163903Y-159004000I-1419903J0D01*
G01*
X242824000Y-141224000D02*
X242824000Y-143764000D01*
X244243903Y-141224000D02*
G75*
G03X244243903Y-141224000I-1419903J0D01*
G01*
X240284000Y-159004000D02*
X240284000Y-156464000D01*
X241703903Y-159004000D02*
G75*
G03X241703903Y-159004000I-1419903J0D01*
G01*
X242570000Y-161798000D02*
X242570000Y-164338000D01*
X243989903Y-161798000D02*
G75*
G03X243989903Y-161798000I-1419903J0D01*
G01*
X240030000Y-161798000D02*
X240030000Y-164338000D01*
X241449903Y-161798000D02*
G75*
G03X241449903Y-161798000I-1419903J0D01*
G01*
X235204000Y-138176000D02*
X237744000Y-138176000D01*
X236623903Y-138176000D02*
G75*
G03X236623903Y-138176000I-1419903J0D01*
G01*
X242824000Y-138176000D02*
X240284000Y-138176000D01*
X244243903Y-138176000D02*
G75*
G03X244243903Y-138176000I-1419903J0D01*
G01*
X244074000Y-155714000D02*
X244074000Y-159714000D01*
X241574000Y-155714000D02*
X241574000Y-159714000D01*
X237181000Y-174457000D02*
X237181000Y-169459000D01*
X237041000Y-174449000D02*
X237041000Y-169467000D01*
X236901000Y-174433000D02*
X236901000Y-172053000D01*
X236901000Y-171863000D02*
X236901000Y-169483000D01*
X236761000Y-174409000D02*
X236761000Y-172448000D01*
X236761000Y-171468000D02*
X236761000Y-169507000D01*
X236621000Y-174376000D02*
X236621000Y-172615000D01*
X236621000Y-171301000D02*
X236621000Y-169540000D01*
X236481000Y-174335000D02*
X236481000Y-172722000D01*
X236481000Y-171194000D02*
X236481000Y-169581000D01*
X236341000Y-174285000D02*
X236341000Y-172793000D01*
X236341000Y-171123000D02*
X236341000Y-169631000D01*
X236201000Y-174224000D02*
X236201000Y-172837000D01*
X236201000Y-171079000D02*
X236201000Y-169692000D01*
X236061000Y-174154000D02*
X236061000Y-172856000D01*
X236061000Y-171060000D02*
X236061000Y-169762000D01*
X235921000Y-174072000D02*
X235921000Y-172854000D01*
X235921000Y-171062000D02*
X235921000Y-169844000D01*
X235781000Y-173977000D02*
X235781000Y-172829000D01*
X235781000Y-171087000D02*
X235781000Y-169939000D01*
X235641000Y-173866000D02*
X235641000Y-172781000D01*
X235641000Y-171135000D02*
X235641000Y-170050000D01*
X235501000Y-173738000D02*
X235501000Y-172703000D01*
X235501000Y-171213000D02*
X235501000Y-170178000D01*
X235361000Y-173589000D02*
X235361000Y-172586000D01*
X235361000Y-171330000D02*
X235361000Y-170327000D01*
X235221000Y-173410000D02*
X235221000Y-172398000D01*
X235221000Y-171518000D02*
X235221000Y-170506000D01*
X235081000Y-173191000D02*
X235081000Y-170725000D01*
X234941000Y-172902000D02*
X234941000Y-171014000D01*
X234801000Y-172430000D02*
X234801000Y-171486000D01*
X236906000Y-171958000D02*
G75*
G03X236906000Y-171958000I-900000J0D01*
G01*
X239793500Y-171958000D02*
G75*
G03X239793500Y-171958000I-2537500J0D01*
G01*
X240991000Y-170647000D02*
X240991000Y-165649000D01*
X240851000Y-170639000D02*
X240851000Y-165657000D01*
X240711000Y-170623000D02*
X240711000Y-168243000D01*
X240711000Y-168053000D02*
X240711000Y-165673000D01*
X240571000Y-170599000D02*
X240571000Y-168638000D01*
X240571000Y-167658000D02*
X240571000Y-165697000D01*
X240431000Y-170566000D02*
X240431000Y-168805000D01*
X240431000Y-167491000D02*
X240431000Y-165730000D01*
X240291000Y-170525000D02*
X240291000Y-168912000D01*
X240291000Y-167384000D02*
X240291000Y-165771000D01*
X240151000Y-170475000D02*
X240151000Y-168983000D01*
X240151000Y-167313000D02*
X240151000Y-165821000D01*
X240011000Y-170414000D02*
X240011000Y-169027000D01*
X240011000Y-167269000D02*
X240011000Y-165882000D01*
X239871000Y-170344000D02*
X239871000Y-169046000D01*
X239871000Y-167250000D02*
X239871000Y-165952000D01*
X239731000Y-170262000D02*
X239731000Y-169044000D01*
X239731000Y-167252000D02*
X239731000Y-166034000D01*
X239591000Y-170167000D02*
X239591000Y-169019000D01*
X239591000Y-167277000D02*
X239591000Y-166129000D01*
X239451000Y-170056000D02*
X239451000Y-168971000D01*
X239451000Y-167325000D02*
X239451000Y-166240000D01*
X239311000Y-169928000D02*
X239311000Y-168893000D01*
X239311000Y-167403000D02*
X239311000Y-166368000D01*
X239171000Y-169779000D02*
X239171000Y-168776000D01*
X239171000Y-167520000D02*
X239171000Y-166517000D01*
X239031000Y-169600000D02*
X239031000Y-168588000D01*
X239031000Y-167708000D02*
X239031000Y-166696000D01*
X238891000Y-169381000D02*
X238891000Y-166915000D01*
X238751000Y-169092000D02*
X238751000Y-167204000D01*
X238611000Y-168620000D02*
X238611000Y-167676000D01*
X240716000Y-168148000D02*
G75*
G03X240716000Y-168148000I-900000J0D01*
G01*
X243603500Y-168148000D02*
G75*
G03X243603500Y-168148000I-2537500J0D01*
G01*
X237744000Y-141224000D02*
X237744000Y-143764000D01*
X239163903Y-141224000D02*
G75*
G03X239163903Y-141224000I-1419903J0D01*
G01*
X228580000Y-128286000D02*
X228580000Y-135286000D01*
X228580000Y-135286000D02*
X226080000Y-135286000D01*
X226080000Y-135286000D02*
X226080000Y-128286000D01*
X226080000Y-128286000D02*
X228580000Y-128286000D01*
X208808000Y-135112000D02*
X208808000Y-128112000D01*
X208808000Y-128112000D02*
X211308000Y-128112000D01*
X211308000Y-128112000D02*
X211308000Y-135112000D01*
X211308000Y-135112000D02*
X208808000Y-135112000D01*
D12*
X242316000Y-148844000D02*
X242824000Y-149352000D01*
X242824000Y-149352000D02*
X243332000Y-148844000D01*
X243332000Y-148844000D02*
X242824000Y-148336000D01*
X243332000Y-148844000D02*
X242316000Y-148844000D01*
X242316000Y-148844000D02*
X242824000Y-148336000D01*
X242824000Y-148336000D02*
X242824000Y-149352000D01*
X244094000Y-145288000D02*
X244856000Y-145288000D01*
X244856000Y-145288000D02*
X244856000Y-146304000D01*
X244856000Y-146304000D02*
X244348000Y-146304000D01*
X244348000Y-146304000D02*
X244348000Y-147828000D01*
X244094000Y-153670000D02*
X244602000Y-153670000D01*
X244094000Y-146304000D02*
X244602000Y-146304000D01*
X244602000Y-146304000D02*
X244602000Y-153924000D01*
X244602000Y-153924000D02*
X244094000Y-153924000D01*
X244094000Y-153924000D02*
X244094000Y-146304000D01*
X244094000Y-146304000D02*
X244348000Y-146558000D01*
X244348000Y-146558000D02*
X244348000Y-153670000D01*
X244348000Y-153670000D02*
X244602000Y-146304000D01*
X244602000Y-146304000D02*
X244348000Y-146812000D01*
X244348000Y-146812000D02*
X244348000Y-148844000D01*
X244094000Y-145288000D02*
X244094000Y-146812000D01*
D11*
X237978990Y-166525695D02*
G75*
G03X238682000Y-166038000I-996990J2187695D01*
G01*
X237978990Y-162150305D02*
G75*
G02X238682000Y-162638000I-996990J-2187695D01*
G01*
X238682000Y-166038000D02*
X238682000Y-162638000D01*
X235988873Y-166522879D02*
G75*
G02X234582000Y-164338000I993127J2184879D01*
G01*
X235988873Y-162153121D02*
G75*
G03X234582000Y-164338000I993127J-2184879D01*
G01*
X228854000Y-141732000D02*
X226314000Y-141732000D01*
X228854000Y-139700000D02*
X226314000Y-139700000D01*
X228854000Y-141732000D02*
G75*
G03X229870000Y-140716000I0J1016000D01*
G01*
X229870000Y-140716000D02*
G75*
G03X228854000Y-139700000I-1016000J0D01*
G01*
X225298000Y-140716000D02*
G75*
G03X226314000Y-141732000I1016000J0D01*
G01*
X226314000Y-139700000D02*
G75*
G03X225298000Y-140716000I0J-1016000D01*
G01*
%LPC*%
D13*
X235204000Y-141224000D03*
X235204000Y-143724000D03*
D14*
X215844000Y-141310000D03*
X215844000Y-138810000D03*
X218344000Y-141310000D03*
X218344000Y-138810000D03*
X220844000Y-138810000D03*
X220844000Y-141310000D03*
D15*
X213344000Y-133810000D03*
X223344000Y-133810000D03*
D16*
X218344000Y-128810000D03*
D17*
X218344000Y-133810000D03*
X223344000Y-128810000D03*
X213344000Y-129010000D03*
X213344000Y-138810000D03*
X223344000Y-138810000D03*
D15*
X230974000Y-133798000D03*
X241274000Y-133798000D03*
D16*
X236124000Y-128798000D03*
D17*
X241124000Y-128798000D03*
X231124000Y-128798000D03*
X236124000Y-133798000D03*
D18*
X228800000Y-137900000D03*
D19*
X226260000Y-137900000D03*
D20*
X235204000Y-159004000D03*
X235204000Y-156464000D03*
X240284000Y-141224000D03*
X240284000Y-143764000D03*
X237744000Y-159004000D03*
X237744000Y-156464000D03*
X242824000Y-141224000D03*
X242824000Y-143764000D03*
X240284000Y-159004000D03*
X240284000Y-156464000D03*
X242570000Y-161798000D03*
X242570000Y-164338000D03*
X240030000Y-161798000D03*
X240030000Y-164338000D03*
D21*
X235204000Y-138176000D03*
X237744000Y-138176000D03*
X242824000Y-138176000D03*
X240284000Y-138176000D03*
D20*
X242824000Y-156464000D03*
X242824000Y-158964000D03*
D21*
X238506000Y-171958000D03*
X236006000Y-171958000D03*
X242316000Y-168148000D03*
X239816000Y-168148000D03*
D20*
X237744000Y-141224000D03*
X237744000Y-143764000D03*
D22*
X227330000Y-129286000D03*
X227330000Y-134286000D03*
X210058000Y-134112000D03*
X210058000Y-129112000D03*
D23*
X242824000Y-146804000D03*
X240284000Y-146804000D03*
X237744000Y-146804000D03*
X235204000Y-146804000D03*
X235204000Y-153424000D03*
X237744000Y-153424000D03*
X240284000Y-153424000D03*
X242824000Y-153424000D03*
D20*
X236982000Y-164338000D03*
X236982000Y-161798000D03*
X236982000Y-166878000D03*
D24*
X226314000Y-140716000D03*
X228854000Y-140716000D03*
M02*
