G04 (created by PCBNEW (2013-jul-07)-stable) date dom 15 mar 2015 21:02:07 CET*
%MOIN*%
G04 Gerber Fmt 3.4, Leading zero omitted, Abs format*
%FSLAX34Y34*%
G01*
G70*
G90*
G04 APERTURE LIST*
%ADD10C,0.00629921*%
%ADD11C,0.00393701*%
%ADD12C,0.012*%
%ADD13C,0.01*%
%ADD14C,0.006*%
%ADD15C,0.015*%
%ADD16C,0.00590551*%
G04 APERTURE END LIST*
G54D10*
G54D11*
X1502Y-12087D02*
X1502Y6778D01*
X-2238Y-12287D02*
X1302Y-12287D01*
X-2443Y108D02*
X-2638Y108D01*
X-2443Y-357D02*
X-2443Y108D01*
X-2443Y-12087D02*
X-2443Y-357D01*
X-12701Y6786D02*
X-12701Y306D01*
X-12501Y6986D02*
X1298Y6986D01*
X-12501Y6986D02*
G75*
G03X-12701Y6786I0J-200D01*
G74*
G01*
X-12441Y106D02*
X-12501Y106D01*
X-12701Y306D02*
G75*
G03X-12501Y106I200J0D01*
G74*
G01*
X-12441Y106D02*
X-11961Y106D01*
X-2641Y106D02*
X-12441Y106D01*
X-2441Y-12088D02*
G75*
G03X-2241Y-12288I200J0D01*
G74*
G01*
X1303Y-12288D02*
G75*
G03X1503Y-12088I0J200D01*
G74*
G01*
X1498Y6786D02*
G75*
G03X1298Y6986I-200J0D01*
G74*
G01*
X-2422Y-20180D02*
X-2461Y-20180D01*
G54D12*
X1499Y-4518D02*
X1499Y-6498D01*
X1499Y-6498D02*
X499Y-6498D01*
X499Y-6498D02*
X499Y-4498D01*
X499Y-4498D02*
X1499Y-4498D01*
X1249Y-4498D02*
X1499Y-4748D01*
X-1500Y1481D02*
X-1500Y-498D01*
X-1500Y-498D02*
X-2500Y-498D01*
X-2500Y-498D02*
X-2500Y1501D01*
X-2500Y1501D02*
X-1500Y1501D01*
X-1750Y1501D02*
X-1500Y1251D01*
X-5400Y2101D02*
X-5400Y4901D01*
X-5400Y4901D02*
X-4600Y4901D01*
X-4600Y4901D02*
X-4600Y2101D01*
X-4600Y2101D02*
X-5400Y2101D01*
X-5200Y2101D02*
X-5400Y2301D01*
X-12400Y2101D02*
X-12400Y4901D01*
X-12400Y4901D02*
X-11600Y4901D01*
X-11600Y4901D02*
X-11600Y2101D01*
X-11600Y2101D02*
X-12400Y2101D01*
X-12200Y2101D02*
X-12400Y2301D01*
G54D13*
X-4497Y5619D02*
X-4497Y6619D01*
G54D14*
X-5578Y6503D02*
G75*
G03X-5717Y6119I460J-384D01*
G74*
G01*
X-5716Y6119D02*
G75*
G03X-5565Y5721I599J0D01*
G74*
G01*
X-4518Y6119D02*
G75*
G03X-4662Y6509I-599J0D01*
G74*
G01*
X-4656Y5735D02*
G75*
G03X-4517Y6119I-460J384D01*
G74*
G01*
X-4629Y6468D02*
G75*
G03X-5117Y6719I-487J-349D01*
G74*
G01*
X-5117Y6719D02*
G75*
G03X-5597Y6479I0J-600D01*
G74*
G01*
X-5117Y5519D02*
G75*
G03X-4644Y5751I0J599D01*
G74*
G01*
X-5590Y5750D02*
G75*
G03X-5117Y5519I473J368D01*
G74*
G01*
X-5117Y6369D02*
G75*
G03X-5367Y6119I0J-250D01*
G74*
G01*
X-5117Y6519D02*
G75*
G03X-5517Y6119I0J-400D01*
G74*
G01*
X-5117Y5869D02*
G75*
G03X-4867Y6119I0J250D01*
G74*
G01*
X-5117Y5719D02*
G75*
G03X-4717Y6119I0J400D01*
G74*
G01*
G54D13*
X-4503Y6632D02*
G75*
G03X-5117Y6919I-613J-513D01*
G74*
G01*
X-5117Y6918D02*
G75*
G03X-5822Y6495I0J-799D01*
G74*
G01*
X-5116Y5320D02*
G75*
G03X-4507Y5603I-1J798D01*
G74*
G01*
X-5811Y5721D02*
G75*
G03X-5117Y5319I694J397D01*
G74*
G01*
X-5821Y6498D02*
G75*
G03X-5917Y6119I704J-379D01*
G74*
G01*
X-5917Y6119D02*
G75*
G03X-5798Y5700I799J0D01*
G74*
G01*
G54D14*
X-4163Y1408D02*
X-4163Y408D01*
X-4163Y408D02*
X-6163Y408D01*
X-6163Y408D02*
X-6163Y1408D01*
X-6163Y1408D02*
X-4163Y1408D01*
G54D12*
X977Y-6632D02*
X-523Y-8132D01*
X-523Y-8132D02*
X-523Y-8632D01*
X-523Y-8632D02*
X-23Y-9132D01*
X-23Y-9132D02*
X977Y-9132D01*
X977Y-9132D02*
X1977Y-8132D01*
X1977Y-8132D02*
X1977Y-7132D01*
X1977Y-7132D02*
X1477Y-6632D01*
X1477Y-6632D02*
X977Y-6632D01*
X-480Y-9000D02*
X1500Y-9000D01*
X1500Y-9000D02*
X1500Y-10000D01*
X1500Y-10000D02*
X-500Y-10000D01*
X-500Y-10000D02*
X-500Y-9000D01*
X-500Y-9250D02*
X-250Y-9000D01*
G54D15*
X0Y1001D02*
X0Y1D01*
X558Y1001D02*
G75*
G03X558Y1001I-559J0D01*
G74*
G01*
X-1000Y1001D02*
X-1000Y1D01*
X-441Y1001D02*
G75*
G03X-441Y1001I-559J0D01*
G74*
G01*
X999Y1001D02*
X999Y1D01*
X1558Y1001D02*
G75*
G03X1558Y1001I-559J0D01*
G74*
G01*
X-3500Y2001D02*
X-3500Y1001D01*
X-2941Y2001D02*
G75*
G03X-2941Y2001I-559J0D01*
G74*
G01*
G54D13*
X1499Y-2998D02*
X999Y-2998D01*
X999Y-2998D02*
X999Y-1998D01*
X999Y-1998D02*
X1499Y-1998D01*
X1499Y-3498D02*
X-2500Y-3498D01*
X-2500Y-3498D02*
X-2500Y-1498D01*
X-2500Y-1498D02*
X1499Y-1498D01*
X1499Y-1498D02*
X1499Y-3498D01*
G54D15*
X-1000Y-5998D02*
X-1000Y-4998D01*
X-441Y-5998D02*
G75*
G03X-441Y-5998I-559J0D01*
G74*
G01*
X-2000Y-5998D02*
X-2000Y-4998D01*
X-1441Y-5998D02*
G75*
G03X-1441Y-5998I-559J0D01*
G74*
G01*
X0Y-5998D02*
X0Y-4998D01*
X558Y-5998D02*
G75*
G03X558Y-5998I-559J0D01*
G74*
G01*
G54D13*
X1000Y-11350D02*
X1000Y-11700D01*
X1400Y-11400D02*
X1400Y-10600D01*
X1400Y-10600D02*
X1350Y-10600D01*
X1350Y-10600D02*
X1350Y-11400D01*
X1300Y-10400D02*
X1300Y-11600D01*
X1500Y-11000D02*
G75*
G03X1500Y-11000I-1000J0D01*
G74*
G01*
X-1000Y-11350D02*
X-1000Y-11700D01*
X-600Y-11400D02*
X-600Y-10600D01*
X-600Y-10600D02*
X-650Y-10600D01*
X-650Y-10600D02*
X-650Y-11400D01*
X-700Y-10400D02*
X-700Y-11600D01*
X-500Y-11000D02*
G75*
G03X-500Y-11000I-1000J0D01*
G74*
G01*
G54D15*
X-1000Y-9500D02*
X-2000Y-9500D01*
X-440Y-9500D02*
G75*
G03X-440Y-9500I-559J0D01*
G74*
G01*
G54D12*
X-983Y-6632D02*
X-2483Y-8132D01*
X-2483Y-8132D02*
X-2483Y-8632D01*
X-2483Y-8632D02*
X-1983Y-9132D01*
X-1983Y-9132D02*
X-983Y-9132D01*
X-983Y-9132D02*
X17Y-8132D01*
X17Y-8132D02*
X17Y-7132D01*
X17Y-7132D02*
X-483Y-6632D01*
X-483Y-6632D02*
X-983Y-6632D01*
G54D16*
X-6296Y6981D02*
X-6296Y7060D01*
X-11020Y6981D02*
X-11020Y7060D01*
X-11020Y2886D02*
X-6296Y2886D01*
X-11020Y91D02*
X-6296Y91D01*
X-6296Y91D02*
X-6296Y6981D01*
X-6296Y7060D02*
X-11020Y7060D01*
X-11020Y91D02*
X-11020Y6784D01*
X-11020Y6784D02*
X-11020Y6981D01*
X731Y6981D02*
X731Y7060D01*
X-3993Y6981D02*
X-3993Y7060D01*
X731Y6981D02*
X731Y2886D01*
X-3993Y2886D02*
X-3993Y6981D01*
X-3993Y2886D02*
X731Y2886D01*
X731Y7060D02*
X-3993Y7060D01*
G54D15*
X997Y2168D02*
X-3Y2168D01*
X1556Y2168D02*
G75*
G03X1556Y2168I-559J0D01*
G74*
G01*
X-2003Y2168D02*
X-1003Y2168D01*
X-1443Y2168D02*
G75*
G03X-1443Y2168I-559J0D01*
G74*
G01*
G54D10*
X1242Y-4998D02*
G75*
G03X1242Y-4998I-243J0D01*
G74*
G01*
X1242Y-5998D02*
G75*
G03X1242Y-5998I-243J0D01*
G74*
G01*
X-1757Y1001D02*
G75*
G03X-1757Y1001I-243J0D01*
G74*
G01*
X-1757Y1D02*
G75*
G03X-1757Y1I-243J0D01*
G74*
G01*
X-4757Y2501D02*
G75*
G03X-4757Y2501I-243J0D01*
G74*
G01*
X-4757Y4501D02*
G75*
G03X-4757Y4501I-243J0D01*
G74*
G01*
X-11757Y2501D02*
G75*
G03X-11757Y2501I-243J0D01*
G74*
G01*
X-11757Y4501D02*
G75*
G03X-11757Y4501I-243J0D01*
G74*
G01*
X-5418Y6119D02*
G75*
G03X-5418Y6119I-298J0D01*
G74*
G01*
X-4418Y6119D02*
G75*
G03X-4418Y6119I-298J0D01*
G74*
G01*
X-4931Y1176D02*
X-4931Y639D01*
X-4394Y639D01*
X-4394Y1176D01*
X-4931Y1176D01*
X-5394Y908D02*
G75*
G03X-5394Y908I-268J0D01*
G74*
G01*
X-266Y-7888D02*
X-266Y-8375D01*
X220Y-8375D01*
X220Y-7888D01*
X-266Y-7888D01*
X1220Y-8132D02*
G75*
G03X1220Y-8132I-243J0D01*
G74*
G01*
X1220Y-7132D02*
G75*
G03X1220Y-7132I-243J0D01*
G74*
G01*
X243Y-9500D02*
G75*
G03X243Y-9500I-243J0D01*
G74*
G01*
X1243Y-9500D02*
G75*
G03X1243Y-9500I-243J0D01*
G74*
G01*
X242Y1001D02*
G75*
G03X242Y1001I-243J0D01*
G74*
G01*
X242Y1D02*
G75*
G03X242Y1I-243J0D01*
G74*
G01*
X-757Y1001D02*
G75*
G03X-757Y1001I-243J0D01*
G74*
G01*
X-757Y1D02*
G75*
G03X-757Y1I-243J0D01*
G74*
G01*
X1242Y1001D02*
G75*
G03X1242Y1001I-243J0D01*
G74*
G01*
X1242Y1D02*
G75*
G03X1242Y1I-243J0D01*
G74*
G01*
X-3257Y2001D02*
G75*
G03X-3257Y2001I-243J0D01*
G74*
G01*
X-3257Y1001D02*
G75*
G03X-3257Y1001I-243J0D01*
G74*
G01*
X755Y-755D02*
X755Y-1242D01*
X1242Y-1242D01*
X1242Y-755D01*
X755Y-755D01*
X242Y-998D02*
G75*
G03X242Y-998I-243J0D01*
G74*
G01*
X-757Y-998D02*
G75*
G03X-757Y-998I-243J0D01*
G74*
G01*
X-1757Y-998D02*
G75*
G03X-1757Y-998I-243J0D01*
G74*
G01*
X-1757Y-3998D02*
G75*
G03X-1757Y-3998I-243J0D01*
G74*
G01*
X-757Y-3998D02*
G75*
G03X-757Y-3998I-243J0D01*
G74*
G01*
X242Y-3998D02*
G75*
G03X242Y-3998I-243J0D01*
G74*
G01*
X1242Y-3998D02*
G75*
G03X1242Y-3998I-243J0D01*
G74*
G01*
X-757Y-5998D02*
G75*
G03X-757Y-5998I-243J0D01*
G74*
G01*
X-757Y-4998D02*
G75*
G03X-757Y-4998I-243J0D01*
G74*
G01*
X-1757Y-5998D02*
G75*
G03X-1757Y-5998I-243J0D01*
G74*
G01*
X-1757Y-4998D02*
G75*
G03X-1757Y-4998I-243J0D01*
G74*
G01*
X242Y-5998D02*
G75*
G03X242Y-5998I-243J0D01*
G74*
G01*
X242Y-4998D02*
G75*
G03X242Y-4998I-243J0D01*
G74*
G01*
X-362Y-10637D02*
X-362Y-11362D01*
X362Y-11362D01*
X362Y-10637D01*
X-362Y-10637D01*
X1362Y-11000D02*
G75*
G03X1362Y-11000I-362J0D01*
G74*
G01*
X-2362Y-10637D02*
X-2362Y-11362D01*
X-1637Y-11362D01*
X-1637Y-10637D01*
X-2362Y-10637D01*
X-637Y-11000D02*
G75*
G03X-637Y-11000I-362J0D01*
G74*
G01*
X-756Y-9500D02*
G75*
G03X-756Y-9500I-243J0D01*
G74*
G01*
X-1756Y-9500D02*
G75*
G03X-1756Y-9500I-243J0D01*
G74*
G01*
X-2226Y-7888D02*
X-2226Y-8375D01*
X-1739Y-8375D01*
X-1739Y-7888D01*
X-2226Y-7888D01*
X-739Y-8132D02*
G75*
G03X-739Y-8132I-243J0D01*
G74*
G01*
X-739Y-7132D02*
G75*
G03X-739Y-7132I-243J0D01*
G74*
G01*
X-9945Y1260D02*
X-9945Y654D01*
X-9339Y654D01*
X-9339Y1260D01*
X-9945Y1260D01*
X-9945Y2245D02*
X-9945Y1638D01*
X-9339Y1638D01*
X-9339Y2245D01*
X-9945Y2245D01*
X-8961Y1260D02*
X-8961Y654D01*
X-8355Y654D01*
X-8355Y1260D01*
X-8961Y1260D01*
X-8961Y2245D02*
X-8961Y1638D01*
X-8355Y1638D01*
X-8355Y2245D01*
X-8961Y2245D01*
X-7977Y2245D02*
X-7977Y1638D01*
X-7371Y1638D01*
X-7371Y2245D01*
X-7977Y2245D01*
X-7977Y1260D02*
X-7977Y654D01*
X-7371Y654D01*
X-7371Y1260D01*
X-7977Y1260D01*
X-10989Y4469D02*
X-10989Y3351D01*
X-10264Y3351D01*
X-10264Y4469D01*
X-10989Y4469D01*
X-7052Y4469D02*
X-7052Y3351D01*
X-6327Y3351D01*
X-6327Y4469D01*
X-7052Y4469D01*
X-9217Y6241D02*
X-9217Y5516D01*
X-8099Y5516D01*
X-8099Y6241D01*
X-9217Y6241D01*
X-8394Y3910D02*
G75*
G03X-8394Y3910I-263J0D01*
G74*
G01*
X-6426Y5879D02*
G75*
G03X-6426Y5879I-263J0D01*
G74*
G01*
X-10363Y5800D02*
G75*
G03X-10363Y5800I-263J0D01*
G74*
G01*
X-10363Y1942D02*
G75*
G03X-10363Y1942I-263J0D01*
G74*
G01*
X-6426Y1942D02*
G75*
G03X-6426Y1942I-263J0D01*
G74*
G01*
X-4020Y4469D02*
X-4020Y3351D01*
X-3296Y3351D01*
X-3296Y4469D01*
X-4020Y4469D01*
X34Y4469D02*
X34Y3351D01*
X758Y3351D01*
X758Y4469D01*
X34Y4469D01*
X-2189Y6241D02*
X-2189Y5516D01*
X-1071Y5516D01*
X-1071Y6241D01*
X-2189Y6241D01*
X73Y6142D02*
X73Y5615D01*
X601Y5615D01*
X601Y6142D01*
X73Y6142D01*
X-3863Y6142D02*
X-3863Y5615D01*
X-3335Y5615D01*
X-3335Y6142D01*
X-3863Y6142D01*
X-1367Y3910D02*
G75*
G03X-1367Y3910I-263J0D01*
G74*
G01*
X1240Y2168D02*
G75*
G03X1240Y2168I-243J0D01*
G74*
G01*
X240Y2168D02*
G75*
G03X240Y2168I-243J0D01*
G74*
G01*
X-1759Y2168D02*
G75*
G03X-1759Y2168I-243J0D01*
G74*
G01*
X-759Y2168D02*
G75*
G03X-759Y2168I-243J0D01*
G74*
G01*
M02*
