G04 (created by PCBNEW (2013-jul-07)-stable) date dom 15 mar 2015 21:02:07 CET*
%MOIN*%
G04 Gerber Fmt 3.4, Leading zero omitted, Abs format*
%FSLAX34Y34*%
G01*
G70*
G90*
G04 APERTURE LIST*
%ADD10C,0.00629921*%
%ADD11C,0.00393701*%
%ADD12C,0.055*%
%ADD13C,0.066*%
%ADD14R,0.06X0.06*%
%ADD15C,0.06*%
%ADD16R,0.055X0.055*%
%ADD17R,0.0787X0.0787*%
%ADD18C,0.0787*%
%ADD19R,0.0669291X0.0669291*%
%ADD20R,0.0787402X0.11811*%
%ADD21R,0.11811X0.0787402*%
%ADD22C,0.0590551*%
%ADD23R,0.0590551X0.0590551*%
%ADD24C,0.035*%
%ADD25C,0.02*%
%ADD26C,0.006*%
G04 APERTURE END LIST*
G54D10*
G54D11*
X1502Y-12087D02*
X1502Y6778D01*
X-2238Y-12287D02*
X1302Y-12287D01*
X-2443Y108D02*
X-2638Y108D01*
X-2443Y-357D02*
X-2443Y108D01*
X-2443Y-12087D02*
X-2443Y-357D01*
X-12701Y6786D02*
X-12701Y306D01*
X-12501Y6986D02*
X1298Y6986D01*
X-12501Y6986D02*
G75*
G03X-12701Y6786I0J-200D01*
G74*
G01*
X-12441Y106D02*
X-12501Y106D01*
X-12701Y306D02*
G75*
G03X-12501Y106I200J0D01*
G74*
G01*
X-12441Y106D02*
X-11961Y106D01*
X-2641Y106D02*
X-12441Y106D01*
X-2441Y-12088D02*
G75*
G03X-2241Y-12288I200J0D01*
G74*
G01*
X1303Y-12288D02*
G75*
G03X1503Y-12088I0J200D01*
G74*
G01*
X1498Y6786D02*
G75*
G03X1298Y6986I-200J0D01*
G74*
G01*
X-2422Y-20180D02*
X-2461Y-20180D01*
G54D12*
X999Y-4998D03*
X999Y-5998D03*
X-2000Y1001D03*
X-2000Y1D03*
X-5000Y2501D03*
X-5000Y4501D03*
X-12000Y2501D03*
X-12000Y4501D03*
G54D13*
X-5717Y6119D03*
X-4717Y6119D03*
G54D14*
X-4663Y908D03*
G54D15*
X-5663Y908D03*
G54D16*
X-23Y-8132D03*
G54D12*
X977Y-8132D03*
X977Y-7132D03*
X0Y-9500D03*
X1000Y-9500D03*
X0Y1001D03*
X0Y1D03*
X-1000Y1001D03*
X-1000Y1D03*
X999Y1001D03*
X999Y1D03*
X-3500Y2001D03*
X-3500Y1001D03*
G54D16*
X999Y-998D03*
G54D12*
X0Y-998D03*
X-1000Y-998D03*
X-2000Y-998D03*
X-2000Y-3998D03*
X-1000Y-3998D03*
X0Y-3998D03*
X999Y-3998D03*
X-1000Y-5998D03*
X-1000Y-4998D03*
X-2000Y-5998D03*
X-2000Y-4998D03*
X0Y-5998D03*
X0Y-4998D03*
G54D17*
X0Y-11000D03*
G54D18*
X1000Y-11000D03*
G54D17*
X-2000Y-11000D03*
G54D18*
X-1000Y-11000D03*
G54D12*
X-1000Y-9500D03*
X-2000Y-9500D03*
G54D16*
X-1983Y-8132D03*
G54D12*
X-983Y-8132D03*
X-983Y-7132D03*
G54D19*
X-9642Y957D03*
X-9642Y1942D03*
X-8658Y957D03*
X-8658Y1942D03*
X-7674Y1942D03*
X-7674Y957D03*
G54D20*
X-10626Y3910D03*
X-6689Y3910D03*
G54D21*
X-8658Y5879D03*
G54D22*
X-8658Y3910D03*
X-6689Y5879D03*
X-10626Y5800D03*
X-10626Y1942D03*
X-6689Y1942D03*
G54D20*
X-3658Y3910D03*
X396Y3910D03*
G54D21*
X-1630Y5879D03*
G54D23*
X337Y5879D03*
X-3599Y5879D03*
G54D22*
X-1630Y3910D03*
G54D12*
X997Y2168D03*
X-3Y2168D03*
X-2003Y2168D03*
X-1003Y2168D03*
G54D24*
X-4383Y4508D03*
G54D25*
X-2000Y-998D02*
X-2000Y1D01*
X-2000Y1D02*
X-3000Y1001D01*
X-3000Y1001D02*
X-3500Y1001D01*
X-1503Y-3134D02*
X-2000Y-2636D01*
X-1503Y-6592D02*
X-1503Y-3134D01*
X-1503Y-7612D02*
X-983Y-8132D01*
X-1503Y-6592D02*
X-1503Y-7612D01*
X-2000Y-2636D02*
X-2000Y-998D01*
X0Y-5998D02*
X-1000Y-4998D01*
X-1000Y-4998D02*
X-1000Y-3998D01*
X0Y1D02*
X999Y1001D01*
X0Y1D02*
X0Y-998D01*
X-1003Y2168D02*
X-483Y1648D01*
X-483Y-3516D02*
X0Y-3998D01*
X-483Y1648D02*
X-483Y-3516D01*
X-6630Y3713D02*
X-6630Y3871D01*
X-6630Y3871D02*
X-6000Y4501D01*
X-6000Y4501D02*
X-5000Y4501D01*
X-10685Y3713D02*
X-11213Y3713D01*
X-11213Y3713D02*
X-12000Y4501D01*
X-8658Y957D02*
X-8108Y408D01*
X-6163Y408D02*
X-5663Y908D01*
X-8108Y408D02*
X-6163Y408D01*
X-8658Y957D02*
X-8658Y1942D01*
X-4383Y5784D02*
X-4717Y6119D01*
X-4383Y4508D02*
X-4383Y5784D01*
X-1000Y1D02*
X-1056Y1D01*
X-3236Y2501D02*
X-5000Y2501D01*
X-2343Y1608D02*
X-3236Y2501D01*
X-1803Y1608D02*
X-2343Y1608D01*
X-1503Y1308D02*
X-1803Y1608D01*
X-1503Y448D02*
X-1503Y1308D01*
X-1056Y1D02*
X-1503Y448D01*
X-1000Y1D02*
X-1000Y-998D01*
G54D10*
G36*
X1269Y-12093D02*
X-68Y-12093D01*
X-68Y-11491D01*
X-68Y-11068D01*
X-76Y-11068D01*
X-76Y-10931D01*
X-68Y-10931D01*
X-68Y-10509D01*
X-100Y-10476D01*
X-367Y-10476D01*
X-419Y-10476D01*
X-467Y-10496D01*
X-503Y-10532D01*
X-523Y-10580D01*
X-523Y-10782D01*
X-555Y-10703D01*
X-594Y-10664D01*
X-594Y-9419D01*
X-656Y-9270D01*
X-770Y-9156D01*
X-919Y-9095D01*
X-1080Y-9094D01*
X-1229Y-9156D01*
X-1343Y-9270D01*
X-1404Y-9419D01*
X-1405Y-9580D01*
X-1343Y-9729D01*
X-1229Y-9843D01*
X-1080Y-9904D01*
X-919Y-9905D01*
X-770Y-9843D01*
X-656Y-9729D01*
X-595Y-9580D01*
X-594Y-9419D01*
X-594Y-10664D01*
X-703Y-10556D01*
X-895Y-10476D01*
X-1103Y-10476D01*
X-1296Y-10555D01*
X-1443Y-10703D01*
X-1476Y-10782D01*
X-1476Y-10580D01*
X-1496Y-10532D01*
X-1532Y-10496D01*
X-1577Y-10477D01*
X-1577Y-8381D01*
X-1578Y-8232D01*
X-1610Y-8200D01*
X-1914Y-8200D01*
X-1914Y-8504D01*
X-1882Y-8537D01*
X-1682Y-8537D01*
X-1634Y-8517D01*
X-1597Y-8480D01*
X-1578Y-8432D01*
X-1577Y-8381D01*
X-1577Y-10477D01*
X-1580Y-10476D01*
X-1588Y-10476D01*
X-1588Y-9528D01*
X-1608Y-9368D01*
X-1630Y-9315D01*
X-1686Y-9283D01*
X-1783Y-9380D01*
X-1903Y-9500D01*
X-1686Y-9716D01*
X-1630Y-9684D01*
X-1588Y-9528D01*
X-1588Y-10476D01*
X-1632Y-10476D01*
X-1783Y-10476D01*
X-1899Y-10476D01*
X-1931Y-10509D01*
X-1931Y-10931D01*
X-1923Y-10931D01*
X-1923Y-11068D01*
X-1931Y-11068D01*
X-1931Y-11491D01*
X-1899Y-11523D01*
X-1632Y-11523D01*
X-1580Y-11523D01*
X-1532Y-11503D01*
X-1496Y-11467D01*
X-1476Y-11419D01*
X-1476Y-11217D01*
X-1444Y-11296D01*
X-1296Y-11443D01*
X-1104Y-11523D01*
X-896Y-11523D01*
X-703Y-11444D01*
X-556Y-11296D01*
X-523Y-11217D01*
X-523Y-11419D01*
X-503Y-11467D01*
X-467Y-11503D01*
X-419Y-11523D01*
X-367Y-11523D01*
X-100Y-11523D01*
X-68Y-11491D01*
X-68Y-12093D01*
X-2231Y-12093D01*
X-2231Y-11523D01*
X-2100Y-11523D01*
X-2068Y-11491D01*
X-2068Y-11068D01*
X-2076Y-11068D01*
X-2076Y-10931D01*
X-2068Y-10931D01*
X-2068Y-10509D01*
X-2100Y-10476D01*
X-2231Y-10476D01*
X-2231Y-9828D01*
X-2216Y-9813D01*
X-2184Y-9869D01*
X-2028Y-9911D01*
X-1868Y-9891D01*
X-1815Y-9869D01*
X-1783Y-9813D01*
X-2000Y-9596D01*
X-2005Y-9602D01*
X-2102Y-9505D01*
X-2096Y-9500D01*
X-2102Y-9494D01*
X-2005Y-9397D01*
X-2000Y-9403D01*
X-1783Y-9186D01*
X-1815Y-9130D01*
X-1971Y-9088D01*
X-2131Y-9108D01*
X-2184Y-9130D01*
X-2216Y-9186D01*
X-2231Y-9171D01*
X-2231Y-8537D01*
X-2083Y-8537D01*
X-2051Y-8504D01*
X-2051Y-8200D01*
X-2059Y-8200D01*
X-2059Y-8063D01*
X-2051Y-8063D01*
X-2051Y-7759D01*
X-2083Y-7727D01*
X-2231Y-7726D01*
X-2231Y-6341D01*
X-2230Y-6342D01*
X-2081Y-6403D01*
X-1920Y-6403D01*
X-1771Y-6342D01*
X-1733Y-6303D01*
X-1733Y-6592D01*
X-1733Y-7612D01*
X-1715Y-7700D01*
X-1697Y-7726D01*
X-1882Y-7727D01*
X-1914Y-7759D01*
X-1914Y-8063D01*
X-1610Y-8063D01*
X-1578Y-8031D01*
X-1577Y-7882D01*
X-1577Y-7862D01*
X-1387Y-8052D01*
X-1388Y-8212D01*
X-1326Y-8361D01*
X-1212Y-8475D01*
X-1063Y-8536D01*
X-902Y-8537D01*
X-753Y-8475D01*
X-639Y-8361D01*
X-578Y-8212D01*
X-577Y-8051D01*
X-639Y-7902D01*
X-753Y-7788D01*
X-902Y-7727D01*
X-1062Y-7726D01*
X-1273Y-7516D01*
X-1273Y-7414D01*
X-1212Y-7475D01*
X-1063Y-7536D01*
X-902Y-7537D01*
X-753Y-7475D01*
X-639Y-7361D01*
X-578Y-7212D01*
X-577Y-7051D01*
X-639Y-6902D01*
X-753Y-6788D01*
X-902Y-6727D01*
X-1063Y-6726D01*
X-1212Y-6788D01*
X-1273Y-6849D01*
X-1273Y-6592D01*
X-1273Y-6299D01*
X-1230Y-6342D01*
X-1081Y-6403D01*
X-920Y-6403D01*
X-771Y-6342D01*
X-657Y-6228D01*
X-596Y-6079D01*
X-595Y-5918D01*
X-657Y-5769D01*
X-771Y-5655D01*
X-920Y-5593D01*
X-1081Y-5593D01*
X-1230Y-5655D01*
X-1273Y-5698D01*
X-1273Y-5299D01*
X-1230Y-5342D01*
X-1081Y-5403D01*
X-921Y-5403D01*
X-405Y-5919D01*
X-406Y-6079D01*
X-344Y-6228D01*
X-230Y-6342D01*
X-81Y-6403D01*
X79Y-6403D01*
X228Y-6342D01*
X342Y-6228D01*
X403Y-6079D01*
X404Y-5918D01*
X404Y-4918D01*
X342Y-4769D01*
X228Y-4655D01*
X79Y-4593D01*
X-81Y-4593D01*
X-230Y-4655D01*
X-344Y-4769D01*
X-405Y-4918D01*
X-406Y-5079D01*
X-344Y-5228D01*
X-230Y-5342D01*
X-81Y-5403D01*
X79Y-5403D01*
X228Y-5342D01*
X342Y-5228D01*
X403Y-5079D01*
X404Y-4918D01*
X404Y-5918D01*
X342Y-5769D01*
X228Y-5655D01*
X79Y-5593D01*
X-80Y-5593D01*
X-596Y-5078D01*
X-595Y-4918D01*
X-657Y-4769D01*
X-770Y-4656D01*
X-770Y-4341D01*
X-657Y-4228D01*
X-596Y-4079D01*
X-595Y-3918D01*
X-657Y-3769D01*
X-771Y-3655D01*
X-920Y-3593D01*
X-1081Y-3593D01*
X-1230Y-3655D01*
X-1273Y-3698D01*
X-1273Y-3134D01*
X-1290Y-3045D01*
X-1290Y-3045D01*
X-1340Y-2971D01*
X-1770Y-2540D01*
X-1770Y-1341D01*
X-1657Y-1228D01*
X-1596Y-1079D01*
X-1595Y-918D01*
X-1657Y-769D01*
X-1770Y-656D01*
X-1770Y-341D01*
X-1657Y-228D01*
X-1596Y-79D01*
X-1595Y81D01*
X-1657Y230D01*
X-1771Y344D01*
X-1920Y406D01*
X-2080Y406D01*
X-2838Y1163D01*
X-2912Y1213D01*
X-3000Y1231D01*
X-3158Y1231D01*
X-3271Y1344D01*
X-3420Y1406D01*
X-3581Y1406D01*
X-3730Y1344D01*
X-3844Y1230D01*
X-3905Y1081D01*
X-3906Y920D01*
X-3844Y771D01*
X-3730Y657D01*
X-3581Y596D01*
X-3420Y596D01*
X-3271Y657D01*
X-3158Y771D01*
X-3096Y771D01*
X-2656Y331D01*
X-4232Y331D01*
X-4232Y633D01*
X-4232Y1182D01*
X-4233Y1233D01*
X-4252Y1281D01*
X-4289Y1318D01*
X-4337Y1338D01*
X-4562Y1338D01*
X-4594Y1305D01*
X-4594Y976D01*
X-4265Y976D01*
X-4233Y1008D01*
X-4232Y1182D01*
X-4232Y633D01*
X-4233Y807D01*
X-4265Y839D01*
X-4594Y839D01*
X-4594Y510D01*
X-4562Y478D01*
X-4337Y477D01*
X-4289Y497D01*
X-4252Y534D01*
X-4233Y582D01*
X-4232Y633D01*
X-4232Y331D01*
X-4731Y331D01*
X-4731Y510D01*
X-4731Y839D01*
X-4731Y976D01*
X-4731Y1305D01*
X-4763Y1338D01*
X-4988Y1338D01*
X-5036Y1318D01*
X-5073Y1281D01*
X-5092Y1233D01*
X-5093Y1182D01*
X-5093Y1008D01*
X-5060Y976D01*
X-4731Y976D01*
X-4731Y839D01*
X-5060Y839D01*
X-5093Y807D01*
X-5093Y633D01*
X-5092Y582D01*
X-5073Y534D01*
X-5036Y497D01*
X-4988Y477D01*
X-4763Y478D01*
X-4731Y510D01*
X-4731Y331D01*
X-5914Y331D01*
X-5762Y483D01*
X-5748Y478D01*
X-5577Y477D01*
X-5419Y543D01*
X-5298Y664D01*
X-5233Y822D01*
X-5232Y993D01*
X-5298Y1151D01*
X-5419Y1272D01*
X-5577Y1337D01*
X-5748Y1338D01*
X-5906Y1272D01*
X-6027Y1151D01*
X-6092Y993D01*
X-6093Y822D01*
X-6087Y808D01*
X-6258Y638D01*
X-6264Y638D01*
X-6264Y2026D01*
X-6329Y2182D01*
X-6448Y2302D01*
X-6604Y2367D01*
X-6774Y2367D01*
X-6930Y2302D01*
X-7050Y2183D01*
X-7115Y2026D01*
X-7115Y1857D01*
X-7050Y1701D01*
X-6931Y1581D01*
X-6774Y1516D01*
X-6605Y1516D01*
X-6449Y1581D01*
X-6329Y1700D01*
X-6264Y1857D01*
X-6264Y2026D01*
X-6264Y638D01*
X-7209Y638D01*
X-7209Y648D01*
X-7209Y1318D01*
X-7209Y1633D01*
X-7209Y2302D01*
X-7229Y2350D01*
X-7265Y2386D01*
X-7313Y2406D01*
X-7365Y2406D01*
X-7937Y2406D01*
X-7937Y5511D01*
X-7937Y6298D01*
X-7957Y6346D01*
X-7994Y6382D01*
X-8041Y6402D01*
X-8093Y6402D01*
X-9274Y6402D01*
X-9322Y6382D01*
X-9359Y6346D01*
X-9378Y6298D01*
X-9379Y6246D01*
X-9379Y5459D01*
X-9359Y5411D01*
X-9322Y5375D01*
X-9274Y5355D01*
X-9223Y5355D01*
X-8042Y5355D01*
X-7994Y5375D01*
X-7957Y5411D01*
X-7937Y5459D01*
X-7937Y5511D01*
X-7937Y2406D01*
X-8034Y2406D01*
X-8082Y2386D01*
X-8118Y2350D01*
X-8138Y2302D01*
X-8138Y2250D01*
X-8138Y1581D01*
X-8119Y1533D01*
X-8082Y1497D01*
X-8034Y1477D01*
X-7983Y1477D01*
X-7313Y1477D01*
X-7265Y1497D01*
X-7229Y1533D01*
X-7209Y1581D01*
X-7209Y1633D01*
X-7209Y1318D01*
X-7229Y1365D01*
X-7265Y1402D01*
X-7313Y1422D01*
X-7365Y1422D01*
X-8034Y1422D01*
X-8082Y1402D01*
X-8118Y1366D01*
X-8138Y1318D01*
X-8138Y1266D01*
X-8138Y763D01*
X-8193Y818D01*
X-8193Y1318D01*
X-8213Y1365D01*
X-8250Y1402D01*
X-8297Y1422D01*
X-8349Y1422D01*
X-8428Y1422D01*
X-8428Y1477D01*
X-8298Y1477D01*
X-8250Y1497D01*
X-8213Y1533D01*
X-8193Y1581D01*
X-8193Y1633D01*
X-8193Y2302D01*
X-8213Y2350D01*
X-8233Y2369D01*
X-8233Y3994D01*
X-8297Y4151D01*
X-8417Y4270D01*
X-8573Y4335D01*
X-8742Y4335D01*
X-8899Y4271D01*
X-9018Y4151D01*
X-9083Y3995D01*
X-9083Y3826D01*
X-9019Y3669D01*
X-8899Y3550D01*
X-8743Y3485D01*
X-8574Y3485D01*
X-8417Y3549D01*
X-8298Y3669D01*
X-8233Y3825D01*
X-8233Y3994D01*
X-8233Y2369D01*
X-8250Y2386D01*
X-8297Y2406D01*
X-8349Y2406D01*
X-9018Y2406D01*
X-9066Y2386D01*
X-9103Y2350D01*
X-9123Y2302D01*
X-9123Y2250D01*
X-9123Y1581D01*
X-9103Y1533D01*
X-9066Y1497D01*
X-9019Y1477D01*
X-8967Y1477D01*
X-8888Y1477D01*
X-8888Y1422D01*
X-9018Y1422D01*
X-9066Y1402D01*
X-9103Y1366D01*
X-9123Y1318D01*
X-9123Y1266D01*
X-9123Y597D01*
X-9103Y549D01*
X-9066Y512D01*
X-9019Y493D01*
X-8967Y493D01*
X-8519Y493D01*
X-8357Y331D01*
X-9178Y331D01*
X-9178Y648D01*
X-9178Y1318D01*
X-9178Y1633D01*
X-9178Y2302D01*
X-9197Y2350D01*
X-9234Y2386D01*
X-9282Y2406D01*
X-9333Y2406D01*
X-10003Y2406D01*
X-10050Y2386D01*
X-10087Y2350D01*
X-10103Y2312D01*
X-10103Y3345D01*
X-10103Y4526D01*
X-10122Y4574D01*
X-10159Y4611D01*
X-10201Y4628D01*
X-10201Y5884D01*
X-10266Y6040D01*
X-10385Y6160D01*
X-10541Y6225D01*
X-10711Y6225D01*
X-10867Y6161D01*
X-10987Y6041D01*
X-11052Y5885D01*
X-11052Y5716D01*
X-10987Y5559D01*
X-10868Y5439D01*
X-10711Y5375D01*
X-10542Y5374D01*
X-10386Y5439D01*
X-10266Y5559D01*
X-10201Y5715D01*
X-10201Y5884D01*
X-10201Y4628D01*
X-10207Y4631D01*
X-10258Y4631D01*
X-11046Y4631D01*
X-11094Y4611D01*
X-11130Y4574D01*
X-11150Y4527D01*
X-11150Y4475D01*
X-11150Y3976D01*
X-11596Y4421D01*
X-11595Y4581D01*
X-11657Y4730D01*
X-11771Y4844D01*
X-11920Y4906D01*
X-12081Y4906D01*
X-12230Y4844D01*
X-12344Y4730D01*
X-12405Y4581D01*
X-12406Y4420D01*
X-12344Y4271D01*
X-12230Y4157D01*
X-12081Y4096D01*
X-11921Y4096D01*
X-11376Y3551D01*
X-11301Y3501D01*
X-11301Y3501D01*
X-11213Y3483D01*
X-11150Y3483D01*
X-11150Y3294D01*
X-11130Y3246D01*
X-11094Y3209D01*
X-11046Y3189D01*
X-10994Y3189D01*
X-10207Y3189D01*
X-10159Y3209D01*
X-10123Y3246D01*
X-10103Y3293D01*
X-10103Y3345D01*
X-10103Y2312D01*
X-10107Y2302D01*
X-10107Y2250D01*
X-10107Y1581D01*
X-10087Y1533D01*
X-10051Y1497D01*
X-10003Y1477D01*
X-9951Y1477D01*
X-9282Y1477D01*
X-9234Y1497D01*
X-9197Y1533D01*
X-9178Y1581D01*
X-9178Y1633D01*
X-9178Y1318D01*
X-9197Y1365D01*
X-9234Y1402D01*
X-9282Y1422D01*
X-9333Y1422D01*
X-10003Y1422D01*
X-10050Y1402D01*
X-10087Y1366D01*
X-10107Y1318D01*
X-10107Y1266D01*
X-10107Y597D01*
X-10087Y549D01*
X-10051Y512D01*
X-10003Y493D01*
X-9951Y493D01*
X-9282Y493D01*
X-9234Y512D01*
X-9197Y549D01*
X-9178Y597D01*
X-9178Y648D01*
X-9178Y331D01*
X-10201Y331D01*
X-10201Y2026D01*
X-10266Y2182D01*
X-10385Y2302D01*
X-10541Y2367D01*
X-10711Y2367D01*
X-10867Y2302D01*
X-10987Y2183D01*
X-11052Y2026D01*
X-11052Y1857D01*
X-10987Y1701D01*
X-10868Y1581D01*
X-10711Y1516D01*
X-10542Y1516D01*
X-10386Y1581D01*
X-10266Y1700D01*
X-10201Y1857D01*
X-10201Y2026D01*
X-10201Y331D01*
X-11595Y331D01*
X-11595Y2581D01*
X-11657Y2730D01*
X-11771Y2844D01*
X-11920Y2906D01*
X-12081Y2906D01*
X-12230Y2844D01*
X-12344Y2730D01*
X-12405Y2581D01*
X-12406Y2420D01*
X-12344Y2271D01*
X-12230Y2157D01*
X-12081Y2096D01*
X-11920Y2096D01*
X-11771Y2157D01*
X-11657Y2271D01*
X-11596Y2420D01*
X-11595Y2581D01*
X-11595Y331D01*
X-12470Y331D01*
X-12470Y6771D01*
X1269Y6771D01*
X1269Y2468D01*
X1226Y2511D01*
X1077Y2572D01*
X920Y2573D01*
X920Y3345D01*
X920Y4526D01*
X900Y4574D01*
X864Y4611D01*
X816Y4631D01*
X764Y4631D01*
X762Y4631D01*
X762Y5609D01*
X762Y6200D01*
X743Y6247D01*
X706Y6284D01*
X658Y6304D01*
X607Y6304D01*
X16Y6304D01*
X-31Y6284D01*
X-67Y6248D01*
X-87Y6200D01*
X-87Y6148D01*
X-87Y5558D01*
X-67Y5510D01*
X-31Y5473D01*
X16Y5453D01*
X68Y5453D01*
X658Y5453D01*
X706Y5473D01*
X743Y5510D01*
X762Y5557D01*
X762Y5609D01*
X762Y4631D01*
X-22Y4631D01*
X-70Y4611D01*
X-107Y4574D01*
X-126Y4527D01*
X-127Y4475D01*
X-127Y3294D01*
X-107Y3246D01*
X-70Y3209D01*
X-22Y3189D01*
X28Y3189D01*
X816Y3189D01*
X863Y3209D01*
X900Y3246D01*
X920Y3293D01*
X920Y3345D01*
X920Y2573D01*
X916Y2573D01*
X767Y2511D01*
X653Y2397D01*
X592Y2248D01*
X591Y2087D01*
X653Y1938D01*
X767Y1824D01*
X916Y1763D01*
X1077Y1762D01*
X1226Y1824D01*
X1269Y1867D01*
X1269Y1303D01*
X1228Y1344D01*
X1079Y1406D01*
X918Y1406D01*
X769Y1344D01*
X655Y1230D01*
X594Y1081D01*
X593Y921D01*
X78Y406D01*
X-81Y406D01*
X-230Y344D01*
X-253Y321D01*
X-253Y680D01*
X-230Y657D01*
X-81Y596D01*
X79Y596D01*
X228Y657D01*
X342Y771D01*
X403Y920D01*
X404Y1081D01*
X402Y1086D01*
X402Y2248D01*
X340Y2397D01*
X226Y2511D01*
X77Y2572D01*
X-83Y2573D01*
X-232Y2511D01*
X-346Y2397D01*
X-407Y2248D01*
X-408Y2087D01*
X-346Y1938D01*
X-232Y1824D01*
X-83Y1763D01*
X77Y1762D01*
X226Y1824D01*
X340Y1938D01*
X401Y2087D01*
X402Y2248D01*
X402Y1086D01*
X342Y1230D01*
X228Y1344D01*
X79Y1406D01*
X-81Y1406D01*
X-230Y1344D01*
X-253Y1321D01*
X-253Y1648D01*
X-270Y1736D01*
X-270Y1736D01*
X-320Y1810D01*
X-598Y2088D01*
X-597Y2248D01*
X-659Y2397D01*
X-773Y2511D01*
X-910Y2568D01*
X-910Y5511D01*
X-910Y6298D01*
X-930Y6346D01*
X-966Y6382D01*
X-1014Y6402D01*
X-1066Y6402D01*
X-2247Y6402D01*
X-2294Y6382D01*
X-2331Y6346D01*
X-2351Y6298D01*
X-2351Y6246D01*
X-2351Y5459D01*
X-2331Y5411D01*
X-2295Y5375D01*
X-2247Y5355D01*
X-2195Y5355D01*
X-1014Y5355D01*
X-966Y5375D01*
X-930Y5411D01*
X-910Y5459D01*
X-910Y5511D01*
X-910Y2568D01*
X-922Y2572D01*
X-1083Y2573D01*
X-1205Y2522D01*
X-1205Y3994D01*
X-1270Y4151D01*
X-1389Y4270D01*
X-1545Y4335D01*
X-1715Y4335D01*
X-1871Y4271D01*
X-1991Y4151D01*
X-2056Y3995D01*
X-2056Y3826D01*
X-1991Y3669D01*
X-1872Y3550D01*
X-1715Y3485D01*
X-1546Y3485D01*
X-1390Y3549D01*
X-1270Y3669D01*
X-1205Y3825D01*
X-1205Y3994D01*
X-1205Y2522D01*
X-1232Y2511D01*
X-1346Y2397D01*
X-1407Y2248D01*
X-1408Y2087D01*
X-1346Y1938D01*
X-1232Y1824D01*
X-1083Y1763D01*
X-923Y1762D01*
X-713Y1552D01*
X-713Y1285D01*
X-771Y1344D01*
X-920Y1406D01*
X-1081Y1406D01*
X-1230Y1344D01*
X-1273Y1301D01*
X-1273Y1308D01*
X-1273Y1308D01*
X-1273Y1308D01*
X-1290Y1396D01*
X-1340Y1470D01*
X-1340Y1470D01*
X-1640Y1770D01*
X-1714Y1820D01*
X-1767Y1830D01*
X-1767Y1830D01*
X-1659Y1938D01*
X-1598Y2087D01*
X-1597Y2248D01*
X-1659Y2397D01*
X-1773Y2511D01*
X-1922Y2572D01*
X-2083Y2573D01*
X-2232Y2511D01*
X-2346Y2397D01*
X-2407Y2248D01*
X-2408Y2087D01*
X-2346Y1938D01*
X-2245Y1838D01*
X-2247Y1838D01*
X-3073Y2663D01*
X-3134Y2704D01*
X-3134Y3345D01*
X-3134Y4526D01*
X-3154Y4574D01*
X-3174Y4594D01*
X-3174Y5609D01*
X-3174Y6200D01*
X-3193Y6247D01*
X-3230Y6284D01*
X-3278Y6304D01*
X-3329Y6304D01*
X-3920Y6304D01*
X-3968Y6284D01*
X-4004Y6248D01*
X-4024Y6200D01*
X-4024Y6148D01*
X-4024Y5558D01*
X-4004Y5510D01*
X-3968Y5473D01*
X-3920Y5453D01*
X-3868Y5453D01*
X-3278Y5453D01*
X-3230Y5473D01*
X-3193Y5510D01*
X-3174Y5557D01*
X-3174Y5609D01*
X-3174Y4594D01*
X-3190Y4611D01*
X-3238Y4631D01*
X-3290Y4631D01*
X-4077Y4631D01*
X-4100Y4621D01*
X-4124Y4680D01*
X-4153Y4709D01*
X-4153Y5784D01*
X-4153Y5784D01*
X-4153Y5784D01*
X-4170Y5872D01*
X-4220Y5947D01*
X-4220Y5947D01*
X-4270Y5997D01*
X-4257Y6027D01*
X-4257Y6210D01*
X-4327Y6379D01*
X-4456Y6508D01*
X-4625Y6579D01*
X-4808Y6579D01*
X-4977Y6509D01*
X-5107Y6380D01*
X-5177Y6211D01*
X-5177Y6028D01*
X-5107Y5858D01*
X-4978Y5729D01*
X-4809Y5659D01*
X-4626Y5659D01*
X-4613Y5664D01*
X-4613Y4709D01*
X-4638Y4684D01*
X-4657Y4730D01*
X-4771Y4844D01*
X-4920Y4906D01*
X-5081Y4906D01*
X-5230Y4844D01*
X-5250Y4824D01*
X-5250Y6077D01*
X-5269Y6259D01*
X-5301Y6336D01*
X-5364Y6375D01*
X-5461Y6278D01*
X-5461Y6472D01*
X-5500Y6534D01*
X-5675Y6586D01*
X-5857Y6566D01*
X-5934Y6534D01*
X-5973Y6472D01*
X-5717Y6215D01*
X-5461Y6472D01*
X-5461Y6278D01*
X-5620Y6119D01*
X-5364Y5862D01*
X-5301Y5901D01*
X-5250Y6077D01*
X-5250Y4824D01*
X-5343Y4731D01*
X-5461Y4731D01*
X-5461Y5765D01*
X-5717Y6022D01*
X-5814Y5925D01*
X-5814Y6119D01*
X-6070Y6375D01*
X-6133Y6336D01*
X-6184Y6160D01*
X-6165Y5979D01*
X-6133Y5901D01*
X-6070Y5862D01*
X-5814Y6119D01*
X-5814Y5925D01*
X-5973Y5765D01*
X-5934Y5703D01*
X-5759Y5652D01*
X-5577Y5671D01*
X-5500Y5703D01*
X-5461Y5765D01*
X-5461Y4731D01*
X-6000Y4731D01*
X-6088Y4713D01*
X-6163Y4663D01*
X-6163Y4663D01*
X-6219Y4608D01*
X-6222Y4611D01*
X-6264Y4628D01*
X-6264Y5963D01*
X-6329Y6119D01*
X-6448Y6239D01*
X-6604Y6304D01*
X-6774Y6304D01*
X-6930Y6239D01*
X-7050Y6120D01*
X-7115Y5963D01*
X-7115Y5794D01*
X-7050Y5638D01*
X-6931Y5518D01*
X-6774Y5453D01*
X-6605Y5453D01*
X-6449Y5518D01*
X-6329Y5637D01*
X-6264Y5794D01*
X-6264Y5963D01*
X-6264Y4628D01*
X-6270Y4631D01*
X-6321Y4631D01*
X-7109Y4631D01*
X-7157Y4611D01*
X-7193Y4574D01*
X-7213Y4527D01*
X-7213Y4475D01*
X-7213Y3294D01*
X-7193Y3246D01*
X-7157Y3209D01*
X-7109Y3189D01*
X-7057Y3189D01*
X-6270Y3189D01*
X-6222Y3209D01*
X-6186Y3246D01*
X-6166Y3293D01*
X-6166Y3345D01*
X-6166Y4010D01*
X-5905Y4271D01*
X-5343Y4271D01*
X-5230Y4157D01*
X-5081Y4096D01*
X-4920Y4096D01*
X-4771Y4157D01*
X-4657Y4271D01*
X-4634Y4328D01*
X-4555Y4249D01*
X-4443Y4203D01*
X-4322Y4202D01*
X-4210Y4249D01*
X-4182Y4277D01*
X-4182Y3294D01*
X-4162Y3246D01*
X-4125Y3209D01*
X-4078Y3189D01*
X-4026Y3189D01*
X-3238Y3189D01*
X-3191Y3209D01*
X-3154Y3246D01*
X-3134Y3293D01*
X-3134Y3345D01*
X-3134Y2704D01*
X-3148Y2713D01*
X-3236Y2731D01*
X-4658Y2731D01*
X-4771Y2844D01*
X-4920Y2906D01*
X-5081Y2906D01*
X-5230Y2844D01*
X-5344Y2730D01*
X-5405Y2581D01*
X-5406Y2420D01*
X-5344Y2271D01*
X-5230Y2157D01*
X-5081Y2096D01*
X-4920Y2096D01*
X-4771Y2157D01*
X-4658Y2271D01*
X-3803Y2271D01*
X-3844Y2230D01*
X-3905Y2081D01*
X-3906Y1920D01*
X-3844Y1771D01*
X-3730Y1657D01*
X-3581Y1596D01*
X-3420Y1596D01*
X-3271Y1657D01*
X-3157Y1771D01*
X-3096Y1920D01*
X-3095Y2035D01*
X-2505Y1445D01*
X-2431Y1395D01*
X-2431Y1395D01*
X-2343Y1378D01*
X-2149Y1378D01*
X-2230Y1344D01*
X-2344Y1230D01*
X-2405Y1081D01*
X-2406Y920D01*
X-2344Y771D01*
X-2230Y657D01*
X-2081Y596D01*
X-1920Y596D01*
X-1771Y657D01*
X-1733Y696D01*
X-1733Y448D01*
X-1715Y359D01*
X-1665Y285D01*
X-1405Y25D01*
X-1406Y-79D01*
X-1344Y-228D01*
X-1230Y-341D01*
X-1230Y-656D01*
X-1344Y-769D01*
X-1405Y-918D01*
X-1406Y-1079D01*
X-1344Y-1228D01*
X-1230Y-1342D01*
X-1081Y-1403D01*
X-920Y-1403D01*
X-771Y-1342D01*
X-713Y-1283D01*
X-713Y-3516D01*
X-695Y-3604D01*
X-645Y-3679D01*
X-405Y-3919D01*
X-406Y-4079D01*
X-344Y-4228D01*
X-230Y-4342D01*
X-81Y-4403D01*
X79Y-4403D01*
X228Y-4342D01*
X342Y-4228D01*
X403Y-4079D01*
X404Y-3918D01*
X342Y-3769D01*
X228Y-3655D01*
X79Y-3593D01*
X-80Y-3593D01*
X-253Y-3421D01*
X-253Y-1319D01*
X-230Y-1342D01*
X-81Y-1403D01*
X79Y-1403D01*
X228Y-1342D01*
X342Y-1228D01*
X403Y-1079D01*
X404Y-918D01*
X342Y-769D01*
X229Y-656D01*
X229Y-341D01*
X342Y-228D01*
X403Y-79D01*
X404Y80D01*
X919Y596D01*
X1079Y596D01*
X1228Y657D01*
X1269Y698D01*
X1269Y303D01*
X1228Y344D01*
X1079Y406D01*
X918Y406D01*
X769Y344D01*
X655Y230D01*
X594Y81D01*
X593Y-79D01*
X655Y-228D01*
X769Y-342D01*
X918Y-403D01*
X1079Y-403D01*
X1228Y-342D01*
X1269Y-301D01*
X1269Y-593D01*
X1248Y-593D01*
X698Y-593D01*
X650Y-613D01*
X613Y-650D01*
X594Y-697D01*
X594Y-749D01*
X594Y-1299D01*
X613Y-1347D01*
X650Y-1384D01*
X698Y-1403D01*
X749Y-1403D01*
X1269Y-1403D01*
X1269Y-3685D01*
X1242Y-3658D01*
X1215Y-3685D01*
X1183Y-3629D01*
X1027Y-3586D01*
X867Y-3607D01*
X815Y-3629D01*
X782Y-3685D01*
X999Y-3902D01*
X1004Y-3896D01*
X1101Y-3993D01*
X1095Y-3998D01*
X1101Y-4004D01*
X1004Y-4101D01*
X999Y-4095D01*
X902Y-4192D01*
X902Y-3998D01*
X686Y-3782D01*
X629Y-3814D01*
X587Y-3970D01*
X607Y-4130D01*
X629Y-4182D01*
X686Y-4215D01*
X902Y-3998D01*
X902Y-4192D01*
X782Y-4311D01*
X815Y-4368D01*
X970Y-4410D01*
X1130Y-4390D01*
X1183Y-4368D01*
X1215Y-4311D01*
X1215Y-4311D01*
X1242Y-4338D01*
X1269Y-4312D01*
X1269Y-4685D01*
X1242Y-4658D01*
X1215Y-4685D01*
X1215Y-4685D01*
X1183Y-4629D01*
X1027Y-4586D01*
X867Y-4607D01*
X815Y-4629D01*
X782Y-4685D01*
X999Y-4902D01*
X1004Y-4896D01*
X1101Y-4993D01*
X1095Y-4998D01*
X1101Y-5004D01*
X1004Y-5101D01*
X999Y-5095D01*
X902Y-5192D01*
X902Y-4998D01*
X686Y-4782D01*
X629Y-4814D01*
X587Y-4970D01*
X607Y-5130D01*
X629Y-5182D01*
X686Y-5215D01*
X902Y-4998D01*
X902Y-5192D01*
X782Y-5311D01*
X815Y-5368D01*
X970Y-5410D01*
X1130Y-5390D01*
X1183Y-5368D01*
X1215Y-5311D01*
X1215Y-5311D01*
X1242Y-5338D01*
X1269Y-5312D01*
X1269Y-5696D01*
X1228Y-5655D01*
X1215Y-5650D01*
X1079Y-5593D01*
X918Y-5593D01*
X769Y-5655D01*
X655Y-5769D01*
X594Y-5918D01*
X593Y-6079D01*
X655Y-6228D01*
X769Y-6342D01*
X918Y-6403D01*
X1079Y-6403D01*
X1228Y-6342D01*
X1269Y-6301D01*
X1269Y-6851D01*
X1206Y-6788D01*
X1057Y-6727D01*
X896Y-6726D01*
X747Y-6788D01*
X633Y-6902D01*
X572Y-7051D01*
X571Y-7212D01*
X633Y-7361D01*
X747Y-7475D01*
X896Y-7536D01*
X1057Y-7537D01*
X1206Y-7475D01*
X1269Y-7412D01*
X1269Y-7851D01*
X1206Y-7788D01*
X1057Y-7727D01*
X896Y-7726D01*
X747Y-7788D01*
X633Y-7902D01*
X572Y-8051D01*
X571Y-8212D01*
X633Y-8361D01*
X747Y-8475D01*
X896Y-8536D01*
X1057Y-8537D01*
X1206Y-8475D01*
X1269Y-8412D01*
X1269Y-9196D01*
X1229Y-9156D01*
X1080Y-9095D01*
X919Y-9094D01*
X770Y-9156D01*
X656Y-9270D01*
X595Y-9419D01*
X594Y-9580D01*
X656Y-9729D01*
X770Y-9843D01*
X919Y-9904D01*
X1080Y-9905D01*
X1229Y-9843D01*
X1269Y-9803D01*
X1269Y-10544D01*
X1104Y-10476D01*
X896Y-10476D01*
X703Y-10555D01*
X556Y-10703D01*
X523Y-10782D01*
X523Y-10580D01*
X503Y-10532D01*
X467Y-10496D01*
X419Y-10476D01*
X411Y-10476D01*
X411Y-9528D01*
X391Y-9368D01*
X382Y-9345D01*
X382Y-8381D01*
X382Y-7882D01*
X381Y-7831D01*
X362Y-7783D01*
X325Y-7746D01*
X277Y-7726D01*
X77Y-7727D01*
X45Y-7759D01*
X45Y-8063D01*
X349Y-8063D01*
X382Y-8031D01*
X382Y-7882D01*
X382Y-8381D01*
X382Y-8232D01*
X349Y-8200D01*
X45Y-8200D01*
X45Y-8504D01*
X77Y-8537D01*
X277Y-8537D01*
X325Y-8517D01*
X362Y-8480D01*
X381Y-8432D01*
X382Y-8381D01*
X382Y-9345D01*
X369Y-9315D01*
X313Y-9283D01*
X216Y-9380D01*
X216Y-9186D01*
X184Y-9130D01*
X28Y-9088D01*
X-91Y-9103D01*
X-91Y-8504D01*
X-91Y-8200D01*
X-91Y-8063D01*
X-91Y-7759D01*
X-123Y-7727D01*
X-323Y-7726D01*
X-371Y-7746D01*
X-408Y-7783D01*
X-427Y-7831D01*
X-428Y-7882D01*
X-428Y-8031D01*
X-395Y-8063D01*
X-91Y-8063D01*
X-91Y-8200D01*
X-395Y-8200D01*
X-428Y-8232D01*
X-428Y-8381D01*
X-427Y-8432D01*
X-408Y-8480D01*
X-371Y-8517D01*
X-323Y-8537D01*
X-123Y-8537D01*
X-91Y-8504D01*
X-91Y-9103D01*
X-131Y-9108D01*
X-184Y-9130D01*
X-216Y-9186D01*
X0Y-9403D01*
X216Y-9186D01*
X216Y-9380D01*
X96Y-9500D01*
X313Y-9716D01*
X369Y-9684D01*
X411Y-9528D01*
X411Y-10476D01*
X367Y-10476D01*
X216Y-10476D01*
X216Y-9813D01*
X0Y-9596D01*
X-96Y-9693D01*
X-96Y-9500D01*
X-313Y-9283D01*
X-369Y-9315D01*
X-411Y-9471D01*
X-391Y-9631D01*
X-369Y-9684D01*
X-313Y-9716D01*
X-96Y-9500D01*
X-96Y-9693D01*
X-216Y-9813D01*
X-184Y-9869D01*
X-28Y-9911D01*
X131Y-9891D01*
X184Y-9869D01*
X216Y-9813D01*
X216Y-10476D01*
X100Y-10476D01*
X68Y-10509D01*
X68Y-10931D01*
X76Y-10931D01*
X76Y-11068D01*
X68Y-11068D01*
X68Y-11491D01*
X100Y-11523D01*
X367Y-11523D01*
X419Y-11523D01*
X467Y-11503D01*
X503Y-11467D01*
X523Y-11419D01*
X523Y-11217D01*
X555Y-11296D01*
X703Y-11443D01*
X895Y-11523D01*
X1103Y-11523D01*
X1269Y-11455D01*
X1269Y-12093D01*
X1269Y-12093D01*
G37*
G54D26*
X1269Y-12093D02*
X-68Y-12093D01*
X-68Y-11491D01*
X-68Y-11068D01*
X-76Y-11068D01*
X-76Y-10931D01*
X-68Y-10931D01*
X-68Y-10509D01*
X-100Y-10476D01*
X-367Y-10476D01*
X-419Y-10476D01*
X-467Y-10496D01*
X-503Y-10532D01*
X-523Y-10580D01*
X-523Y-10782D01*
X-555Y-10703D01*
X-594Y-10664D01*
X-594Y-9419D01*
X-656Y-9270D01*
X-770Y-9156D01*
X-919Y-9095D01*
X-1080Y-9094D01*
X-1229Y-9156D01*
X-1343Y-9270D01*
X-1404Y-9419D01*
X-1405Y-9580D01*
X-1343Y-9729D01*
X-1229Y-9843D01*
X-1080Y-9904D01*
X-919Y-9905D01*
X-770Y-9843D01*
X-656Y-9729D01*
X-595Y-9580D01*
X-594Y-9419D01*
X-594Y-10664D01*
X-703Y-10556D01*
X-895Y-10476D01*
X-1103Y-10476D01*
X-1296Y-10555D01*
X-1443Y-10703D01*
X-1476Y-10782D01*
X-1476Y-10580D01*
X-1496Y-10532D01*
X-1532Y-10496D01*
X-1577Y-10477D01*
X-1577Y-8381D01*
X-1578Y-8232D01*
X-1610Y-8200D01*
X-1914Y-8200D01*
X-1914Y-8504D01*
X-1882Y-8537D01*
X-1682Y-8537D01*
X-1634Y-8517D01*
X-1597Y-8480D01*
X-1578Y-8432D01*
X-1577Y-8381D01*
X-1577Y-10477D01*
X-1580Y-10476D01*
X-1588Y-10476D01*
X-1588Y-9528D01*
X-1608Y-9368D01*
X-1630Y-9315D01*
X-1686Y-9283D01*
X-1783Y-9380D01*
X-1903Y-9500D01*
X-1686Y-9716D01*
X-1630Y-9684D01*
X-1588Y-9528D01*
X-1588Y-10476D01*
X-1632Y-10476D01*
X-1783Y-10476D01*
X-1899Y-10476D01*
X-1931Y-10509D01*
X-1931Y-10931D01*
X-1923Y-10931D01*
X-1923Y-11068D01*
X-1931Y-11068D01*
X-1931Y-11491D01*
X-1899Y-11523D01*
X-1632Y-11523D01*
X-1580Y-11523D01*
X-1532Y-11503D01*
X-1496Y-11467D01*
X-1476Y-11419D01*
X-1476Y-11217D01*
X-1444Y-11296D01*
X-1296Y-11443D01*
X-1104Y-11523D01*
X-896Y-11523D01*
X-703Y-11444D01*
X-556Y-11296D01*
X-523Y-11217D01*
X-523Y-11419D01*
X-503Y-11467D01*
X-467Y-11503D01*
X-419Y-11523D01*
X-367Y-11523D01*
X-100Y-11523D01*
X-68Y-11491D01*
X-68Y-12093D01*
X-2231Y-12093D01*
X-2231Y-11523D01*
X-2100Y-11523D01*
X-2068Y-11491D01*
X-2068Y-11068D01*
X-2076Y-11068D01*
X-2076Y-10931D01*
X-2068Y-10931D01*
X-2068Y-10509D01*
X-2100Y-10476D01*
X-2231Y-10476D01*
X-2231Y-9828D01*
X-2216Y-9813D01*
X-2184Y-9869D01*
X-2028Y-9911D01*
X-1868Y-9891D01*
X-1815Y-9869D01*
X-1783Y-9813D01*
X-2000Y-9596D01*
X-2005Y-9602D01*
X-2102Y-9505D01*
X-2096Y-9500D01*
X-2102Y-9494D01*
X-2005Y-9397D01*
X-2000Y-9403D01*
X-1783Y-9186D01*
X-1815Y-9130D01*
X-1971Y-9088D01*
X-2131Y-9108D01*
X-2184Y-9130D01*
X-2216Y-9186D01*
X-2231Y-9171D01*
X-2231Y-8537D01*
X-2083Y-8537D01*
X-2051Y-8504D01*
X-2051Y-8200D01*
X-2059Y-8200D01*
X-2059Y-8063D01*
X-2051Y-8063D01*
X-2051Y-7759D01*
X-2083Y-7727D01*
X-2231Y-7726D01*
X-2231Y-6341D01*
X-2230Y-6342D01*
X-2081Y-6403D01*
X-1920Y-6403D01*
X-1771Y-6342D01*
X-1733Y-6303D01*
X-1733Y-6592D01*
X-1733Y-7612D01*
X-1715Y-7700D01*
X-1697Y-7726D01*
X-1882Y-7727D01*
X-1914Y-7759D01*
X-1914Y-8063D01*
X-1610Y-8063D01*
X-1578Y-8031D01*
X-1577Y-7882D01*
X-1577Y-7862D01*
X-1387Y-8052D01*
X-1388Y-8212D01*
X-1326Y-8361D01*
X-1212Y-8475D01*
X-1063Y-8536D01*
X-902Y-8537D01*
X-753Y-8475D01*
X-639Y-8361D01*
X-578Y-8212D01*
X-577Y-8051D01*
X-639Y-7902D01*
X-753Y-7788D01*
X-902Y-7727D01*
X-1062Y-7726D01*
X-1273Y-7516D01*
X-1273Y-7414D01*
X-1212Y-7475D01*
X-1063Y-7536D01*
X-902Y-7537D01*
X-753Y-7475D01*
X-639Y-7361D01*
X-578Y-7212D01*
X-577Y-7051D01*
X-639Y-6902D01*
X-753Y-6788D01*
X-902Y-6727D01*
X-1063Y-6726D01*
X-1212Y-6788D01*
X-1273Y-6849D01*
X-1273Y-6592D01*
X-1273Y-6299D01*
X-1230Y-6342D01*
X-1081Y-6403D01*
X-920Y-6403D01*
X-771Y-6342D01*
X-657Y-6228D01*
X-596Y-6079D01*
X-595Y-5918D01*
X-657Y-5769D01*
X-771Y-5655D01*
X-920Y-5593D01*
X-1081Y-5593D01*
X-1230Y-5655D01*
X-1273Y-5698D01*
X-1273Y-5299D01*
X-1230Y-5342D01*
X-1081Y-5403D01*
X-921Y-5403D01*
X-405Y-5919D01*
X-406Y-6079D01*
X-344Y-6228D01*
X-230Y-6342D01*
X-81Y-6403D01*
X79Y-6403D01*
X228Y-6342D01*
X342Y-6228D01*
X403Y-6079D01*
X404Y-5918D01*
X404Y-4918D01*
X342Y-4769D01*
X228Y-4655D01*
X79Y-4593D01*
X-81Y-4593D01*
X-230Y-4655D01*
X-344Y-4769D01*
X-405Y-4918D01*
X-406Y-5079D01*
X-344Y-5228D01*
X-230Y-5342D01*
X-81Y-5403D01*
X79Y-5403D01*
X228Y-5342D01*
X342Y-5228D01*
X403Y-5079D01*
X404Y-4918D01*
X404Y-5918D01*
X342Y-5769D01*
X228Y-5655D01*
X79Y-5593D01*
X-80Y-5593D01*
X-596Y-5078D01*
X-595Y-4918D01*
X-657Y-4769D01*
X-770Y-4656D01*
X-770Y-4341D01*
X-657Y-4228D01*
X-596Y-4079D01*
X-595Y-3918D01*
X-657Y-3769D01*
X-771Y-3655D01*
X-920Y-3593D01*
X-1081Y-3593D01*
X-1230Y-3655D01*
X-1273Y-3698D01*
X-1273Y-3134D01*
X-1290Y-3045D01*
X-1290Y-3045D01*
X-1340Y-2971D01*
X-1770Y-2540D01*
X-1770Y-1341D01*
X-1657Y-1228D01*
X-1596Y-1079D01*
X-1595Y-918D01*
X-1657Y-769D01*
X-1770Y-656D01*
X-1770Y-341D01*
X-1657Y-228D01*
X-1596Y-79D01*
X-1595Y81D01*
X-1657Y230D01*
X-1771Y344D01*
X-1920Y406D01*
X-2080Y406D01*
X-2838Y1163D01*
X-2912Y1213D01*
X-3000Y1231D01*
X-3158Y1231D01*
X-3271Y1344D01*
X-3420Y1406D01*
X-3581Y1406D01*
X-3730Y1344D01*
X-3844Y1230D01*
X-3905Y1081D01*
X-3906Y920D01*
X-3844Y771D01*
X-3730Y657D01*
X-3581Y596D01*
X-3420Y596D01*
X-3271Y657D01*
X-3158Y771D01*
X-3096Y771D01*
X-2656Y331D01*
X-4232Y331D01*
X-4232Y633D01*
X-4232Y1182D01*
X-4233Y1233D01*
X-4252Y1281D01*
X-4289Y1318D01*
X-4337Y1338D01*
X-4562Y1338D01*
X-4594Y1305D01*
X-4594Y976D01*
X-4265Y976D01*
X-4233Y1008D01*
X-4232Y1182D01*
X-4232Y633D01*
X-4233Y807D01*
X-4265Y839D01*
X-4594Y839D01*
X-4594Y510D01*
X-4562Y478D01*
X-4337Y477D01*
X-4289Y497D01*
X-4252Y534D01*
X-4233Y582D01*
X-4232Y633D01*
X-4232Y331D01*
X-4731Y331D01*
X-4731Y510D01*
X-4731Y839D01*
X-4731Y976D01*
X-4731Y1305D01*
X-4763Y1338D01*
X-4988Y1338D01*
X-5036Y1318D01*
X-5073Y1281D01*
X-5092Y1233D01*
X-5093Y1182D01*
X-5093Y1008D01*
X-5060Y976D01*
X-4731Y976D01*
X-4731Y839D01*
X-5060Y839D01*
X-5093Y807D01*
X-5093Y633D01*
X-5092Y582D01*
X-5073Y534D01*
X-5036Y497D01*
X-4988Y477D01*
X-4763Y478D01*
X-4731Y510D01*
X-4731Y331D01*
X-5914Y331D01*
X-5762Y483D01*
X-5748Y478D01*
X-5577Y477D01*
X-5419Y543D01*
X-5298Y664D01*
X-5233Y822D01*
X-5232Y993D01*
X-5298Y1151D01*
X-5419Y1272D01*
X-5577Y1337D01*
X-5748Y1338D01*
X-5906Y1272D01*
X-6027Y1151D01*
X-6092Y993D01*
X-6093Y822D01*
X-6087Y808D01*
X-6258Y638D01*
X-6264Y638D01*
X-6264Y2026D01*
X-6329Y2182D01*
X-6448Y2302D01*
X-6604Y2367D01*
X-6774Y2367D01*
X-6930Y2302D01*
X-7050Y2183D01*
X-7115Y2026D01*
X-7115Y1857D01*
X-7050Y1701D01*
X-6931Y1581D01*
X-6774Y1516D01*
X-6605Y1516D01*
X-6449Y1581D01*
X-6329Y1700D01*
X-6264Y1857D01*
X-6264Y2026D01*
X-6264Y638D01*
X-7209Y638D01*
X-7209Y648D01*
X-7209Y1318D01*
X-7209Y1633D01*
X-7209Y2302D01*
X-7229Y2350D01*
X-7265Y2386D01*
X-7313Y2406D01*
X-7365Y2406D01*
X-7937Y2406D01*
X-7937Y5511D01*
X-7937Y6298D01*
X-7957Y6346D01*
X-7994Y6382D01*
X-8041Y6402D01*
X-8093Y6402D01*
X-9274Y6402D01*
X-9322Y6382D01*
X-9359Y6346D01*
X-9378Y6298D01*
X-9379Y6246D01*
X-9379Y5459D01*
X-9359Y5411D01*
X-9322Y5375D01*
X-9274Y5355D01*
X-9223Y5355D01*
X-8042Y5355D01*
X-7994Y5375D01*
X-7957Y5411D01*
X-7937Y5459D01*
X-7937Y5511D01*
X-7937Y2406D01*
X-8034Y2406D01*
X-8082Y2386D01*
X-8118Y2350D01*
X-8138Y2302D01*
X-8138Y2250D01*
X-8138Y1581D01*
X-8119Y1533D01*
X-8082Y1497D01*
X-8034Y1477D01*
X-7983Y1477D01*
X-7313Y1477D01*
X-7265Y1497D01*
X-7229Y1533D01*
X-7209Y1581D01*
X-7209Y1633D01*
X-7209Y1318D01*
X-7229Y1365D01*
X-7265Y1402D01*
X-7313Y1422D01*
X-7365Y1422D01*
X-8034Y1422D01*
X-8082Y1402D01*
X-8118Y1366D01*
X-8138Y1318D01*
X-8138Y1266D01*
X-8138Y763D01*
X-8193Y818D01*
X-8193Y1318D01*
X-8213Y1365D01*
X-8250Y1402D01*
X-8297Y1422D01*
X-8349Y1422D01*
X-8428Y1422D01*
X-8428Y1477D01*
X-8298Y1477D01*
X-8250Y1497D01*
X-8213Y1533D01*
X-8193Y1581D01*
X-8193Y1633D01*
X-8193Y2302D01*
X-8213Y2350D01*
X-8233Y2369D01*
X-8233Y3994D01*
X-8297Y4151D01*
X-8417Y4270D01*
X-8573Y4335D01*
X-8742Y4335D01*
X-8899Y4271D01*
X-9018Y4151D01*
X-9083Y3995D01*
X-9083Y3826D01*
X-9019Y3669D01*
X-8899Y3550D01*
X-8743Y3485D01*
X-8574Y3485D01*
X-8417Y3549D01*
X-8298Y3669D01*
X-8233Y3825D01*
X-8233Y3994D01*
X-8233Y2369D01*
X-8250Y2386D01*
X-8297Y2406D01*
X-8349Y2406D01*
X-9018Y2406D01*
X-9066Y2386D01*
X-9103Y2350D01*
X-9123Y2302D01*
X-9123Y2250D01*
X-9123Y1581D01*
X-9103Y1533D01*
X-9066Y1497D01*
X-9019Y1477D01*
X-8967Y1477D01*
X-8888Y1477D01*
X-8888Y1422D01*
X-9018Y1422D01*
X-9066Y1402D01*
X-9103Y1366D01*
X-9123Y1318D01*
X-9123Y1266D01*
X-9123Y597D01*
X-9103Y549D01*
X-9066Y512D01*
X-9019Y493D01*
X-8967Y493D01*
X-8519Y493D01*
X-8357Y331D01*
X-9178Y331D01*
X-9178Y648D01*
X-9178Y1318D01*
X-9178Y1633D01*
X-9178Y2302D01*
X-9197Y2350D01*
X-9234Y2386D01*
X-9282Y2406D01*
X-9333Y2406D01*
X-10003Y2406D01*
X-10050Y2386D01*
X-10087Y2350D01*
X-10103Y2312D01*
X-10103Y3345D01*
X-10103Y4526D01*
X-10122Y4574D01*
X-10159Y4611D01*
X-10201Y4628D01*
X-10201Y5884D01*
X-10266Y6040D01*
X-10385Y6160D01*
X-10541Y6225D01*
X-10711Y6225D01*
X-10867Y6161D01*
X-10987Y6041D01*
X-11052Y5885D01*
X-11052Y5716D01*
X-10987Y5559D01*
X-10868Y5439D01*
X-10711Y5375D01*
X-10542Y5374D01*
X-10386Y5439D01*
X-10266Y5559D01*
X-10201Y5715D01*
X-10201Y5884D01*
X-10201Y4628D01*
X-10207Y4631D01*
X-10258Y4631D01*
X-11046Y4631D01*
X-11094Y4611D01*
X-11130Y4574D01*
X-11150Y4527D01*
X-11150Y4475D01*
X-11150Y3976D01*
X-11596Y4421D01*
X-11595Y4581D01*
X-11657Y4730D01*
X-11771Y4844D01*
X-11920Y4906D01*
X-12081Y4906D01*
X-12230Y4844D01*
X-12344Y4730D01*
X-12405Y4581D01*
X-12406Y4420D01*
X-12344Y4271D01*
X-12230Y4157D01*
X-12081Y4096D01*
X-11921Y4096D01*
X-11376Y3551D01*
X-11301Y3501D01*
X-11301Y3501D01*
X-11213Y3483D01*
X-11150Y3483D01*
X-11150Y3294D01*
X-11130Y3246D01*
X-11094Y3209D01*
X-11046Y3189D01*
X-10994Y3189D01*
X-10207Y3189D01*
X-10159Y3209D01*
X-10123Y3246D01*
X-10103Y3293D01*
X-10103Y3345D01*
X-10103Y2312D01*
X-10107Y2302D01*
X-10107Y2250D01*
X-10107Y1581D01*
X-10087Y1533D01*
X-10051Y1497D01*
X-10003Y1477D01*
X-9951Y1477D01*
X-9282Y1477D01*
X-9234Y1497D01*
X-9197Y1533D01*
X-9178Y1581D01*
X-9178Y1633D01*
X-9178Y1318D01*
X-9197Y1365D01*
X-9234Y1402D01*
X-9282Y1422D01*
X-9333Y1422D01*
X-10003Y1422D01*
X-10050Y1402D01*
X-10087Y1366D01*
X-10107Y1318D01*
X-10107Y1266D01*
X-10107Y597D01*
X-10087Y549D01*
X-10051Y512D01*
X-10003Y493D01*
X-9951Y493D01*
X-9282Y493D01*
X-9234Y512D01*
X-9197Y549D01*
X-9178Y597D01*
X-9178Y648D01*
X-9178Y331D01*
X-10201Y331D01*
X-10201Y2026D01*
X-10266Y2182D01*
X-10385Y2302D01*
X-10541Y2367D01*
X-10711Y2367D01*
X-10867Y2302D01*
X-10987Y2183D01*
X-11052Y2026D01*
X-11052Y1857D01*
X-10987Y1701D01*
X-10868Y1581D01*
X-10711Y1516D01*
X-10542Y1516D01*
X-10386Y1581D01*
X-10266Y1700D01*
X-10201Y1857D01*
X-10201Y2026D01*
X-10201Y331D01*
X-11595Y331D01*
X-11595Y2581D01*
X-11657Y2730D01*
X-11771Y2844D01*
X-11920Y2906D01*
X-12081Y2906D01*
X-12230Y2844D01*
X-12344Y2730D01*
X-12405Y2581D01*
X-12406Y2420D01*
X-12344Y2271D01*
X-12230Y2157D01*
X-12081Y2096D01*
X-11920Y2096D01*
X-11771Y2157D01*
X-11657Y2271D01*
X-11596Y2420D01*
X-11595Y2581D01*
X-11595Y331D01*
X-12470Y331D01*
X-12470Y6771D01*
X1269Y6771D01*
X1269Y2468D01*
X1226Y2511D01*
X1077Y2572D01*
X920Y2573D01*
X920Y3345D01*
X920Y4526D01*
X900Y4574D01*
X864Y4611D01*
X816Y4631D01*
X764Y4631D01*
X762Y4631D01*
X762Y5609D01*
X762Y6200D01*
X743Y6247D01*
X706Y6284D01*
X658Y6304D01*
X607Y6304D01*
X16Y6304D01*
X-31Y6284D01*
X-67Y6248D01*
X-87Y6200D01*
X-87Y6148D01*
X-87Y5558D01*
X-67Y5510D01*
X-31Y5473D01*
X16Y5453D01*
X68Y5453D01*
X658Y5453D01*
X706Y5473D01*
X743Y5510D01*
X762Y5557D01*
X762Y5609D01*
X762Y4631D01*
X-22Y4631D01*
X-70Y4611D01*
X-107Y4574D01*
X-126Y4527D01*
X-127Y4475D01*
X-127Y3294D01*
X-107Y3246D01*
X-70Y3209D01*
X-22Y3189D01*
X28Y3189D01*
X816Y3189D01*
X863Y3209D01*
X900Y3246D01*
X920Y3293D01*
X920Y3345D01*
X920Y2573D01*
X916Y2573D01*
X767Y2511D01*
X653Y2397D01*
X592Y2248D01*
X591Y2087D01*
X653Y1938D01*
X767Y1824D01*
X916Y1763D01*
X1077Y1762D01*
X1226Y1824D01*
X1269Y1867D01*
X1269Y1303D01*
X1228Y1344D01*
X1079Y1406D01*
X918Y1406D01*
X769Y1344D01*
X655Y1230D01*
X594Y1081D01*
X593Y921D01*
X78Y406D01*
X-81Y406D01*
X-230Y344D01*
X-253Y321D01*
X-253Y680D01*
X-230Y657D01*
X-81Y596D01*
X79Y596D01*
X228Y657D01*
X342Y771D01*
X403Y920D01*
X404Y1081D01*
X402Y1086D01*
X402Y2248D01*
X340Y2397D01*
X226Y2511D01*
X77Y2572D01*
X-83Y2573D01*
X-232Y2511D01*
X-346Y2397D01*
X-407Y2248D01*
X-408Y2087D01*
X-346Y1938D01*
X-232Y1824D01*
X-83Y1763D01*
X77Y1762D01*
X226Y1824D01*
X340Y1938D01*
X401Y2087D01*
X402Y2248D01*
X402Y1086D01*
X342Y1230D01*
X228Y1344D01*
X79Y1406D01*
X-81Y1406D01*
X-230Y1344D01*
X-253Y1321D01*
X-253Y1648D01*
X-270Y1736D01*
X-270Y1736D01*
X-320Y1810D01*
X-598Y2088D01*
X-597Y2248D01*
X-659Y2397D01*
X-773Y2511D01*
X-910Y2568D01*
X-910Y5511D01*
X-910Y6298D01*
X-930Y6346D01*
X-966Y6382D01*
X-1014Y6402D01*
X-1066Y6402D01*
X-2247Y6402D01*
X-2294Y6382D01*
X-2331Y6346D01*
X-2351Y6298D01*
X-2351Y6246D01*
X-2351Y5459D01*
X-2331Y5411D01*
X-2295Y5375D01*
X-2247Y5355D01*
X-2195Y5355D01*
X-1014Y5355D01*
X-966Y5375D01*
X-930Y5411D01*
X-910Y5459D01*
X-910Y5511D01*
X-910Y2568D01*
X-922Y2572D01*
X-1083Y2573D01*
X-1205Y2522D01*
X-1205Y3994D01*
X-1270Y4151D01*
X-1389Y4270D01*
X-1545Y4335D01*
X-1715Y4335D01*
X-1871Y4271D01*
X-1991Y4151D01*
X-2056Y3995D01*
X-2056Y3826D01*
X-1991Y3669D01*
X-1872Y3550D01*
X-1715Y3485D01*
X-1546Y3485D01*
X-1390Y3549D01*
X-1270Y3669D01*
X-1205Y3825D01*
X-1205Y3994D01*
X-1205Y2522D01*
X-1232Y2511D01*
X-1346Y2397D01*
X-1407Y2248D01*
X-1408Y2087D01*
X-1346Y1938D01*
X-1232Y1824D01*
X-1083Y1763D01*
X-923Y1762D01*
X-713Y1552D01*
X-713Y1285D01*
X-771Y1344D01*
X-920Y1406D01*
X-1081Y1406D01*
X-1230Y1344D01*
X-1273Y1301D01*
X-1273Y1308D01*
X-1273Y1308D01*
X-1273Y1308D01*
X-1290Y1396D01*
X-1340Y1470D01*
X-1340Y1470D01*
X-1640Y1770D01*
X-1714Y1820D01*
X-1767Y1830D01*
X-1767Y1830D01*
X-1659Y1938D01*
X-1598Y2087D01*
X-1597Y2248D01*
X-1659Y2397D01*
X-1773Y2511D01*
X-1922Y2572D01*
X-2083Y2573D01*
X-2232Y2511D01*
X-2346Y2397D01*
X-2407Y2248D01*
X-2408Y2087D01*
X-2346Y1938D01*
X-2245Y1838D01*
X-2247Y1838D01*
X-3073Y2663D01*
X-3134Y2704D01*
X-3134Y3345D01*
X-3134Y4526D01*
X-3154Y4574D01*
X-3174Y4594D01*
X-3174Y5609D01*
X-3174Y6200D01*
X-3193Y6247D01*
X-3230Y6284D01*
X-3278Y6304D01*
X-3329Y6304D01*
X-3920Y6304D01*
X-3968Y6284D01*
X-4004Y6248D01*
X-4024Y6200D01*
X-4024Y6148D01*
X-4024Y5558D01*
X-4004Y5510D01*
X-3968Y5473D01*
X-3920Y5453D01*
X-3868Y5453D01*
X-3278Y5453D01*
X-3230Y5473D01*
X-3193Y5510D01*
X-3174Y5557D01*
X-3174Y5609D01*
X-3174Y4594D01*
X-3190Y4611D01*
X-3238Y4631D01*
X-3290Y4631D01*
X-4077Y4631D01*
X-4100Y4621D01*
X-4124Y4680D01*
X-4153Y4709D01*
X-4153Y5784D01*
X-4153Y5784D01*
X-4153Y5784D01*
X-4170Y5872D01*
X-4220Y5947D01*
X-4220Y5947D01*
X-4270Y5997D01*
X-4257Y6027D01*
X-4257Y6210D01*
X-4327Y6379D01*
X-4456Y6508D01*
X-4625Y6579D01*
X-4808Y6579D01*
X-4977Y6509D01*
X-5107Y6380D01*
X-5177Y6211D01*
X-5177Y6028D01*
X-5107Y5858D01*
X-4978Y5729D01*
X-4809Y5659D01*
X-4626Y5659D01*
X-4613Y5664D01*
X-4613Y4709D01*
X-4638Y4684D01*
X-4657Y4730D01*
X-4771Y4844D01*
X-4920Y4906D01*
X-5081Y4906D01*
X-5230Y4844D01*
X-5250Y4824D01*
X-5250Y6077D01*
X-5269Y6259D01*
X-5301Y6336D01*
X-5364Y6375D01*
X-5461Y6278D01*
X-5461Y6472D01*
X-5500Y6534D01*
X-5675Y6586D01*
X-5857Y6566D01*
X-5934Y6534D01*
X-5973Y6472D01*
X-5717Y6215D01*
X-5461Y6472D01*
X-5461Y6278D01*
X-5620Y6119D01*
X-5364Y5862D01*
X-5301Y5901D01*
X-5250Y6077D01*
X-5250Y4824D01*
X-5343Y4731D01*
X-5461Y4731D01*
X-5461Y5765D01*
X-5717Y6022D01*
X-5814Y5925D01*
X-5814Y6119D01*
X-6070Y6375D01*
X-6133Y6336D01*
X-6184Y6160D01*
X-6165Y5979D01*
X-6133Y5901D01*
X-6070Y5862D01*
X-5814Y6119D01*
X-5814Y5925D01*
X-5973Y5765D01*
X-5934Y5703D01*
X-5759Y5652D01*
X-5577Y5671D01*
X-5500Y5703D01*
X-5461Y5765D01*
X-5461Y4731D01*
X-6000Y4731D01*
X-6088Y4713D01*
X-6163Y4663D01*
X-6163Y4663D01*
X-6219Y4608D01*
X-6222Y4611D01*
X-6264Y4628D01*
X-6264Y5963D01*
X-6329Y6119D01*
X-6448Y6239D01*
X-6604Y6304D01*
X-6774Y6304D01*
X-6930Y6239D01*
X-7050Y6120D01*
X-7115Y5963D01*
X-7115Y5794D01*
X-7050Y5638D01*
X-6931Y5518D01*
X-6774Y5453D01*
X-6605Y5453D01*
X-6449Y5518D01*
X-6329Y5637D01*
X-6264Y5794D01*
X-6264Y5963D01*
X-6264Y4628D01*
X-6270Y4631D01*
X-6321Y4631D01*
X-7109Y4631D01*
X-7157Y4611D01*
X-7193Y4574D01*
X-7213Y4527D01*
X-7213Y4475D01*
X-7213Y3294D01*
X-7193Y3246D01*
X-7157Y3209D01*
X-7109Y3189D01*
X-7057Y3189D01*
X-6270Y3189D01*
X-6222Y3209D01*
X-6186Y3246D01*
X-6166Y3293D01*
X-6166Y3345D01*
X-6166Y4010D01*
X-5905Y4271D01*
X-5343Y4271D01*
X-5230Y4157D01*
X-5081Y4096D01*
X-4920Y4096D01*
X-4771Y4157D01*
X-4657Y4271D01*
X-4634Y4328D01*
X-4555Y4249D01*
X-4443Y4203D01*
X-4322Y4202D01*
X-4210Y4249D01*
X-4182Y4277D01*
X-4182Y3294D01*
X-4162Y3246D01*
X-4125Y3209D01*
X-4078Y3189D01*
X-4026Y3189D01*
X-3238Y3189D01*
X-3191Y3209D01*
X-3154Y3246D01*
X-3134Y3293D01*
X-3134Y3345D01*
X-3134Y2704D01*
X-3148Y2713D01*
X-3236Y2731D01*
X-4658Y2731D01*
X-4771Y2844D01*
X-4920Y2906D01*
X-5081Y2906D01*
X-5230Y2844D01*
X-5344Y2730D01*
X-5405Y2581D01*
X-5406Y2420D01*
X-5344Y2271D01*
X-5230Y2157D01*
X-5081Y2096D01*
X-4920Y2096D01*
X-4771Y2157D01*
X-4658Y2271D01*
X-3803Y2271D01*
X-3844Y2230D01*
X-3905Y2081D01*
X-3906Y1920D01*
X-3844Y1771D01*
X-3730Y1657D01*
X-3581Y1596D01*
X-3420Y1596D01*
X-3271Y1657D01*
X-3157Y1771D01*
X-3096Y1920D01*
X-3095Y2035D01*
X-2505Y1445D01*
X-2431Y1395D01*
X-2431Y1395D01*
X-2343Y1378D01*
X-2149Y1378D01*
X-2230Y1344D01*
X-2344Y1230D01*
X-2405Y1081D01*
X-2406Y920D01*
X-2344Y771D01*
X-2230Y657D01*
X-2081Y596D01*
X-1920Y596D01*
X-1771Y657D01*
X-1733Y696D01*
X-1733Y448D01*
X-1715Y359D01*
X-1665Y285D01*
X-1405Y25D01*
X-1406Y-79D01*
X-1344Y-228D01*
X-1230Y-341D01*
X-1230Y-656D01*
X-1344Y-769D01*
X-1405Y-918D01*
X-1406Y-1079D01*
X-1344Y-1228D01*
X-1230Y-1342D01*
X-1081Y-1403D01*
X-920Y-1403D01*
X-771Y-1342D01*
X-713Y-1283D01*
X-713Y-3516D01*
X-695Y-3604D01*
X-645Y-3679D01*
X-405Y-3919D01*
X-406Y-4079D01*
X-344Y-4228D01*
X-230Y-4342D01*
X-81Y-4403D01*
X79Y-4403D01*
X228Y-4342D01*
X342Y-4228D01*
X403Y-4079D01*
X404Y-3918D01*
X342Y-3769D01*
X228Y-3655D01*
X79Y-3593D01*
X-80Y-3593D01*
X-253Y-3421D01*
X-253Y-1319D01*
X-230Y-1342D01*
X-81Y-1403D01*
X79Y-1403D01*
X228Y-1342D01*
X342Y-1228D01*
X403Y-1079D01*
X404Y-918D01*
X342Y-769D01*
X229Y-656D01*
X229Y-341D01*
X342Y-228D01*
X403Y-79D01*
X404Y80D01*
X919Y596D01*
X1079Y596D01*
X1228Y657D01*
X1269Y698D01*
X1269Y303D01*
X1228Y344D01*
X1079Y406D01*
X918Y406D01*
X769Y344D01*
X655Y230D01*
X594Y81D01*
X593Y-79D01*
X655Y-228D01*
X769Y-342D01*
X918Y-403D01*
X1079Y-403D01*
X1228Y-342D01*
X1269Y-301D01*
X1269Y-593D01*
X1248Y-593D01*
X698Y-593D01*
X650Y-613D01*
X613Y-650D01*
X594Y-697D01*
X594Y-749D01*
X594Y-1299D01*
X613Y-1347D01*
X650Y-1384D01*
X698Y-1403D01*
X749Y-1403D01*
X1269Y-1403D01*
X1269Y-3685D01*
X1242Y-3658D01*
X1215Y-3685D01*
X1183Y-3629D01*
X1027Y-3586D01*
X867Y-3607D01*
X815Y-3629D01*
X782Y-3685D01*
X999Y-3902D01*
X1004Y-3896D01*
X1101Y-3993D01*
X1095Y-3998D01*
X1101Y-4004D01*
X1004Y-4101D01*
X999Y-4095D01*
X902Y-4192D01*
X902Y-3998D01*
X686Y-3782D01*
X629Y-3814D01*
X587Y-3970D01*
X607Y-4130D01*
X629Y-4182D01*
X686Y-4215D01*
X902Y-3998D01*
X902Y-4192D01*
X782Y-4311D01*
X815Y-4368D01*
X970Y-4410D01*
X1130Y-4390D01*
X1183Y-4368D01*
X1215Y-4311D01*
X1215Y-4311D01*
X1242Y-4338D01*
X1269Y-4312D01*
X1269Y-4685D01*
X1242Y-4658D01*
X1215Y-4685D01*
X1215Y-4685D01*
X1183Y-4629D01*
X1027Y-4586D01*
X867Y-4607D01*
X815Y-4629D01*
X782Y-4685D01*
X999Y-4902D01*
X1004Y-4896D01*
X1101Y-4993D01*
X1095Y-4998D01*
X1101Y-5004D01*
X1004Y-5101D01*
X999Y-5095D01*
X902Y-5192D01*
X902Y-4998D01*
X686Y-4782D01*
X629Y-4814D01*
X587Y-4970D01*
X607Y-5130D01*
X629Y-5182D01*
X686Y-5215D01*
X902Y-4998D01*
X902Y-5192D01*
X782Y-5311D01*
X815Y-5368D01*
X970Y-5410D01*
X1130Y-5390D01*
X1183Y-5368D01*
X1215Y-5311D01*
X1215Y-5311D01*
X1242Y-5338D01*
X1269Y-5312D01*
X1269Y-5696D01*
X1228Y-5655D01*
X1215Y-5650D01*
X1079Y-5593D01*
X918Y-5593D01*
X769Y-5655D01*
X655Y-5769D01*
X594Y-5918D01*
X593Y-6079D01*
X655Y-6228D01*
X769Y-6342D01*
X918Y-6403D01*
X1079Y-6403D01*
X1228Y-6342D01*
X1269Y-6301D01*
X1269Y-6851D01*
X1206Y-6788D01*
X1057Y-6727D01*
X896Y-6726D01*
X747Y-6788D01*
X633Y-6902D01*
X572Y-7051D01*
X571Y-7212D01*
X633Y-7361D01*
X747Y-7475D01*
X896Y-7536D01*
X1057Y-7537D01*
X1206Y-7475D01*
X1269Y-7412D01*
X1269Y-7851D01*
X1206Y-7788D01*
X1057Y-7727D01*
X896Y-7726D01*
X747Y-7788D01*
X633Y-7902D01*
X572Y-8051D01*
X571Y-8212D01*
X633Y-8361D01*
X747Y-8475D01*
X896Y-8536D01*
X1057Y-8537D01*
X1206Y-8475D01*
X1269Y-8412D01*
X1269Y-9196D01*
X1229Y-9156D01*
X1080Y-9095D01*
X919Y-9094D01*
X770Y-9156D01*
X656Y-9270D01*
X595Y-9419D01*
X594Y-9580D01*
X656Y-9729D01*
X770Y-9843D01*
X919Y-9904D01*
X1080Y-9905D01*
X1229Y-9843D01*
X1269Y-9803D01*
X1269Y-10544D01*
X1104Y-10476D01*
X896Y-10476D01*
X703Y-10555D01*
X556Y-10703D01*
X523Y-10782D01*
X523Y-10580D01*
X503Y-10532D01*
X467Y-10496D01*
X419Y-10476D01*
X411Y-10476D01*
X411Y-9528D01*
X391Y-9368D01*
X382Y-9345D01*
X382Y-8381D01*
X382Y-7882D01*
X381Y-7831D01*
X362Y-7783D01*
X325Y-7746D01*
X277Y-7726D01*
X77Y-7727D01*
X45Y-7759D01*
X45Y-8063D01*
X349Y-8063D01*
X382Y-8031D01*
X382Y-7882D01*
X382Y-8381D01*
X382Y-8232D01*
X349Y-8200D01*
X45Y-8200D01*
X45Y-8504D01*
X77Y-8537D01*
X277Y-8537D01*
X325Y-8517D01*
X362Y-8480D01*
X381Y-8432D01*
X382Y-8381D01*
X382Y-9345D01*
X369Y-9315D01*
X313Y-9283D01*
X216Y-9380D01*
X216Y-9186D01*
X184Y-9130D01*
X28Y-9088D01*
X-91Y-9103D01*
X-91Y-8504D01*
X-91Y-8200D01*
X-91Y-8063D01*
X-91Y-7759D01*
X-123Y-7727D01*
X-323Y-7726D01*
X-371Y-7746D01*
X-408Y-7783D01*
X-427Y-7831D01*
X-428Y-7882D01*
X-428Y-8031D01*
X-395Y-8063D01*
X-91Y-8063D01*
X-91Y-8200D01*
X-395Y-8200D01*
X-428Y-8232D01*
X-428Y-8381D01*
X-427Y-8432D01*
X-408Y-8480D01*
X-371Y-8517D01*
X-323Y-8537D01*
X-123Y-8537D01*
X-91Y-8504D01*
X-91Y-9103D01*
X-131Y-9108D01*
X-184Y-9130D01*
X-216Y-9186D01*
X0Y-9403D01*
X216Y-9186D01*
X216Y-9380D01*
X96Y-9500D01*
X313Y-9716D01*
X369Y-9684D01*
X411Y-9528D01*
X411Y-10476D01*
X367Y-10476D01*
X216Y-10476D01*
X216Y-9813D01*
X0Y-9596D01*
X-96Y-9693D01*
X-96Y-9500D01*
X-313Y-9283D01*
X-369Y-9315D01*
X-411Y-9471D01*
X-391Y-9631D01*
X-369Y-9684D01*
X-313Y-9716D01*
X-96Y-9500D01*
X-96Y-9693D01*
X-216Y-9813D01*
X-184Y-9869D01*
X-28Y-9911D01*
X131Y-9891D01*
X184Y-9869D01*
X216Y-9813D01*
X216Y-10476D01*
X100Y-10476D01*
X68Y-10509D01*
X68Y-10931D01*
X76Y-10931D01*
X76Y-11068D01*
X68Y-11068D01*
X68Y-11491D01*
X100Y-11523D01*
X367Y-11523D01*
X419Y-11523D01*
X467Y-11503D01*
X503Y-11467D01*
X523Y-11419D01*
X523Y-11217D01*
X555Y-11296D01*
X703Y-11443D01*
X895Y-11523D01*
X1103Y-11523D01*
X1269Y-11455D01*
X1269Y-12093D01*
M02*
