G04 #@! TF.FileFunction,Soldermask,Top*
%FSLAX46Y46*%
G04 Gerber Fmt 4.6, Leading zero omitted, Abs format (unit mm)*
G04 Created by KiCad (PCBNEW (after 2015-may-01 BZR unknown)-product) date 05/11/2015 17:54:16*
%MOMM*%
G01*
G04 APERTURE LIST*
%ADD10C,0.160000*%
%ADD11C,1.397000*%
%ADD12R,1.700000X1.700000*%
%ADD13R,2.000000X3.000000*%
%ADD14R,3.000000X2.000000*%
%ADD15C,1.500000*%
%ADD16R,2.032000X2.032000*%
%ADD17O,2.032000X2.032000*%
%ADD18R,1.200000X1.200000*%
%ADD19R,1.300000X1.300000*%
%ADD20C,1.300000*%
%ADD21O,2.200000X1.800000*%
%ADD22O,1.400000X2.300000*%
%ADD23C,1.524000*%
%ADD24C,1.600000*%
G04 APERTURE END LIST*
D10*
D11*
X-5138420Y2458720D03*
X-5138420Y-41280D03*
D12*
X-24498420Y2372720D03*
X-24498420Y4872720D03*
X-21998420Y2372720D03*
X-21998420Y4872720D03*
X-19498420Y4872720D03*
X-19498420Y2372720D03*
D13*
X-26998420Y9872720D03*
X-16998420Y9872720D03*
D14*
X-21998420Y14872720D03*
D15*
X-21998420Y9872720D03*
X-16998420Y14872720D03*
X-26998420Y14672720D03*
X-26998420Y4872720D03*
X-16998420Y4872720D03*
D13*
X-9368420Y9884720D03*
X931580Y9884720D03*
D14*
X-4218420Y14884720D03*
D15*
X781580Y14884720D03*
X-9218420Y14884720D03*
X-4218420Y9884720D03*
D16*
X-11542420Y5782720D03*
D17*
X-14082420Y5782720D03*
D11*
X-5138420Y-15321280D03*
X-5138420Y-12781280D03*
X-58420Y2458720D03*
X-58420Y-81280D03*
X-2598420Y-15321280D03*
X-2598420Y-12781280D03*
X2481580Y2458720D03*
X2481580Y-81280D03*
X-58420Y-15321280D03*
X-58420Y-12781280D03*
X2227580Y-18115280D03*
X2227580Y-20655280D03*
X-312420Y-18115280D03*
X-312420Y-20655280D03*
X-5138420Y5506720D03*
X-2598420Y5506720D03*
X2481580Y5506720D03*
X-58420Y5506720D03*
D18*
X2481580Y-12781280D03*
D11*
X2481580Y-15281280D03*
D19*
X-1836420Y-28275280D03*
D20*
X-4336420Y-28275280D03*
D19*
X1973580Y-24465280D03*
D20*
X-526420Y-24465280D03*
D11*
X-2598420Y2458720D03*
X-2598420Y-81280D03*
D21*
X-13012420Y14396720D03*
X-13012420Y9396720D03*
X-30284420Y9570720D03*
X-30284420Y14570720D03*
D22*
X2481580Y-3121280D03*
X-58420Y-3121280D03*
X-2598420Y-3121280D03*
X-5138420Y-3121280D03*
X-5138420Y-9741280D03*
X-2598420Y-9741280D03*
X-58420Y-9741280D03*
X2481580Y-9741280D03*
D23*
X-3360420Y-20655280D03*
X-3360420Y-18115280D03*
X-3360420Y-23195280D03*
D24*
X-14028420Y2966720D03*
X-11488420Y2966720D03*
M02*
