M48
;DRILL file {KiCad (after 2015-may-01 BZR unknown)-product} date 05/11/2015 17:54:18
;FORMAT={-:-/ absolute / metric / decimal}
FMAT,2
METRIC,TZ
T1C0.700
T2C0.750
T3C0.800
T4C0.813
T5C1.000
T6C1.016
T7C1.200
T8C1.500
T9C1.600
%
G90
G05
M71
T1
X-5.138Y2.459
X-5.138Y-0.041
X2.482Y-12.781
X2.482Y-15.281
T3
X-5.138Y-2.621
X-5.138Y-10.241
X-4.336Y-28.275
X-3.36Y-18.115
X-3.36Y-20.655
X-3.36Y-23.195
X-2.598Y-2.621
X-2.598Y-10.241
X-1.836Y-28.275
X-0.526Y-24.465
X-0.058Y-2.621
X-0.058Y-10.241
X1.974Y-24.465
X2.482Y-2.621
X2.482Y-10.241
T4
X-5.138Y5.507
X-5.138Y-12.781
X-5.138Y-15.321
X-2.598Y5.507
X-2.598Y2.459
X-2.598Y-0.081
X-2.598Y-12.781
X-2.598Y-15.321
X-0.312Y-18.115
X-0.312Y-20.655
X-0.058Y5.507
X-0.058Y2.459
X-0.058Y-0.081
X-0.058Y-12.781
X-0.058Y-15.321
X2.228Y-18.115
X2.228Y-20.655
X2.482Y5.507
X2.482Y2.459
X2.482Y-0.081
T5
X-24.498Y4.873
X-24.498Y2.373
X-21.998Y4.873
X-21.998Y2.373
X-19.498Y4.873
X-19.498Y2.373
T6
X-14.082Y5.783
X-11.542Y5.783
T7
X-30.284Y14.571
X-30.284Y9.571
X-13.012Y14.397
X-13.012Y9.397
T8
X-26.998Y14.673
X-26.998Y4.873
X-21.998Y9.873
X-16.998Y14.873
X-16.998Y4.873
X-9.218Y14.885
X-4.218Y9.885
X0.782Y14.885
T9
X-14.028Y2.967
X-11.488Y2.967
T2
X-9.368Y10.26G85X-9.368Y9.51
G05
X-3.843Y14.885G85X-4.593Y14.885
G05
X0.932Y10.26G85X0.932Y9.51
G05
T5
X-26.998Y10.373G85X-26.998Y9.373
G05
X-21.498Y14.873G85X-22.498Y14.873
G05
X-16.998Y10.373G85X-16.998Y9.373
G05
T0
M30
