G04 #@! TF.FileFunction,Copper,L2,Bot,Signal*
%FSLAX46Y46*%
G04 Gerber Fmt 4.6, Leading zero omitted, Abs format (unit mm)*
G04 Created by KiCad (PCBNEW (after 2015-may-01 BZR unknown)-product) date 05/11/2015 17:54:16*
%MOMM*%
G01*
G04 APERTURE LIST*
%ADD10C,0.160000*%
%ADD11C,1.397000*%
%ADD12R,1.700000X1.700000*%
%ADD13R,2.000000X3.000000*%
%ADD14R,3.000000X2.000000*%
%ADD15C,1.500000*%
%ADD16R,2.032000X2.032000*%
%ADD17O,2.032000X2.032000*%
%ADD18R,1.200000X1.200000*%
%ADD19R,1.300000X1.300000*%
%ADD20C,1.300000*%
%ADD21O,2.200000X1.800000*%
%ADD22O,1.400000X2.300000*%
%ADD23C,1.524000*%
%ADD24C,1.600000*%
%ADD25C,0.508000*%
%ADD26C,0.152400*%
G04 APERTURE END LIST*
D10*
D11*
X-5138420Y2458720D03*
X-5138420Y-41280D03*
D12*
X-24498420Y2372720D03*
X-24498420Y4872720D03*
X-21998420Y2372720D03*
X-21998420Y4872720D03*
X-19498420Y4872720D03*
X-19498420Y2372720D03*
D13*
X-26998420Y9872720D03*
X-16998420Y9872720D03*
D14*
X-21998420Y14872720D03*
D15*
X-21998420Y9872720D03*
X-16998420Y14872720D03*
X-26998420Y14672720D03*
X-26998420Y4872720D03*
X-16998420Y4872720D03*
D13*
X-9368420Y9884720D03*
X931580Y9884720D03*
D14*
X-4218420Y14884720D03*
D15*
X781580Y14884720D03*
X-9218420Y14884720D03*
X-4218420Y9884720D03*
D16*
X-11542420Y5782720D03*
D17*
X-14082420Y5782720D03*
D11*
X-5138420Y-15321280D03*
X-5138420Y-12781280D03*
X-58420Y2458720D03*
X-58420Y-81280D03*
X-2598420Y-15321280D03*
X-2598420Y-12781280D03*
X2481580Y2458720D03*
X2481580Y-81280D03*
X-58420Y-15321280D03*
X-58420Y-12781280D03*
X2227580Y-18115280D03*
X2227580Y-20655280D03*
X-312420Y-18115280D03*
X-312420Y-20655280D03*
X-5138420Y5506720D03*
X-2598420Y5506720D03*
X2481580Y5506720D03*
X-58420Y5506720D03*
D18*
X2481580Y-12781280D03*
D11*
X2481580Y-15281280D03*
D19*
X-1836420Y-28275280D03*
D20*
X-4336420Y-28275280D03*
D19*
X1973580Y-24465280D03*
D20*
X-526420Y-24465280D03*
D11*
X-2598420Y2458720D03*
X-2598420Y-81280D03*
D21*
X-13012420Y14396720D03*
X-13012420Y9396720D03*
X-30284420Y9570720D03*
X-30284420Y14570720D03*
D22*
X2481580Y-3121280D03*
X-58420Y-3121280D03*
X-2598420Y-3121280D03*
X-5138420Y-3121280D03*
X-5138420Y-9741280D03*
X-2598420Y-9741280D03*
X-58420Y-9741280D03*
X2481580Y-9741280D03*
D23*
X-3360420Y-20655280D03*
X-3360420Y-18115280D03*
X-3360420Y-23195280D03*
D24*
X-14028420Y2966720D03*
X-11488420Y2966720D03*
D25*
X-5087620Y5506720D02*
X-9292420Y9711520D01*
X-9292420Y9711520D02*
X-9292420Y9932720D01*
X2532380Y5506720D02*
X2532380Y8407920D01*
X2532380Y8407920D02*
X1007580Y9932720D01*
X-2420Y-10157280D02*
X-2420Y-12697280D01*
X-30284420Y9570720D02*
X-30284420Y8930640D01*
X-30284420Y8930640D02*
X-29080460Y7726680D01*
X-12171680Y7726680D02*
X-10195560Y7726680D01*
X-29080460Y7726680D02*
X-12171680Y7726680D01*
X-5138420Y-10241280D02*
X-3868420Y-8971280D01*
X-3868420Y538480D02*
X-3868420Y-8971280D01*
X-4523740Y1193800D02*
X-3868420Y538480D01*
X-5722620Y1193800D02*
X-4523740Y1193800D01*
X-6850380Y2321560D02*
X-5722620Y1193800D01*
X-6850380Y4381500D02*
X-6850380Y2321560D01*
X-10195560Y7726680D02*
X-6850380Y4381500D01*
X-5082420Y-10157280D02*
X-5082420Y-12697280D01*
X-30284420Y14570720D02*
X-30284420Y13158720D01*
X-30284420Y13158720D02*
X-26998420Y9872720D01*
X2537580Y2720D02*
X1262380Y1277920D01*
X2537580Y2720D02*
X2537580Y-2537280D01*
X1262380Y1277920D02*
X1262380Y4236720D01*
X1262380Y4236720D02*
X-7620Y5506720D01*
D26*
G36*
X3277380Y-29279831D02*
X3273926Y-29297195D01*
X3273926Y-18187746D01*
X3222010Y-17781811D01*
X3166546Y-17647910D01*
X3030822Y-17570707D01*
X3030822Y-16076312D01*
X2481580Y-15527070D01*
X2235790Y-15772860D01*
X2235790Y-15281280D01*
X1686548Y-14732038D01*
X1542614Y-14813910D01*
X1435234Y-15208814D01*
X1487150Y-15614749D01*
X1542614Y-15748650D01*
X1686548Y-15830522D01*
X2235790Y-15281280D01*
X2235790Y-15772860D01*
X1932338Y-16076312D01*
X2014210Y-16220246D01*
X2409114Y-16327626D01*
X2815049Y-16275710D01*
X2948950Y-16220246D01*
X3030822Y-16076312D01*
X3030822Y-17570707D01*
X3022612Y-17566038D01*
X2776822Y-17811828D01*
X2776822Y-17320248D01*
X2694950Y-17176314D01*
X2300046Y-17068934D01*
X1894111Y-17120850D01*
X1760210Y-17176314D01*
X1678338Y-17320248D01*
X2227580Y-17869490D01*
X2776822Y-17320248D01*
X2776822Y-17811828D01*
X2473370Y-18115280D01*
X3022612Y-18664522D01*
X3166546Y-18582650D01*
X3273926Y-18187746D01*
X3273926Y-29297195D01*
X3256458Y-29385012D01*
X3256458Y-20451557D01*
X3100178Y-20073330D01*
X2811052Y-19783699D01*
X2776822Y-19769485D01*
X2776822Y-18910312D01*
X2227580Y-18361070D01*
X1981790Y-18606860D01*
X1981790Y-18115280D01*
X1432548Y-17566038D01*
X1288614Y-17647910D01*
X1181234Y-18042814D01*
X1233150Y-18448749D01*
X1288614Y-18582650D01*
X1432548Y-18664522D01*
X1981790Y-18115280D01*
X1981790Y-18606860D01*
X1678338Y-18910312D01*
X1760210Y-19054246D01*
X2155114Y-19161626D01*
X2561049Y-19109710D01*
X2694950Y-19054246D01*
X2776822Y-18910312D01*
X2776822Y-19769485D01*
X2433099Y-19626759D01*
X2023857Y-19626402D01*
X1645630Y-19782682D01*
X1355999Y-20071808D01*
X1199059Y-20449761D01*
X1198702Y-20859003D01*
X1354982Y-21237230D01*
X1644108Y-21526861D01*
X2022061Y-21683801D01*
X2431303Y-21684158D01*
X2809530Y-21527878D01*
X3099161Y-21238752D01*
X3256101Y-20860799D01*
X3256458Y-20451557D01*
X3256458Y-29385012D01*
X3147197Y-29934301D01*
X2953780Y-30223769D01*
X2953780Y-25180961D01*
X2953780Y-25049599D01*
X2953780Y-24721630D01*
X2953780Y-24208930D01*
X2953780Y-23880961D01*
X2953780Y-23749599D01*
X2903510Y-23628237D01*
X2810623Y-23535350D01*
X2689261Y-23485080D01*
X2229930Y-23485080D01*
X2147380Y-23567630D01*
X2147380Y-24291480D01*
X2871230Y-24291480D01*
X2953780Y-24208930D01*
X2953780Y-24721630D01*
X2871230Y-24639080D01*
X2147380Y-24639080D01*
X2147380Y-25362930D01*
X2229930Y-25445480D01*
X2689261Y-25445480D01*
X2810623Y-25395210D01*
X2903510Y-25302323D01*
X2953780Y-25180961D01*
X2953780Y-30223769D01*
X2797684Y-30457384D01*
X2274598Y-30806899D01*
X1799780Y-30901345D01*
X1799780Y-25362930D01*
X1799780Y-24639080D01*
X1799780Y-24291480D01*
X1799780Y-23567630D01*
X1717230Y-23485080D01*
X1257899Y-23485080D01*
X1136537Y-23535350D01*
X1043650Y-23628237D01*
X993380Y-23749599D01*
X993380Y-23880961D01*
X993380Y-24208930D01*
X1075930Y-24291480D01*
X1799780Y-24291480D01*
X1799780Y-24639080D01*
X1075930Y-24639080D01*
X993380Y-24721630D01*
X993380Y-25049599D01*
X993380Y-25180961D01*
X1043650Y-25302323D01*
X1136537Y-25395210D01*
X1257899Y-25445480D01*
X1717230Y-25445480D01*
X1799780Y-25362930D01*
X1799780Y-30901345D01*
X1620131Y-30937080D01*
X971780Y-30937080D01*
X971780Y-10220279D01*
X971780Y-9262281D01*
X971780Y-3600279D01*
X971780Y-2642281D01*
X970458Y-2635634D01*
X970458Y122443D01*
X814178Y500670D01*
X525052Y790301D01*
X490822Y804515D01*
X147099Y947241D01*
X-262143Y947598D01*
X-640370Y791318D01*
X-930001Y502192D01*
X-1086941Y124239D01*
X-1087298Y-285003D01*
X-931018Y-663230D01*
X-641892Y-952861D01*
X-263939Y-1109801D01*
X145303Y-1110158D01*
X523530Y-953878D01*
X813161Y-664752D01*
X970101Y-286799D01*
X970458Y122443D01*
X970458Y-2635634D01*
X893361Y-2248041D01*
X670041Y-1913820D01*
X335820Y-1690500D01*
X-58420Y-1612081D01*
X-452660Y-1690500D01*
X-786881Y-1913820D01*
X-1010201Y-2248041D01*
X-1088620Y-2642281D01*
X-1088620Y-3600279D01*
X-1010201Y-3994519D01*
X-786881Y-4328740D01*
X-452660Y-4552060D01*
X-58420Y-4630479D01*
X335820Y-4552060D01*
X670041Y-4328740D01*
X893361Y-3994519D01*
X971780Y-3600279D01*
X971780Y-9262281D01*
X893361Y-8868041D01*
X670041Y-8533820D01*
X335820Y-8310500D01*
X-58420Y-8232081D01*
X-452660Y-8310500D01*
X-786881Y-8533820D01*
X-1010201Y-8868041D01*
X-1088620Y-9262281D01*
X-1088620Y-10220279D01*
X-1010201Y-10614519D01*
X-786881Y-10948740D01*
X-586620Y-11082550D01*
X-586620Y-11886472D01*
X-640370Y-11908682D01*
X-930001Y-12197808D01*
X-1086941Y-12575761D01*
X-1087298Y-12985003D01*
X-931018Y-13363230D01*
X-641892Y-13652861D01*
X-263939Y-13809801D01*
X145303Y-13810158D01*
X523530Y-13653878D01*
X813161Y-13364752D01*
X970101Y-12986799D01*
X970458Y-12577557D01*
X814178Y-12199330D01*
X581780Y-11966526D01*
X581780Y-11007714D01*
X670041Y-10948740D01*
X893361Y-10614519D01*
X971780Y-10220279D01*
X971780Y-30937080D01*
X970458Y-30937080D01*
X970458Y-15117557D01*
X814178Y-14739330D01*
X525052Y-14449699D01*
X147099Y-14292759D01*
X-262143Y-14292402D01*
X-640370Y-14448682D01*
X-930001Y-14737808D01*
X-1086941Y-15115761D01*
X-1087298Y-15525003D01*
X-931018Y-15903230D01*
X-641892Y-16192861D01*
X-263939Y-16349801D01*
X145303Y-16350158D01*
X523530Y-16193878D01*
X813161Y-15904752D01*
X970101Y-15526799D01*
X970458Y-15117557D01*
X970458Y-30937080D01*
X733926Y-30937080D01*
X733926Y-18187746D01*
X682010Y-17781811D01*
X626546Y-17647910D01*
X482612Y-17566038D01*
X236822Y-17811828D01*
X236822Y-17320248D01*
X154950Y-17176314D01*
X-239954Y-17068934D01*
X-645889Y-17120850D01*
X-779790Y-17176314D01*
X-861662Y-17320248D01*
X-312420Y-17869490D01*
X236822Y-17320248D01*
X236822Y-17811828D01*
X-66630Y-18115280D01*
X482612Y-18664522D01*
X626546Y-18582650D01*
X733926Y-18187746D01*
X733926Y-30937080D01*
X716458Y-30937080D01*
X716458Y-20451557D01*
X560178Y-20073330D01*
X271052Y-19783699D01*
X236822Y-19769485D01*
X236822Y-18910312D01*
X-312420Y-18361070D01*
X-558210Y-18606860D01*
X-558210Y-18115280D01*
X-1107452Y-17566038D01*
X-1251386Y-17647910D01*
X-1358766Y-18042814D01*
X-1306850Y-18448749D01*
X-1251386Y-18582650D01*
X-1107452Y-18664522D01*
X-558210Y-18115280D01*
X-558210Y-18606860D01*
X-861662Y-18910312D01*
X-779790Y-19054246D01*
X-384886Y-19161626D01*
X21049Y-19109710D01*
X154950Y-19054246D01*
X236822Y-18910312D01*
X236822Y-19769485D01*
X-106901Y-19626759D01*
X-516143Y-19626402D01*
X-894370Y-19782682D01*
X-1184001Y-20071808D01*
X-1340941Y-20449761D01*
X-1341298Y-20859003D01*
X-1185018Y-21237230D01*
X-895892Y-21526861D01*
X-517939Y-21683801D01*
X-108697Y-21684158D01*
X269530Y-21527878D01*
X559161Y-21238752D01*
X716101Y-20860799D01*
X716458Y-20451557D01*
X716458Y-30937080D01*
X453950Y-30937080D01*
X453950Y-24271162D01*
X305037Y-23910767D01*
X29544Y-23634792D01*
X-330591Y-23485251D01*
X-720538Y-23484910D01*
X-1080933Y-23633823D01*
X-1356908Y-23909316D01*
X-1506449Y-24269451D01*
X-1506790Y-24659398D01*
X-1357877Y-25019793D01*
X-1082384Y-25295768D01*
X-722249Y-25445309D01*
X-332302Y-25445650D01*
X28093Y-25296737D01*
X304068Y-25021244D01*
X453609Y-24661109D01*
X453950Y-24271162D01*
X453950Y-30937080D01*
X-849751Y-30937080D01*
X-849751Y-28925280D01*
X-849751Y-27625280D01*
X-874179Y-27499376D01*
X-946870Y-27388718D01*
X-1056607Y-27314644D01*
X-1186420Y-27288611D01*
X-1552074Y-27288611D01*
X-1552074Y-15393746D01*
X-1552074Y2386254D01*
X-1569542Y2522838D01*
X-1569542Y5710443D01*
X-1725822Y6088670D01*
X-2014948Y6378301D01*
X-2388220Y6533298D01*
X-2388220Y13819039D01*
X-2388220Y14628370D01*
X-2388220Y15141070D01*
X-2388220Y15950401D01*
X-2438490Y16071763D01*
X-2531377Y16164650D01*
X-2652739Y16214920D01*
X-2784101Y16214920D01*
X-3962070Y16214920D01*
X-4044620Y16132370D01*
X-4044620Y15058520D01*
X-2470770Y15058520D01*
X-2388220Y15141070D01*
X-2388220Y14628370D01*
X-2470770Y14710920D01*
X-4044620Y14710920D01*
X-4044620Y13637070D01*
X-3962070Y13554520D01*
X-2784101Y13554520D01*
X-2652739Y13554520D01*
X-2531377Y13604790D01*
X-2438490Y13697677D01*
X-2388220Y13819039D01*
X-2388220Y6533298D01*
X-2392901Y6535241D01*
X-2802143Y6535598D01*
X-3138033Y6396812D01*
X-3138033Y10098642D01*
X-3302137Y10495805D01*
X-3605737Y10799935D01*
X-4002612Y10964732D01*
X-4392220Y10965072D01*
X-4392220Y13637070D01*
X-4392220Y14710920D01*
X-4392220Y15058520D01*
X-4392220Y16132370D01*
X-4474770Y16214920D01*
X-5652739Y16214920D01*
X-5784101Y16214920D01*
X-5905463Y16164650D01*
X-5998350Y16071763D01*
X-6048620Y15950401D01*
X-6048620Y15141070D01*
X-5966070Y15058520D01*
X-4392220Y15058520D01*
X-4392220Y14710920D01*
X-5966070Y14710920D01*
X-6048620Y14628370D01*
X-6048620Y13819039D01*
X-5998350Y13697677D01*
X-5905463Y13604790D01*
X-5784101Y13554520D01*
X-5652739Y13554520D01*
X-4474770Y13554520D01*
X-4392220Y13637070D01*
X-4392220Y10965072D01*
X-4432342Y10965107D01*
X-4829505Y10801003D01*
X-5133635Y10497403D01*
X-5298432Y10100528D01*
X-5298807Y9670798D01*
X-5134703Y9273635D01*
X-4831103Y8969505D01*
X-4434228Y8804708D01*
X-4004498Y8804333D01*
X-3607335Y8968437D01*
X-3303205Y9272037D01*
X-3138408Y9668912D01*
X-3138033Y10098642D01*
X-3138033Y6396812D01*
X-3180370Y6379318D01*
X-3470001Y6090192D01*
X-3626941Y5712239D01*
X-3627298Y5302997D01*
X-3471018Y4924770D01*
X-3181892Y4635139D01*
X-2803939Y4478199D01*
X-2394697Y4477842D01*
X-2016470Y4634122D01*
X-1726839Y4923248D01*
X-1569899Y5301201D01*
X-1569542Y5710443D01*
X-1569542Y2522838D01*
X-1603990Y2792189D01*
X-1659454Y2926090D01*
X-1803388Y3007962D01*
X-2049178Y2762172D01*
X-2049178Y3253752D01*
X-2131050Y3397686D01*
X-2525954Y3505066D01*
X-2931889Y3453150D01*
X-3065790Y3397686D01*
X-3147662Y3253752D01*
X-2598420Y2704510D01*
X-2049178Y3253752D01*
X-2049178Y2762172D01*
X-2352630Y2458720D01*
X-1803388Y1909478D01*
X-1659454Y1991350D01*
X-1552074Y2386254D01*
X-1552074Y-15393746D01*
X-1569542Y-15257162D01*
X-1569542Y-12577557D01*
X-1725822Y-12199330D01*
X-2014948Y-11909699D01*
X-2392901Y-11752759D01*
X-2802143Y-11752402D01*
X-3180370Y-11908682D01*
X-3470001Y-12197808D01*
X-3626941Y-12575761D01*
X-3627298Y-12985003D01*
X-3471018Y-13363230D01*
X-3181892Y-13652861D01*
X-2803939Y-13809801D01*
X-2394697Y-13810158D01*
X-2016470Y-13653878D01*
X-1726839Y-13364752D01*
X-1569899Y-12986799D01*
X-1569542Y-12577557D01*
X-1569542Y-15257162D01*
X-1603990Y-14987811D01*
X-1659454Y-14853910D01*
X-1803388Y-14772038D01*
X-2049178Y-15017828D01*
X-2049178Y-14526248D01*
X-2131050Y-14382314D01*
X-2525954Y-14274934D01*
X-2931889Y-14326850D01*
X-3065790Y-14382314D01*
X-3147662Y-14526248D01*
X-2598420Y-15075490D01*
X-2049178Y-14526248D01*
X-2049178Y-15017828D01*
X-2352630Y-15321280D01*
X-1803388Y-15870522D01*
X-1659454Y-15788650D01*
X-1552074Y-15393746D01*
X-1552074Y-27288611D01*
X-2049178Y-27288611D01*
X-2049178Y-16116312D01*
X-2598420Y-15567070D01*
X-2844210Y-15812860D01*
X-2844210Y-15321280D01*
X-3393452Y-14772038D01*
X-3537386Y-14853910D01*
X-3644766Y-15248814D01*
X-3592850Y-15654749D01*
X-3537386Y-15788650D01*
X-3393452Y-15870522D01*
X-2844210Y-15321280D01*
X-2844210Y-15812860D01*
X-3147662Y-16116312D01*
X-3065790Y-16260246D01*
X-2670886Y-16367626D01*
X-2264951Y-16315710D01*
X-2131050Y-16260246D01*
X-2049178Y-16116312D01*
X-2049178Y-27288611D01*
X-2250289Y-27288611D01*
X-2250289Y-18203061D01*
X-2301200Y-17771550D01*
X-2368385Y-17609352D01*
X-2518897Y-17519547D01*
X-2764687Y-17765337D01*
X-2764687Y-17273757D01*
X-2854492Y-17123245D01*
X-3272639Y-17005149D01*
X-3704150Y-17056060D01*
X-3866348Y-17123245D01*
X-3956153Y-17273757D01*
X-3360420Y-17869490D01*
X-2764687Y-17273757D01*
X-2764687Y-17765337D01*
X-3114630Y-18115280D01*
X-2518897Y-18711013D01*
X-2368385Y-18621208D01*
X-2250289Y-18203061D01*
X-2250289Y-27288611D01*
X-2268031Y-27288611D01*
X-2268031Y-22978981D01*
X-2268031Y-20438981D01*
X-2433958Y-20037407D01*
X-2740931Y-19729898D01*
X-2764687Y-19720033D01*
X-2764687Y-18956803D01*
X-3360420Y-18361070D01*
X-3606210Y-18606860D01*
X-3606210Y-18115280D01*
X-4092074Y-17629416D01*
X-4092074Y-15393746D01*
X-4143990Y-14987811D01*
X-4199454Y-14853910D01*
X-4343388Y-14772038D01*
X-4589178Y-15017828D01*
X-4589178Y-14526248D01*
X-4671050Y-14382314D01*
X-5065954Y-14274934D01*
X-5471889Y-14326850D01*
X-5605790Y-14382314D01*
X-5687662Y-14526248D01*
X-5138420Y-15075490D01*
X-4589178Y-14526248D01*
X-4589178Y-15017828D01*
X-4892630Y-15321280D01*
X-4343388Y-15870522D01*
X-4199454Y-15788650D01*
X-4092074Y-15393746D01*
X-4092074Y-17629416D01*
X-4201943Y-17519547D01*
X-4352455Y-17609352D01*
X-4470551Y-18027499D01*
X-4419640Y-18459010D01*
X-4352455Y-18621208D01*
X-4201943Y-18711013D01*
X-3606210Y-18115280D01*
X-3606210Y-18606860D01*
X-3956153Y-18956803D01*
X-3866348Y-19107315D01*
X-3448201Y-19225411D01*
X-3016690Y-19174500D01*
X-2854492Y-19107315D01*
X-2764687Y-18956803D01*
X-2764687Y-19720033D01*
X-3142215Y-19563270D01*
X-3576719Y-19562891D01*
X-3978293Y-19728818D01*
X-4285802Y-20035791D01*
X-4452430Y-20437075D01*
X-4452809Y-20871579D01*
X-4286882Y-21273153D01*
X-3979909Y-21580662D01*
X-3578625Y-21747290D01*
X-3144121Y-21747669D01*
X-2742547Y-21581742D01*
X-2435038Y-21274769D01*
X-2268410Y-20873485D01*
X-2268031Y-20438981D01*
X-2268031Y-22978981D01*
X-2433958Y-22577407D01*
X-2740931Y-22269898D01*
X-3142215Y-22103270D01*
X-3576719Y-22102891D01*
X-3978293Y-22268818D01*
X-4285802Y-22575791D01*
X-4452430Y-22977075D01*
X-4452809Y-23411579D01*
X-4286882Y-23813153D01*
X-3979909Y-24120662D01*
X-3578625Y-24287290D01*
X-3144121Y-24287669D01*
X-2742547Y-24121742D01*
X-2435038Y-23814769D01*
X-2268410Y-23413485D01*
X-2268031Y-22978981D01*
X-2268031Y-27288611D01*
X-2486420Y-27288611D01*
X-2612324Y-27313039D01*
X-2722982Y-27385730D01*
X-2797056Y-27495467D01*
X-2823089Y-27625280D01*
X-2823089Y-28925280D01*
X-2798661Y-29051184D01*
X-2725970Y-29161842D01*
X-2616233Y-29235916D01*
X-2486420Y-29261949D01*
X-1186420Y-29261949D01*
X-1060516Y-29237521D01*
X-949858Y-29164830D01*
X-875784Y-29055093D01*
X-849751Y-28925280D01*
X-849751Y-30937080D01*
X-3338865Y-30937080D01*
X-3338865Y-28336033D01*
X-3391550Y-27949660D01*
X-3438049Y-27837403D01*
X-3576967Y-27761617D01*
X-3822757Y-28007407D01*
X-3822757Y-27515827D01*
X-3898543Y-27376909D01*
X-4275667Y-27277725D01*
X-4589178Y-27320474D01*
X-4589178Y-16116312D01*
X-5138420Y-15567070D01*
X-5687662Y-16116312D01*
X-5605790Y-16260246D01*
X-5210886Y-16367626D01*
X-4804951Y-16315710D01*
X-4671050Y-16260246D01*
X-4589178Y-16116312D01*
X-4589178Y-27320474D01*
X-4662040Y-27330410D01*
X-4774297Y-27376909D01*
X-4850083Y-27515827D01*
X-4336420Y-28029490D01*
X-3822757Y-27515827D01*
X-3822757Y-28007407D01*
X-4090630Y-28275280D01*
X-3576967Y-28788943D01*
X-3438049Y-28713157D01*
X-3338865Y-28336033D01*
X-3338865Y-30937080D01*
X-3822757Y-30937080D01*
X-3822757Y-29034733D01*
X-4336420Y-28521070D01*
X-4582210Y-28766860D01*
X-4582210Y-28275280D01*
X-5095873Y-27761617D01*
X-5234791Y-27837403D01*
X-5333975Y-28214527D01*
X-5281290Y-28600900D01*
X-5234791Y-28713157D01*
X-5095873Y-28788943D01*
X-4582210Y-28275280D01*
X-4582210Y-28766860D01*
X-4850083Y-29034733D01*
X-4774297Y-29173651D01*
X-4397173Y-29272835D01*
X-4010800Y-29220150D01*
X-3898543Y-29173651D01*
X-3822757Y-29034733D01*
X-3822757Y-30937080D01*
X-4304972Y-30937080D01*
X-4959442Y-30806897D01*
X-5482525Y-30457384D01*
X-5832040Y-29934298D01*
X-5962220Y-29279831D01*
X-5962220Y-15854158D01*
X-5933452Y-15870522D01*
X-5384210Y-15321280D01*
X-5933452Y-14772038D01*
X-5962220Y-14788401D01*
X-5962220Y-13412113D01*
X-5721892Y-13652861D01*
X-5343939Y-13809801D01*
X-4934697Y-13810158D01*
X-4556470Y-13653878D01*
X-4266839Y-13364752D01*
X-4109899Y-12986799D01*
X-4109542Y-12577557D01*
X-4265822Y-12199330D01*
X-4498220Y-11966526D01*
X-4498220Y-11007714D01*
X-4409959Y-10948740D01*
X-4186639Y-10614519D01*
X-4108220Y-10220279D01*
X-4108220Y-10037264D01*
X-3628620Y-9557664D01*
X-3628620Y-10220279D01*
X-3550201Y-10614519D01*
X-3326881Y-10948740D01*
X-2992660Y-11172060D01*
X-2598420Y-11250479D01*
X-2204180Y-11172060D01*
X-1869959Y-10948740D01*
X-1646639Y-10614519D01*
X-1568220Y-10220279D01*
X-1568220Y-9262281D01*
X-1646639Y-8868041D01*
X-1869959Y-8533820D01*
X-2204180Y-8310500D01*
X-2598420Y-8232081D01*
X-2992660Y-8310500D01*
X-3284220Y-8505314D01*
X-3284220Y-4357245D01*
X-2992660Y-4552060D01*
X-2598420Y-4630479D01*
X-2204180Y-4552060D01*
X-1869959Y-4328740D01*
X-1646639Y-3994519D01*
X-1568220Y-3600279D01*
X-1568220Y-2642281D01*
X-1646639Y-2248041D01*
X-1869959Y-1913820D01*
X-2204180Y-1690500D01*
X-2598420Y-1612081D01*
X-2992660Y-1690500D01*
X-3284220Y-1885314D01*
X-3284220Y-850354D01*
X-3181892Y-952861D01*
X-2803939Y-1109801D01*
X-2394697Y-1110158D01*
X-2016470Y-953878D01*
X-1726839Y-664752D01*
X-1569899Y-286799D01*
X-1569542Y122443D01*
X-1725822Y500670D01*
X-2014948Y790301D01*
X-2049178Y804515D01*
X-2049178Y1663688D01*
X-2598420Y2212930D01*
X-2844210Y1967140D01*
X-2844210Y2458720D01*
X-3393452Y3007962D01*
X-3537386Y2926090D01*
X-3644766Y2531186D01*
X-3592850Y2125251D01*
X-3537386Y1991350D01*
X-3393452Y1909478D01*
X-2844210Y2458720D01*
X-2844210Y1967140D01*
X-3147662Y1663688D01*
X-3065790Y1519754D01*
X-2670886Y1412374D01*
X-2264951Y1464290D01*
X-2131050Y1519754D01*
X-2049178Y1663688D01*
X-2049178Y804515D01*
X-2392901Y947241D01*
X-2802143Y947598D01*
X-3180370Y791318D01*
X-3308977Y662937D01*
X-3328690Y762043D01*
X-3328690Y762044D01*
X-3455328Y951572D01*
X-3455332Y951575D01*
X-4092074Y1588318D01*
X-4110648Y1606892D01*
X-4300176Y1733530D01*
X-4368774Y1747175D01*
X-4274927Y1841021D01*
X-4343386Y1909480D01*
X-4199454Y1991350D01*
X-4092074Y2386254D01*
X-4143990Y2792189D01*
X-4199454Y2926090D01*
X-4343388Y3007962D01*
X-4589178Y2762172D01*
X-4589178Y3253752D01*
X-4671050Y3397686D01*
X-5065954Y3505066D01*
X-5471889Y3453150D01*
X-5605790Y3397686D01*
X-5687662Y3253752D01*
X-5138420Y2704510D01*
X-4589178Y3253752D01*
X-4589178Y2762172D01*
X-4892630Y2458720D01*
X-4878488Y2444578D01*
X-5124278Y2198788D01*
X-5138420Y2212930D01*
X-5152563Y2198788D01*
X-5398353Y2444578D01*
X-5384210Y2458720D01*
X-5933452Y3007962D01*
X-6077386Y2926090D01*
X-6184766Y2531186D01*
X-6177573Y2474936D01*
X-6266180Y2563544D01*
X-6266180Y4381500D01*
X-6310650Y4605063D01*
X-6310650Y4605064D01*
X-6437288Y4794592D01*
X-9690747Y8048051D01*
X-8455135Y8048051D01*
X-6152970Y5745886D01*
X-6166941Y5712239D01*
X-6167298Y5302997D01*
X-6011018Y4924770D01*
X-5721892Y4635139D01*
X-5343939Y4478199D01*
X-4934697Y4477842D01*
X-4556470Y4634122D01*
X-4266839Y4923248D01*
X-4109899Y5301201D01*
X-4109542Y5710443D01*
X-4265822Y6088670D01*
X-4554948Y6378301D01*
X-4932901Y6535241D01*
X-5290269Y6535553D01*
X-8031751Y9277035D01*
X-8031751Y11384720D01*
X-8056179Y11510624D01*
X-8128870Y11621282D01*
X-8138033Y11627468D01*
X-8138033Y15098642D01*
X-8302137Y15495805D01*
X-8605737Y15799935D01*
X-9002612Y15964732D01*
X-9432342Y15965107D01*
X-9829505Y15801003D01*
X-10133635Y15497403D01*
X-10298432Y15100528D01*
X-10298807Y14670798D01*
X-10134703Y14273635D01*
X-9831103Y13969505D01*
X-9434228Y13804708D01*
X-9004498Y13804333D01*
X-8607335Y13968437D01*
X-8303205Y14272037D01*
X-8138408Y14668912D01*
X-8138033Y15098642D01*
X-8138033Y11627468D01*
X-8238607Y11695356D01*
X-8368420Y11721389D01*
X-10368420Y11721389D01*
X-10494324Y11696961D01*
X-10604982Y11624270D01*
X-10679056Y11514533D01*
X-10705089Y11384720D01*
X-10705089Y8384720D01*
X-10690763Y8310880D01*
X-12171680Y8310880D01*
X-12237721Y8310880D01*
X-11914518Y8526837D01*
X-11647844Y8925943D01*
X-11554201Y9396720D01*
X-11554201Y14396720D01*
X-11647844Y14867497D01*
X-11914518Y15266603D01*
X-12313624Y15533277D01*
X-12784401Y15626920D01*
X-13240439Y15626920D01*
X-13711216Y15533277D01*
X-14110322Y15266603D01*
X-14376996Y14867497D01*
X-14470639Y14396720D01*
X-14376996Y13925943D01*
X-14110322Y13526837D01*
X-13711216Y13260163D01*
X-13240439Y13166520D01*
X-12784401Y13166520D01*
X-12313624Y13260163D01*
X-11914518Y13526837D01*
X-11647844Y13925943D01*
X-11554201Y14396720D01*
X-11554201Y9396720D01*
X-11647844Y9867497D01*
X-11914518Y10266603D01*
X-12313624Y10533277D01*
X-12784401Y10626920D01*
X-13240439Y10626920D01*
X-13711216Y10533277D01*
X-14110322Y10266603D01*
X-14376996Y9867497D01*
X-14470639Y9396720D01*
X-14376996Y8925943D01*
X-14110322Y8526837D01*
X-13787120Y8310880D01*
X-15674153Y8310880D01*
X-15661751Y8372720D01*
X-15661751Y11372720D01*
X-15686179Y11498624D01*
X-15758870Y11609282D01*
X-15868607Y11683356D01*
X-15918033Y11693269D01*
X-15918033Y15086642D01*
X-16082137Y15483805D01*
X-16385737Y15787935D01*
X-16782612Y15952732D01*
X-17212342Y15953107D01*
X-17609505Y15789003D01*
X-17913635Y15485403D01*
X-18078432Y15088528D01*
X-18078807Y14658798D01*
X-17914703Y14261635D01*
X-17611103Y13957505D01*
X-17214228Y13792708D01*
X-16784498Y13792333D01*
X-16387335Y13956437D01*
X-16083205Y14260037D01*
X-15918408Y14656912D01*
X-15918033Y15086642D01*
X-15918033Y11693269D01*
X-15998420Y11709389D01*
X-17998420Y11709389D01*
X-18124324Y11684961D01*
X-18234982Y11612270D01*
X-18309056Y11502533D01*
X-18335089Y11372720D01*
X-18335089Y8372720D01*
X-18323091Y8310880D01*
X-20168220Y8310880D01*
X-20168220Y13807039D01*
X-20168220Y14616370D01*
X-20168220Y15129070D01*
X-20168220Y15938401D01*
X-20218490Y16059763D01*
X-20311377Y16152650D01*
X-20432739Y16202920D01*
X-20564101Y16202920D01*
X-21742070Y16202920D01*
X-21824620Y16120370D01*
X-21824620Y15046520D01*
X-20250770Y15046520D01*
X-20168220Y15129070D01*
X-20168220Y14616370D01*
X-20250770Y14698920D01*
X-21824620Y14698920D01*
X-21824620Y13625070D01*
X-21742070Y13542520D01*
X-20564101Y13542520D01*
X-20432739Y13542520D01*
X-20311377Y13592790D01*
X-20218490Y13685677D01*
X-20168220Y13807039D01*
X-20168220Y8310880D01*
X-20918033Y8310880D01*
X-20918033Y10086642D01*
X-21082137Y10483805D01*
X-21385737Y10787935D01*
X-21782612Y10952732D01*
X-22172220Y10953072D01*
X-22172220Y13625070D01*
X-22172220Y14698920D01*
X-22172220Y15046520D01*
X-22172220Y16120370D01*
X-22254770Y16202920D01*
X-23432739Y16202920D01*
X-23564101Y16202920D01*
X-23685463Y16152650D01*
X-23778350Y16059763D01*
X-23828620Y15938401D01*
X-23828620Y15129070D01*
X-23746070Y15046520D01*
X-22172220Y15046520D01*
X-22172220Y14698920D01*
X-23746070Y14698920D01*
X-23828620Y14616370D01*
X-23828620Y13807039D01*
X-23778350Y13685677D01*
X-23685463Y13592790D01*
X-23564101Y13542520D01*
X-23432739Y13542520D01*
X-22254770Y13542520D01*
X-22172220Y13625070D01*
X-22172220Y10953072D01*
X-22212342Y10953107D01*
X-22609505Y10789003D01*
X-22913635Y10485403D01*
X-23078432Y10088528D01*
X-23078807Y9658798D01*
X-22914703Y9261635D01*
X-22611103Y8957505D01*
X-22214228Y8792708D01*
X-21784498Y8792333D01*
X-21387335Y8956437D01*
X-21083205Y9260037D01*
X-20918408Y9656912D01*
X-20918033Y10086642D01*
X-20918033Y8310880D01*
X-25674153Y8310880D01*
X-25661751Y8372720D01*
X-25661751Y11372720D01*
X-25686179Y11498624D01*
X-25758870Y11609282D01*
X-25868607Y11683356D01*
X-25918033Y11693269D01*
X-25918033Y14886642D01*
X-26082137Y15283805D01*
X-26385737Y15587935D01*
X-26782612Y15752732D01*
X-27212342Y15753107D01*
X-27609505Y15589003D01*
X-27913635Y15285403D01*
X-28078432Y14888528D01*
X-28078807Y14458798D01*
X-27914703Y14061635D01*
X-27611103Y13757505D01*
X-27214228Y13592708D01*
X-26784498Y13592333D01*
X-26387335Y13756437D01*
X-26083205Y14060037D01*
X-25918408Y14456912D01*
X-25918033Y14886642D01*
X-25918033Y11693269D01*
X-25998420Y11709389D01*
X-27998420Y11709389D01*
X-28007202Y11707686D01*
X-29700220Y13400704D01*
X-29700220Y13411369D01*
X-29585624Y13434163D01*
X-29186518Y13700837D01*
X-28919844Y14099943D01*
X-28826201Y14570720D01*
X-28919844Y15041497D01*
X-29186518Y15440603D01*
X-29585624Y15707277D01*
X-30056401Y15800920D01*
X-30512439Y15800920D01*
X-30983216Y15707277D01*
X-31283658Y15506529D01*
X-30836080Y16176377D01*
X-30150783Y16634279D01*
X-29304972Y16802520D01*
X1620131Y16802520D01*
X2274598Y16672340D01*
X2797684Y16322825D01*
X3147197Y15799742D01*
X3277380Y15145272D01*
X3277380Y6165603D01*
X3116580Y6326683D01*
X3116580Y8407920D01*
X3072110Y8631483D01*
X3072110Y8631484D01*
X2945472Y8821012D01*
X2268249Y9498235D01*
X2268249Y11384720D01*
X2243821Y11510624D01*
X2171130Y11621282D01*
X2061393Y11695356D01*
X1931580Y11721389D01*
X1861967Y11721389D01*
X1861967Y15098642D01*
X1697863Y15495805D01*
X1394263Y15799935D01*
X997388Y15964732D01*
X567658Y15965107D01*
X170495Y15801003D01*
X-133635Y15497403D01*
X-298432Y15100528D01*
X-298807Y14670798D01*
X-134703Y14273635D01*
X168897Y13969505D01*
X565772Y13804708D01*
X995502Y13804333D01*
X1392665Y13968437D01*
X1696795Y14272037D01*
X1861592Y14668912D01*
X1861967Y15098642D01*
X1861967Y11721389D01*
X-68420Y11721389D01*
X-194324Y11696961D01*
X-304982Y11624270D01*
X-379056Y11514533D01*
X-405089Y11384720D01*
X-405089Y8384720D01*
X-380661Y8258816D01*
X-307970Y8148158D01*
X-198233Y8074084D01*
X-68420Y8048051D01*
X1931580Y8048051D01*
X1948180Y8051272D01*
X1948180Y6399379D01*
X1899630Y6379318D01*
X1609999Y6090192D01*
X1453059Y5712239D01*
X1452702Y5302997D01*
X1608982Y4924770D01*
X1898108Y4635139D01*
X2276061Y4478199D01*
X2685303Y4477842D01*
X3063530Y4634122D01*
X3277380Y4847600D01*
X3277380Y3117603D01*
X3065052Y3330301D01*
X2687099Y3487241D01*
X2277857Y3487598D01*
X1899630Y3331318D01*
X1846580Y3278361D01*
X1846580Y4236720D01*
X1802110Y4460283D01*
X1802110Y4460284D01*
X1675472Y4649812D01*
X970148Y5355136D01*
X970458Y5710443D01*
X814178Y6088670D01*
X525052Y6378301D01*
X147099Y6535241D01*
X-262143Y6535598D01*
X-640370Y6379318D01*
X-930001Y6090192D01*
X-1086941Y5712239D01*
X-1087298Y5302997D01*
X-931018Y4924770D01*
X-641892Y4635139D01*
X-263939Y4478199D01*
X145303Y4477842D01*
X180521Y4492395D01*
X678180Y3994736D01*
X678180Y3203312D01*
X559279Y3322213D01*
X490820Y3253755D01*
X408950Y3397686D01*
X14046Y3505066D01*
X-391889Y3453150D01*
X-525790Y3397686D01*
X-607662Y3253752D01*
X-58420Y2704510D01*
X-44278Y2718653D01*
X201512Y2472863D01*
X187370Y2458720D01*
X201512Y2444578D01*
X-44278Y2198788D01*
X-58420Y2212930D01*
X-304210Y1967140D01*
X-304210Y2458720D01*
X-853452Y3007962D01*
X-997386Y2926090D01*
X-1104766Y2531186D01*
X-1052850Y2125251D01*
X-997386Y1991350D01*
X-853452Y1909478D01*
X-304210Y2458720D01*
X-304210Y1967140D01*
X-607662Y1663688D01*
X-525790Y1519754D01*
X-130886Y1412374D01*
X275049Y1464290D01*
X408950Y1519754D01*
X490820Y1663686D01*
X490822Y1663685D01*
X559279Y1595227D01*
X678180Y1714128D01*
X678180Y1277920D01*
X722650Y1054356D01*
X849288Y864828D01*
X1493202Y220914D01*
X1453059Y124239D01*
X1452702Y-285003D01*
X1608982Y-663230D01*
X1898108Y-952861D01*
X1953380Y-975811D01*
X1953380Y-1780009D01*
X1753119Y-1913820D01*
X1529799Y-2248041D01*
X1451380Y-2642281D01*
X1451380Y-3600279D01*
X1529799Y-3994519D01*
X1753119Y-4328740D01*
X2087340Y-4552060D01*
X2481580Y-4630479D01*
X2875820Y-4552060D01*
X3210041Y-4328740D01*
X3277380Y-4227960D01*
X3277380Y-8634599D01*
X3210041Y-8533820D01*
X2875820Y-8310500D01*
X2481580Y-8232081D01*
X2087340Y-8310500D01*
X1753119Y-8533820D01*
X1529799Y-8868041D01*
X1451380Y-9262281D01*
X1451380Y-10220279D01*
X1529799Y-10614519D01*
X1753119Y-10948740D01*
X2087340Y-11172060D01*
X2481580Y-11250479D01*
X2875820Y-11172060D01*
X3210041Y-10948740D01*
X3277380Y-10847960D01*
X3277380Y-11915186D01*
X3211393Y-11870644D01*
X3081580Y-11844611D01*
X1881580Y-11844611D01*
X1755676Y-11869039D01*
X1645018Y-11941730D01*
X1570944Y-12051467D01*
X1544911Y-12181280D01*
X1544911Y-13381280D01*
X1569339Y-13507184D01*
X1642030Y-13617842D01*
X1751767Y-13691916D01*
X1881580Y-13717949D01*
X3081580Y-13717949D01*
X3207484Y-13693521D01*
X3277380Y-13647606D01*
X3277380Y-14732474D01*
X3276612Y-14732038D01*
X3030822Y-14977828D01*
X3030822Y-14486248D01*
X2948950Y-14342314D01*
X2554046Y-14234934D01*
X2148111Y-14286850D01*
X2014210Y-14342314D01*
X1932338Y-14486248D01*
X2481580Y-15035490D01*
X3030822Y-14486248D01*
X3030822Y-14977828D01*
X2727370Y-15281280D01*
X3276612Y-15830522D01*
X3277380Y-15830085D01*
X3277380Y-29279831D01*
X3277380Y-29279831D01*
G37*
X3277380Y-29279831D02*
X3273926Y-29297195D01*
X3273926Y-18187746D01*
X3222010Y-17781811D01*
X3166546Y-17647910D01*
X3030822Y-17570707D01*
X3030822Y-16076312D01*
X2481580Y-15527070D01*
X2235790Y-15772860D01*
X2235790Y-15281280D01*
X1686548Y-14732038D01*
X1542614Y-14813910D01*
X1435234Y-15208814D01*
X1487150Y-15614749D01*
X1542614Y-15748650D01*
X1686548Y-15830522D01*
X2235790Y-15281280D01*
X2235790Y-15772860D01*
X1932338Y-16076312D01*
X2014210Y-16220246D01*
X2409114Y-16327626D01*
X2815049Y-16275710D01*
X2948950Y-16220246D01*
X3030822Y-16076312D01*
X3030822Y-17570707D01*
X3022612Y-17566038D01*
X2776822Y-17811828D01*
X2776822Y-17320248D01*
X2694950Y-17176314D01*
X2300046Y-17068934D01*
X1894111Y-17120850D01*
X1760210Y-17176314D01*
X1678338Y-17320248D01*
X2227580Y-17869490D01*
X2776822Y-17320248D01*
X2776822Y-17811828D01*
X2473370Y-18115280D01*
X3022612Y-18664522D01*
X3166546Y-18582650D01*
X3273926Y-18187746D01*
X3273926Y-29297195D01*
X3256458Y-29385012D01*
X3256458Y-20451557D01*
X3100178Y-20073330D01*
X2811052Y-19783699D01*
X2776822Y-19769485D01*
X2776822Y-18910312D01*
X2227580Y-18361070D01*
X1981790Y-18606860D01*
X1981790Y-18115280D01*
X1432548Y-17566038D01*
X1288614Y-17647910D01*
X1181234Y-18042814D01*
X1233150Y-18448749D01*
X1288614Y-18582650D01*
X1432548Y-18664522D01*
X1981790Y-18115280D01*
X1981790Y-18606860D01*
X1678338Y-18910312D01*
X1760210Y-19054246D01*
X2155114Y-19161626D01*
X2561049Y-19109710D01*
X2694950Y-19054246D01*
X2776822Y-18910312D01*
X2776822Y-19769485D01*
X2433099Y-19626759D01*
X2023857Y-19626402D01*
X1645630Y-19782682D01*
X1355999Y-20071808D01*
X1199059Y-20449761D01*
X1198702Y-20859003D01*
X1354982Y-21237230D01*
X1644108Y-21526861D01*
X2022061Y-21683801D01*
X2431303Y-21684158D01*
X2809530Y-21527878D01*
X3099161Y-21238752D01*
X3256101Y-20860799D01*
X3256458Y-20451557D01*
X3256458Y-29385012D01*
X3147197Y-29934301D01*
X2953780Y-30223769D01*
X2953780Y-25180961D01*
X2953780Y-25049599D01*
X2953780Y-24721630D01*
X2953780Y-24208930D01*
X2953780Y-23880961D01*
X2953780Y-23749599D01*
X2903510Y-23628237D01*
X2810623Y-23535350D01*
X2689261Y-23485080D01*
X2229930Y-23485080D01*
X2147380Y-23567630D01*
X2147380Y-24291480D01*
X2871230Y-24291480D01*
X2953780Y-24208930D01*
X2953780Y-24721630D01*
X2871230Y-24639080D01*
X2147380Y-24639080D01*
X2147380Y-25362930D01*
X2229930Y-25445480D01*
X2689261Y-25445480D01*
X2810623Y-25395210D01*
X2903510Y-25302323D01*
X2953780Y-25180961D01*
X2953780Y-30223769D01*
X2797684Y-30457384D01*
X2274598Y-30806899D01*
X1799780Y-30901345D01*
X1799780Y-25362930D01*
X1799780Y-24639080D01*
X1799780Y-24291480D01*
X1799780Y-23567630D01*
X1717230Y-23485080D01*
X1257899Y-23485080D01*
X1136537Y-23535350D01*
X1043650Y-23628237D01*
X993380Y-23749599D01*
X993380Y-23880961D01*
X993380Y-24208930D01*
X1075930Y-24291480D01*
X1799780Y-24291480D01*
X1799780Y-24639080D01*
X1075930Y-24639080D01*
X993380Y-24721630D01*
X993380Y-25049599D01*
X993380Y-25180961D01*
X1043650Y-25302323D01*
X1136537Y-25395210D01*
X1257899Y-25445480D01*
X1717230Y-25445480D01*
X1799780Y-25362930D01*
X1799780Y-30901345D01*
X1620131Y-30937080D01*
X971780Y-30937080D01*
X971780Y-10220279D01*
X971780Y-9262281D01*
X971780Y-3600279D01*
X971780Y-2642281D01*
X970458Y-2635634D01*
X970458Y122443D01*
X814178Y500670D01*
X525052Y790301D01*
X490822Y804515D01*
X147099Y947241D01*
X-262143Y947598D01*
X-640370Y791318D01*
X-930001Y502192D01*
X-1086941Y124239D01*
X-1087298Y-285003D01*
X-931018Y-663230D01*
X-641892Y-952861D01*
X-263939Y-1109801D01*
X145303Y-1110158D01*
X523530Y-953878D01*
X813161Y-664752D01*
X970101Y-286799D01*
X970458Y122443D01*
X970458Y-2635634D01*
X893361Y-2248041D01*
X670041Y-1913820D01*
X335820Y-1690500D01*
X-58420Y-1612081D01*
X-452660Y-1690500D01*
X-786881Y-1913820D01*
X-1010201Y-2248041D01*
X-1088620Y-2642281D01*
X-1088620Y-3600279D01*
X-1010201Y-3994519D01*
X-786881Y-4328740D01*
X-452660Y-4552060D01*
X-58420Y-4630479D01*
X335820Y-4552060D01*
X670041Y-4328740D01*
X893361Y-3994519D01*
X971780Y-3600279D01*
X971780Y-9262281D01*
X893361Y-8868041D01*
X670041Y-8533820D01*
X335820Y-8310500D01*
X-58420Y-8232081D01*
X-452660Y-8310500D01*
X-786881Y-8533820D01*
X-1010201Y-8868041D01*
X-1088620Y-9262281D01*
X-1088620Y-10220279D01*
X-1010201Y-10614519D01*
X-786881Y-10948740D01*
X-586620Y-11082550D01*
X-586620Y-11886472D01*
X-640370Y-11908682D01*
X-930001Y-12197808D01*
X-1086941Y-12575761D01*
X-1087298Y-12985003D01*
X-931018Y-13363230D01*
X-641892Y-13652861D01*
X-263939Y-13809801D01*
X145303Y-13810158D01*
X523530Y-13653878D01*
X813161Y-13364752D01*
X970101Y-12986799D01*
X970458Y-12577557D01*
X814178Y-12199330D01*
X581780Y-11966526D01*
X581780Y-11007714D01*
X670041Y-10948740D01*
X893361Y-10614519D01*
X971780Y-10220279D01*
X971780Y-30937080D01*
X970458Y-30937080D01*
X970458Y-15117557D01*
X814178Y-14739330D01*
X525052Y-14449699D01*
X147099Y-14292759D01*
X-262143Y-14292402D01*
X-640370Y-14448682D01*
X-930001Y-14737808D01*
X-1086941Y-15115761D01*
X-1087298Y-15525003D01*
X-931018Y-15903230D01*
X-641892Y-16192861D01*
X-263939Y-16349801D01*
X145303Y-16350158D01*
X523530Y-16193878D01*
X813161Y-15904752D01*
X970101Y-15526799D01*
X970458Y-15117557D01*
X970458Y-30937080D01*
X733926Y-30937080D01*
X733926Y-18187746D01*
X682010Y-17781811D01*
X626546Y-17647910D01*
X482612Y-17566038D01*
X236822Y-17811828D01*
X236822Y-17320248D01*
X154950Y-17176314D01*
X-239954Y-17068934D01*
X-645889Y-17120850D01*
X-779790Y-17176314D01*
X-861662Y-17320248D01*
X-312420Y-17869490D01*
X236822Y-17320248D01*
X236822Y-17811828D01*
X-66630Y-18115280D01*
X482612Y-18664522D01*
X626546Y-18582650D01*
X733926Y-18187746D01*
X733926Y-30937080D01*
X716458Y-30937080D01*
X716458Y-20451557D01*
X560178Y-20073330D01*
X271052Y-19783699D01*
X236822Y-19769485D01*
X236822Y-18910312D01*
X-312420Y-18361070D01*
X-558210Y-18606860D01*
X-558210Y-18115280D01*
X-1107452Y-17566038D01*
X-1251386Y-17647910D01*
X-1358766Y-18042814D01*
X-1306850Y-18448749D01*
X-1251386Y-18582650D01*
X-1107452Y-18664522D01*
X-558210Y-18115280D01*
X-558210Y-18606860D01*
X-861662Y-18910312D01*
X-779790Y-19054246D01*
X-384886Y-19161626D01*
X21049Y-19109710D01*
X154950Y-19054246D01*
X236822Y-18910312D01*
X236822Y-19769485D01*
X-106901Y-19626759D01*
X-516143Y-19626402D01*
X-894370Y-19782682D01*
X-1184001Y-20071808D01*
X-1340941Y-20449761D01*
X-1341298Y-20859003D01*
X-1185018Y-21237230D01*
X-895892Y-21526861D01*
X-517939Y-21683801D01*
X-108697Y-21684158D01*
X269530Y-21527878D01*
X559161Y-21238752D01*
X716101Y-20860799D01*
X716458Y-20451557D01*
X716458Y-30937080D01*
X453950Y-30937080D01*
X453950Y-24271162D01*
X305037Y-23910767D01*
X29544Y-23634792D01*
X-330591Y-23485251D01*
X-720538Y-23484910D01*
X-1080933Y-23633823D01*
X-1356908Y-23909316D01*
X-1506449Y-24269451D01*
X-1506790Y-24659398D01*
X-1357877Y-25019793D01*
X-1082384Y-25295768D01*
X-722249Y-25445309D01*
X-332302Y-25445650D01*
X28093Y-25296737D01*
X304068Y-25021244D01*
X453609Y-24661109D01*
X453950Y-24271162D01*
X453950Y-30937080D01*
X-849751Y-30937080D01*
X-849751Y-28925280D01*
X-849751Y-27625280D01*
X-874179Y-27499376D01*
X-946870Y-27388718D01*
X-1056607Y-27314644D01*
X-1186420Y-27288611D01*
X-1552074Y-27288611D01*
X-1552074Y-15393746D01*
X-1552074Y2386254D01*
X-1569542Y2522838D01*
X-1569542Y5710443D01*
X-1725822Y6088670D01*
X-2014948Y6378301D01*
X-2388220Y6533298D01*
X-2388220Y13819039D01*
X-2388220Y14628370D01*
X-2388220Y15141070D01*
X-2388220Y15950401D01*
X-2438490Y16071763D01*
X-2531377Y16164650D01*
X-2652739Y16214920D01*
X-2784101Y16214920D01*
X-3962070Y16214920D01*
X-4044620Y16132370D01*
X-4044620Y15058520D01*
X-2470770Y15058520D01*
X-2388220Y15141070D01*
X-2388220Y14628370D01*
X-2470770Y14710920D01*
X-4044620Y14710920D01*
X-4044620Y13637070D01*
X-3962070Y13554520D01*
X-2784101Y13554520D01*
X-2652739Y13554520D01*
X-2531377Y13604790D01*
X-2438490Y13697677D01*
X-2388220Y13819039D01*
X-2388220Y6533298D01*
X-2392901Y6535241D01*
X-2802143Y6535598D01*
X-3138033Y6396812D01*
X-3138033Y10098642D01*
X-3302137Y10495805D01*
X-3605737Y10799935D01*
X-4002612Y10964732D01*
X-4392220Y10965072D01*
X-4392220Y13637070D01*
X-4392220Y14710920D01*
X-4392220Y15058520D01*
X-4392220Y16132370D01*
X-4474770Y16214920D01*
X-5652739Y16214920D01*
X-5784101Y16214920D01*
X-5905463Y16164650D01*
X-5998350Y16071763D01*
X-6048620Y15950401D01*
X-6048620Y15141070D01*
X-5966070Y15058520D01*
X-4392220Y15058520D01*
X-4392220Y14710920D01*
X-5966070Y14710920D01*
X-6048620Y14628370D01*
X-6048620Y13819039D01*
X-5998350Y13697677D01*
X-5905463Y13604790D01*
X-5784101Y13554520D01*
X-5652739Y13554520D01*
X-4474770Y13554520D01*
X-4392220Y13637070D01*
X-4392220Y10965072D01*
X-4432342Y10965107D01*
X-4829505Y10801003D01*
X-5133635Y10497403D01*
X-5298432Y10100528D01*
X-5298807Y9670798D01*
X-5134703Y9273635D01*
X-4831103Y8969505D01*
X-4434228Y8804708D01*
X-4004498Y8804333D01*
X-3607335Y8968437D01*
X-3303205Y9272037D01*
X-3138408Y9668912D01*
X-3138033Y10098642D01*
X-3138033Y6396812D01*
X-3180370Y6379318D01*
X-3470001Y6090192D01*
X-3626941Y5712239D01*
X-3627298Y5302997D01*
X-3471018Y4924770D01*
X-3181892Y4635139D01*
X-2803939Y4478199D01*
X-2394697Y4477842D01*
X-2016470Y4634122D01*
X-1726839Y4923248D01*
X-1569899Y5301201D01*
X-1569542Y5710443D01*
X-1569542Y2522838D01*
X-1603990Y2792189D01*
X-1659454Y2926090D01*
X-1803388Y3007962D01*
X-2049178Y2762172D01*
X-2049178Y3253752D01*
X-2131050Y3397686D01*
X-2525954Y3505066D01*
X-2931889Y3453150D01*
X-3065790Y3397686D01*
X-3147662Y3253752D01*
X-2598420Y2704510D01*
X-2049178Y3253752D01*
X-2049178Y2762172D01*
X-2352630Y2458720D01*
X-1803388Y1909478D01*
X-1659454Y1991350D01*
X-1552074Y2386254D01*
X-1552074Y-15393746D01*
X-1569542Y-15257162D01*
X-1569542Y-12577557D01*
X-1725822Y-12199330D01*
X-2014948Y-11909699D01*
X-2392901Y-11752759D01*
X-2802143Y-11752402D01*
X-3180370Y-11908682D01*
X-3470001Y-12197808D01*
X-3626941Y-12575761D01*
X-3627298Y-12985003D01*
X-3471018Y-13363230D01*
X-3181892Y-13652861D01*
X-2803939Y-13809801D01*
X-2394697Y-13810158D01*
X-2016470Y-13653878D01*
X-1726839Y-13364752D01*
X-1569899Y-12986799D01*
X-1569542Y-12577557D01*
X-1569542Y-15257162D01*
X-1603990Y-14987811D01*
X-1659454Y-14853910D01*
X-1803388Y-14772038D01*
X-2049178Y-15017828D01*
X-2049178Y-14526248D01*
X-2131050Y-14382314D01*
X-2525954Y-14274934D01*
X-2931889Y-14326850D01*
X-3065790Y-14382314D01*
X-3147662Y-14526248D01*
X-2598420Y-15075490D01*
X-2049178Y-14526248D01*
X-2049178Y-15017828D01*
X-2352630Y-15321280D01*
X-1803388Y-15870522D01*
X-1659454Y-15788650D01*
X-1552074Y-15393746D01*
X-1552074Y-27288611D01*
X-2049178Y-27288611D01*
X-2049178Y-16116312D01*
X-2598420Y-15567070D01*
X-2844210Y-15812860D01*
X-2844210Y-15321280D01*
X-3393452Y-14772038D01*
X-3537386Y-14853910D01*
X-3644766Y-15248814D01*
X-3592850Y-15654749D01*
X-3537386Y-15788650D01*
X-3393452Y-15870522D01*
X-2844210Y-15321280D01*
X-2844210Y-15812860D01*
X-3147662Y-16116312D01*
X-3065790Y-16260246D01*
X-2670886Y-16367626D01*
X-2264951Y-16315710D01*
X-2131050Y-16260246D01*
X-2049178Y-16116312D01*
X-2049178Y-27288611D01*
X-2250289Y-27288611D01*
X-2250289Y-18203061D01*
X-2301200Y-17771550D01*
X-2368385Y-17609352D01*
X-2518897Y-17519547D01*
X-2764687Y-17765337D01*
X-2764687Y-17273757D01*
X-2854492Y-17123245D01*
X-3272639Y-17005149D01*
X-3704150Y-17056060D01*
X-3866348Y-17123245D01*
X-3956153Y-17273757D01*
X-3360420Y-17869490D01*
X-2764687Y-17273757D01*
X-2764687Y-17765337D01*
X-3114630Y-18115280D01*
X-2518897Y-18711013D01*
X-2368385Y-18621208D01*
X-2250289Y-18203061D01*
X-2250289Y-27288611D01*
X-2268031Y-27288611D01*
X-2268031Y-22978981D01*
X-2268031Y-20438981D01*
X-2433958Y-20037407D01*
X-2740931Y-19729898D01*
X-2764687Y-19720033D01*
X-2764687Y-18956803D01*
X-3360420Y-18361070D01*
X-3606210Y-18606860D01*
X-3606210Y-18115280D01*
X-4092074Y-17629416D01*
X-4092074Y-15393746D01*
X-4143990Y-14987811D01*
X-4199454Y-14853910D01*
X-4343388Y-14772038D01*
X-4589178Y-15017828D01*
X-4589178Y-14526248D01*
X-4671050Y-14382314D01*
X-5065954Y-14274934D01*
X-5471889Y-14326850D01*
X-5605790Y-14382314D01*
X-5687662Y-14526248D01*
X-5138420Y-15075490D01*
X-4589178Y-14526248D01*
X-4589178Y-15017828D01*
X-4892630Y-15321280D01*
X-4343388Y-15870522D01*
X-4199454Y-15788650D01*
X-4092074Y-15393746D01*
X-4092074Y-17629416D01*
X-4201943Y-17519547D01*
X-4352455Y-17609352D01*
X-4470551Y-18027499D01*
X-4419640Y-18459010D01*
X-4352455Y-18621208D01*
X-4201943Y-18711013D01*
X-3606210Y-18115280D01*
X-3606210Y-18606860D01*
X-3956153Y-18956803D01*
X-3866348Y-19107315D01*
X-3448201Y-19225411D01*
X-3016690Y-19174500D01*
X-2854492Y-19107315D01*
X-2764687Y-18956803D01*
X-2764687Y-19720033D01*
X-3142215Y-19563270D01*
X-3576719Y-19562891D01*
X-3978293Y-19728818D01*
X-4285802Y-20035791D01*
X-4452430Y-20437075D01*
X-4452809Y-20871579D01*
X-4286882Y-21273153D01*
X-3979909Y-21580662D01*
X-3578625Y-21747290D01*
X-3144121Y-21747669D01*
X-2742547Y-21581742D01*
X-2435038Y-21274769D01*
X-2268410Y-20873485D01*
X-2268031Y-20438981D01*
X-2268031Y-22978981D01*
X-2433958Y-22577407D01*
X-2740931Y-22269898D01*
X-3142215Y-22103270D01*
X-3576719Y-22102891D01*
X-3978293Y-22268818D01*
X-4285802Y-22575791D01*
X-4452430Y-22977075D01*
X-4452809Y-23411579D01*
X-4286882Y-23813153D01*
X-3979909Y-24120662D01*
X-3578625Y-24287290D01*
X-3144121Y-24287669D01*
X-2742547Y-24121742D01*
X-2435038Y-23814769D01*
X-2268410Y-23413485D01*
X-2268031Y-22978981D01*
X-2268031Y-27288611D01*
X-2486420Y-27288611D01*
X-2612324Y-27313039D01*
X-2722982Y-27385730D01*
X-2797056Y-27495467D01*
X-2823089Y-27625280D01*
X-2823089Y-28925280D01*
X-2798661Y-29051184D01*
X-2725970Y-29161842D01*
X-2616233Y-29235916D01*
X-2486420Y-29261949D01*
X-1186420Y-29261949D01*
X-1060516Y-29237521D01*
X-949858Y-29164830D01*
X-875784Y-29055093D01*
X-849751Y-28925280D01*
X-849751Y-30937080D01*
X-3338865Y-30937080D01*
X-3338865Y-28336033D01*
X-3391550Y-27949660D01*
X-3438049Y-27837403D01*
X-3576967Y-27761617D01*
X-3822757Y-28007407D01*
X-3822757Y-27515827D01*
X-3898543Y-27376909D01*
X-4275667Y-27277725D01*
X-4589178Y-27320474D01*
X-4589178Y-16116312D01*
X-5138420Y-15567070D01*
X-5687662Y-16116312D01*
X-5605790Y-16260246D01*
X-5210886Y-16367626D01*
X-4804951Y-16315710D01*
X-4671050Y-16260246D01*
X-4589178Y-16116312D01*
X-4589178Y-27320474D01*
X-4662040Y-27330410D01*
X-4774297Y-27376909D01*
X-4850083Y-27515827D01*
X-4336420Y-28029490D01*
X-3822757Y-27515827D01*
X-3822757Y-28007407D01*
X-4090630Y-28275280D01*
X-3576967Y-28788943D01*
X-3438049Y-28713157D01*
X-3338865Y-28336033D01*
X-3338865Y-30937080D01*
X-3822757Y-30937080D01*
X-3822757Y-29034733D01*
X-4336420Y-28521070D01*
X-4582210Y-28766860D01*
X-4582210Y-28275280D01*
X-5095873Y-27761617D01*
X-5234791Y-27837403D01*
X-5333975Y-28214527D01*
X-5281290Y-28600900D01*
X-5234791Y-28713157D01*
X-5095873Y-28788943D01*
X-4582210Y-28275280D01*
X-4582210Y-28766860D01*
X-4850083Y-29034733D01*
X-4774297Y-29173651D01*
X-4397173Y-29272835D01*
X-4010800Y-29220150D01*
X-3898543Y-29173651D01*
X-3822757Y-29034733D01*
X-3822757Y-30937080D01*
X-4304972Y-30937080D01*
X-4959442Y-30806897D01*
X-5482525Y-30457384D01*
X-5832040Y-29934298D01*
X-5962220Y-29279831D01*
X-5962220Y-15854158D01*
X-5933452Y-15870522D01*
X-5384210Y-15321280D01*
X-5933452Y-14772038D01*
X-5962220Y-14788401D01*
X-5962220Y-13412113D01*
X-5721892Y-13652861D01*
X-5343939Y-13809801D01*
X-4934697Y-13810158D01*
X-4556470Y-13653878D01*
X-4266839Y-13364752D01*
X-4109899Y-12986799D01*
X-4109542Y-12577557D01*
X-4265822Y-12199330D01*
X-4498220Y-11966526D01*
X-4498220Y-11007714D01*
X-4409959Y-10948740D01*
X-4186639Y-10614519D01*
X-4108220Y-10220279D01*
X-4108220Y-10037264D01*
X-3628620Y-9557664D01*
X-3628620Y-10220279D01*
X-3550201Y-10614519D01*
X-3326881Y-10948740D01*
X-2992660Y-11172060D01*
X-2598420Y-11250479D01*
X-2204180Y-11172060D01*
X-1869959Y-10948740D01*
X-1646639Y-10614519D01*
X-1568220Y-10220279D01*
X-1568220Y-9262281D01*
X-1646639Y-8868041D01*
X-1869959Y-8533820D01*
X-2204180Y-8310500D01*
X-2598420Y-8232081D01*
X-2992660Y-8310500D01*
X-3284220Y-8505314D01*
X-3284220Y-4357245D01*
X-2992660Y-4552060D01*
X-2598420Y-4630479D01*
X-2204180Y-4552060D01*
X-1869959Y-4328740D01*
X-1646639Y-3994519D01*
X-1568220Y-3600279D01*
X-1568220Y-2642281D01*
X-1646639Y-2248041D01*
X-1869959Y-1913820D01*
X-2204180Y-1690500D01*
X-2598420Y-1612081D01*
X-2992660Y-1690500D01*
X-3284220Y-1885314D01*
X-3284220Y-850354D01*
X-3181892Y-952861D01*
X-2803939Y-1109801D01*
X-2394697Y-1110158D01*
X-2016470Y-953878D01*
X-1726839Y-664752D01*
X-1569899Y-286799D01*
X-1569542Y122443D01*
X-1725822Y500670D01*
X-2014948Y790301D01*
X-2049178Y804515D01*
X-2049178Y1663688D01*
X-2598420Y2212930D01*
X-2844210Y1967140D01*
X-2844210Y2458720D01*
X-3393452Y3007962D01*
X-3537386Y2926090D01*
X-3644766Y2531186D01*
X-3592850Y2125251D01*
X-3537386Y1991350D01*
X-3393452Y1909478D01*
X-2844210Y2458720D01*
X-2844210Y1967140D01*
X-3147662Y1663688D01*
X-3065790Y1519754D01*
X-2670886Y1412374D01*
X-2264951Y1464290D01*
X-2131050Y1519754D01*
X-2049178Y1663688D01*
X-2049178Y804515D01*
X-2392901Y947241D01*
X-2802143Y947598D01*
X-3180370Y791318D01*
X-3308977Y662937D01*
X-3328690Y762043D01*
X-3328690Y762044D01*
X-3455328Y951572D01*
X-3455332Y951575D01*
X-4092074Y1588318D01*
X-4110648Y1606892D01*
X-4300176Y1733530D01*
X-4368774Y1747175D01*
X-4274927Y1841021D01*
X-4343386Y1909480D01*
X-4199454Y1991350D01*
X-4092074Y2386254D01*
X-4143990Y2792189D01*
X-4199454Y2926090D01*
X-4343388Y3007962D01*
X-4589178Y2762172D01*
X-4589178Y3253752D01*
X-4671050Y3397686D01*
X-5065954Y3505066D01*
X-5471889Y3453150D01*
X-5605790Y3397686D01*
X-5687662Y3253752D01*
X-5138420Y2704510D01*
X-4589178Y3253752D01*
X-4589178Y2762172D01*
X-4892630Y2458720D01*
X-4878488Y2444578D01*
X-5124278Y2198788D01*
X-5138420Y2212930D01*
X-5152563Y2198788D01*
X-5398353Y2444578D01*
X-5384210Y2458720D01*
X-5933452Y3007962D01*
X-6077386Y2926090D01*
X-6184766Y2531186D01*
X-6177573Y2474936D01*
X-6266180Y2563544D01*
X-6266180Y4381500D01*
X-6310650Y4605063D01*
X-6310650Y4605064D01*
X-6437288Y4794592D01*
X-9690747Y8048051D01*
X-8455135Y8048051D01*
X-6152970Y5745886D01*
X-6166941Y5712239D01*
X-6167298Y5302997D01*
X-6011018Y4924770D01*
X-5721892Y4635139D01*
X-5343939Y4478199D01*
X-4934697Y4477842D01*
X-4556470Y4634122D01*
X-4266839Y4923248D01*
X-4109899Y5301201D01*
X-4109542Y5710443D01*
X-4265822Y6088670D01*
X-4554948Y6378301D01*
X-4932901Y6535241D01*
X-5290269Y6535553D01*
X-8031751Y9277035D01*
X-8031751Y11384720D01*
X-8056179Y11510624D01*
X-8128870Y11621282D01*
X-8138033Y11627468D01*
X-8138033Y15098642D01*
X-8302137Y15495805D01*
X-8605737Y15799935D01*
X-9002612Y15964732D01*
X-9432342Y15965107D01*
X-9829505Y15801003D01*
X-10133635Y15497403D01*
X-10298432Y15100528D01*
X-10298807Y14670798D01*
X-10134703Y14273635D01*
X-9831103Y13969505D01*
X-9434228Y13804708D01*
X-9004498Y13804333D01*
X-8607335Y13968437D01*
X-8303205Y14272037D01*
X-8138408Y14668912D01*
X-8138033Y15098642D01*
X-8138033Y11627468D01*
X-8238607Y11695356D01*
X-8368420Y11721389D01*
X-10368420Y11721389D01*
X-10494324Y11696961D01*
X-10604982Y11624270D01*
X-10679056Y11514533D01*
X-10705089Y11384720D01*
X-10705089Y8384720D01*
X-10690763Y8310880D01*
X-12171680Y8310880D01*
X-12237721Y8310880D01*
X-11914518Y8526837D01*
X-11647844Y8925943D01*
X-11554201Y9396720D01*
X-11554201Y14396720D01*
X-11647844Y14867497D01*
X-11914518Y15266603D01*
X-12313624Y15533277D01*
X-12784401Y15626920D01*
X-13240439Y15626920D01*
X-13711216Y15533277D01*
X-14110322Y15266603D01*
X-14376996Y14867497D01*
X-14470639Y14396720D01*
X-14376996Y13925943D01*
X-14110322Y13526837D01*
X-13711216Y13260163D01*
X-13240439Y13166520D01*
X-12784401Y13166520D01*
X-12313624Y13260163D01*
X-11914518Y13526837D01*
X-11647844Y13925943D01*
X-11554201Y14396720D01*
X-11554201Y9396720D01*
X-11647844Y9867497D01*
X-11914518Y10266603D01*
X-12313624Y10533277D01*
X-12784401Y10626920D01*
X-13240439Y10626920D01*
X-13711216Y10533277D01*
X-14110322Y10266603D01*
X-14376996Y9867497D01*
X-14470639Y9396720D01*
X-14376996Y8925943D01*
X-14110322Y8526837D01*
X-13787120Y8310880D01*
X-15674153Y8310880D01*
X-15661751Y8372720D01*
X-15661751Y11372720D01*
X-15686179Y11498624D01*
X-15758870Y11609282D01*
X-15868607Y11683356D01*
X-15918033Y11693269D01*
X-15918033Y15086642D01*
X-16082137Y15483805D01*
X-16385737Y15787935D01*
X-16782612Y15952732D01*
X-17212342Y15953107D01*
X-17609505Y15789003D01*
X-17913635Y15485403D01*
X-18078432Y15088528D01*
X-18078807Y14658798D01*
X-17914703Y14261635D01*
X-17611103Y13957505D01*
X-17214228Y13792708D01*
X-16784498Y13792333D01*
X-16387335Y13956437D01*
X-16083205Y14260037D01*
X-15918408Y14656912D01*
X-15918033Y15086642D01*
X-15918033Y11693269D01*
X-15998420Y11709389D01*
X-17998420Y11709389D01*
X-18124324Y11684961D01*
X-18234982Y11612270D01*
X-18309056Y11502533D01*
X-18335089Y11372720D01*
X-18335089Y8372720D01*
X-18323091Y8310880D01*
X-20168220Y8310880D01*
X-20168220Y13807039D01*
X-20168220Y14616370D01*
X-20168220Y15129070D01*
X-20168220Y15938401D01*
X-20218490Y16059763D01*
X-20311377Y16152650D01*
X-20432739Y16202920D01*
X-20564101Y16202920D01*
X-21742070Y16202920D01*
X-21824620Y16120370D01*
X-21824620Y15046520D01*
X-20250770Y15046520D01*
X-20168220Y15129070D01*
X-20168220Y14616370D01*
X-20250770Y14698920D01*
X-21824620Y14698920D01*
X-21824620Y13625070D01*
X-21742070Y13542520D01*
X-20564101Y13542520D01*
X-20432739Y13542520D01*
X-20311377Y13592790D01*
X-20218490Y13685677D01*
X-20168220Y13807039D01*
X-20168220Y8310880D01*
X-20918033Y8310880D01*
X-20918033Y10086642D01*
X-21082137Y10483805D01*
X-21385737Y10787935D01*
X-21782612Y10952732D01*
X-22172220Y10953072D01*
X-22172220Y13625070D01*
X-22172220Y14698920D01*
X-22172220Y15046520D01*
X-22172220Y16120370D01*
X-22254770Y16202920D01*
X-23432739Y16202920D01*
X-23564101Y16202920D01*
X-23685463Y16152650D01*
X-23778350Y16059763D01*
X-23828620Y15938401D01*
X-23828620Y15129070D01*
X-23746070Y15046520D01*
X-22172220Y15046520D01*
X-22172220Y14698920D01*
X-23746070Y14698920D01*
X-23828620Y14616370D01*
X-23828620Y13807039D01*
X-23778350Y13685677D01*
X-23685463Y13592790D01*
X-23564101Y13542520D01*
X-23432739Y13542520D01*
X-22254770Y13542520D01*
X-22172220Y13625070D01*
X-22172220Y10953072D01*
X-22212342Y10953107D01*
X-22609505Y10789003D01*
X-22913635Y10485403D01*
X-23078432Y10088528D01*
X-23078807Y9658798D01*
X-22914703Y9261635D01*
X-22611103Y8957505D01*
X-22214228Y8792708D01*
X-21784498Y8792333D01*
X-21387335Y8956437D01*
X-21083205Y9260037D01*
X-20918408Y9656912D01*
X-20918033Y10086642D01*
X-20918033Y8310880D01*
X-25674153Y8310880D01*
X-25661751Y8372720D01*
X-25661751Y11372720D01*
X-25686179Y11498624D01*
X-25758870Y11609282D01*
X-25868607Y11683356D01*
X-25918033Y11693269D01*
X-25918033Y14886642D01*
X-26082137Y15283805D01*
X-26385737Y15587935D01*
X-26782612Y15752732D01*
X-27212342Y15753107D01*
X-27609505Y15589003D01*
X-27913635Y15285403D01*
X-28078432Y14888528D01*
X-28078807Y14458798D01*
X-27914703Y14061635D01*
X-27611103Y13757505D01*
X-27214228Y13592708D01*
X-26784498Y13592333D01*
X-26387335Y13756437D01*
X-26083205Y14060037D01*
X-25918408Y14456912D01*
X-25918033Y14886642D01*
X-25918033Y11693269D01*
X-25998420Y11709389D01*
X-27998420Y11709389D01*
X-28007202Y11707686D01*
X-29700220Y13400704D01*
X-29700220Y13411369D01*
X-29585624Y13434163D01*
X-29186518Y13700837D01*
X-28919844Y14099943D01*
X-28826201Y14570720D01*
X-28919844Y15041497D01*
X-29186518Y15440603D01*
X-29585624Y15707277D01*
X-30056401Y15800920D01*
X-30512439Y15800920D01*
X-30983216Y15707277D01*
X-31283658Y15506529D01*
X-30836080Y16176377D01*
X-30150783Y16634279D01*
X-29304972Y16802520D01*
X1620131Y16802520D01*
X2274598Y16672340D01*
X2797684Y16322825D01*
X3147197Y15799742D01*
X3277380Y15145272D01*
X3277380Y6165603D01*
X3116580Y6326683D01*
X3116580Y8407920D01*
X3072110Y8631483D01*
X3072110Y8631484D01*
X2945472Y8821012D01*
X2268249Y9498235D01*
X2268249Y11384720D01*
X2243821Y11510624D01*
X2171130Y11621282D01*
X2061393Y11695356D01*
X1931580Y11721389D01*
X1861967Y11721389D01*
X1861967Y15098642D01*
X1697863Y15495805D01*
X1394263Y15799935D01*
X997388Y15964732D01*
X567658Y15965107D01*
X170495Y15801003D01*
X-133635Y15497403D01*
X-298432Y15100528D01*
X-298807Y14670798D01*
X-134703Y14273635D01*
X168897Y13969505D01*
X565772Y13804708D01*
X995502Y13804333D01*
X1392665Y13968437D01*
X1696795Y14272037D01*
X1861592Y14668912D01*
X1861967Y15098642D01*
X1861967Y11721389D01*
X-68420Y11721389D01*
X-194324Y11696961D01*
X-304982Y11624270D01*
X-379056Y11514533D01*
X-405089Y11384720D01*
X-405089Y8384720D01*
X-380661Y8258816D01*
X-307970Y8148158D01*
X-198233Y8074084D01*
X-68420Y8048051D01*
X1931580Y8048051D01*
X1948180Y8051272D01*
X1948180Y6399379D01*
X1899630Y6379318D01*
X1609999Y6090192D01*
X1453059Y5712239D01*
X1452702Y5302997D01*
X1608982Y4924770D01*
X1898108Y4635139D01*
X2276061Y4478199D01*
X2685303Y4477842D01*
X3063530Y4634122D01*
X3277380Y4847600D01*
X3277380Y3117603D01*
X3065052Y3330301D01*
X2687099Y3487241D01*
X2277857Y3487598D01*
X1899630Y3331318D01*
X1846580Y3278361D01*
X1846580Y4236720D01*
X1802110Y4460283D01*
X1802110Y4460284D01*
X1675472Y4649812D01*
X970148Y5355136D01*
X970458Y5710443D01*
X814178Y6088670D01*
X525052Y6378301D01*
X147099Y6535241D01*
X-262143Y6535598D01*
X-640370Y6379318D01*
X-930001Y6090192D01*
X-1086941Y5712239D01*
X-1087298Y5302997D01*
X-931018Y4924770D01*
X-641892Y4635139D01*
X-263939Y4478199D01*
X145303Y4477842D01*
X180521Y4492395D01*
X678180Y3994736D01*
X678180Y3203312D01*
X559279Y3322213D01*
X490820Y3253755D01*
X408950Y3397686D01*
X14046Y3505066D01*
X-391889Y3453150D01*
X-525790Y3397686D01*
X-607662Y3253752D01*
X-58420Y2704510D01*
X-44278Y2718653D01*
X201512Y2472863D01*
X187370Y2458720D01*
X201512Y2444578D01*
X-44278Y2198788D01*
X-58420Y2212930D01*
X-304210Y1967140D01*
X-304210Y2458720D01*
X-853452Y3007962D01*
X-997386Y2926090D01*
X-1104766Y2531186D01*
X-1052850Y2125251D01*
X-997386Y1991350D01*
X-853452Y1909478D01*
X-304210Y2458720D01*
X-304210Y1967140D01*
X-607662Y1663688D01*
X-525790Y1519754D01*
X-130886Y1412374D01*
X275049Y1464290D01*
X408950Y1519754D01*
X490820Y1663686D01*
X490822Y1663685D01*
X559279Y1595227D01*
X678180Y1714128D01*
X678180Y1277920D01*
X722650Y1054356D01*
X849288Y864828D01*
X1493202Y220914D01*
X1453059Y124239D01*
X1452702Y-285003D01*
X1608982Y-663230D01*
X1898108Y-952861D01*
X1953380Y-975811D01*
X1953380Y-1780009D01*
X1753119Y-1913820D01*
X1529799Y-2248041D01*
X1451380Y-2642281D01*
X1451380Y-3600279D01*
X1529799Y-3994519D01*
X1753119Y-4328740D01*
X2087340Y-4552060D01*
X2481580Y-4630479D01*
X2875820Y-4552060D01*
X3210041Y-4328740D01*
X3277380Y-4227960D01*
X3277380Y-8634599D01*
X3210041Y-8533820D01*
X2875820Y-8310500D01*
X2481580Y-8232081D01*
X2087340Y-8310500D01*
X1753119Y-8533820D01*
X1529799Y-8868041D01*
X1451380Y-9262281D01*
X1451380Y-10220279D01*
X1529799Y-10614519D01*
X1753119Y-10948740D01*
X2087340Y-11172060D01*
X2481580Y-11250479D01*
X2875820Y-11172060D01*
X3210041Y-10948740D01*
X3277380Y-10847960D01*
X3277380Y-11915186D01*
X3211393Y-11870644D01*
X3081580Y-11844611D01*
X1881580Y-11844611D01*
X1755676Y-11869039D01*
X1645018Y-11941730D01*
X1570944Y-12051467D01*
X1544911Y-12181280D01*
X1544911Y-13381280D01*
X1569339Y-13507184D01*
X1642030Y-13617842D01*
X1751767Y-13691916D01*
X1881580Y-13717949D01*
X3081580Y-13717949D01*
X3207484Y-13693521D01*
X3277380Y-13647606D01*
X3277380Y-14732474D01*
X3276612Y-14732038D01*
X3030822Y-14977828D01*
X3030822Y-14486248D01*
X2948950Y-14342314D01*
X2554046Y-14234934D01*
X2148111Y-14286850D01*
X2014210Y-14342314D01*
X1932338Y-14486248D01*
X2481580Y-15035490D01*
X3030822Y-14486248D01*
X3030822Y-14977828D01*
X2727370Y-15281280D01*
X3276612Y-15830522D01*
X3277380Y-15830085D01*
X3277380Y-29279831D01*
M02*
